<svg width="39" height="39" fill="none" xmlns="http://www.w3.org/2000/svg"><mask id="path-1-inside-1_3387_9922" fill="white"><path d="M0.162544 19.3243C0.161597 22.7298 1.05543 26.055 2.75504 28.9859L0 39L10.2942 36.3129C13.1415 37.856 16.3316 38.6645 19.5735 38.6647H19.582C30.2838 38.6647 38.9954 29.9953 39 19.3395C39.002 14.176 36.984 9.3206 33.3174 5.66764C29.6515 2.015 24.776 0.00235654 19.5812 0C8.87806 0 0.167121 8.66894 0.162702 19.3243"/></mask><path d="M0.162544 19.3243C0.161597 22.7298 1.05543 26.055 2.75504 28.9859L0 39L10.2942 36.3129C13.1415 37.856 16.3316 38.6645 19.5735 38.6647H19.582C30.2838 38.6647 38.9954 29.9953 39 19.3395C39.002 14.176 36.984 9.3206 33.3174 5.66764C29.6515 2.015 24.776 0.00235654 19.5812 0C8.87806 0 0.167121 8.66894 0.162702 19.3243" fill="url(#paint0_linear_3387_9922)"/><path d="M2.75504 28.9859L4.86673 29.5669L5.1103 28.6816L4.64968 27.8873L2.75504 28.9859ZM0 39L-2.11169 38.419L-3.11818 42.0775L0.553155 41.1191L0 39ZM10.2942 36.3129L11.3378 34.3874L10.5777 33.9754L9.74109 34.1938L10.2942 36.3129ZM19.5735 38.6647L19.5733 40.8549H19.5735V38.6647ZM39 19.3395L41.1901 19.3405V19.3404L39 19.3395ZM33.3174 5.66764L31.7716 7.21912L31.7716 7.21918L33.3174 5.66764ZM19.5812 0L19.5822 -2.19015H19.5812V0ZM-2.0276 19.3237C-2.02866 23.1142 -1.0334 26.8188 0.860409 30.0846L4.64968 27.8873C3.14426 25.2912 2.35185 22.3454 2.35269 19.3249L-2.0276 19.3237ZM0.643356 28.405L-2.11169 38.419L2.11169 39.581L4.86673 29.5669L0.643356 28.405ZM0.553155 41.1191L10.8474 38.4321L9.74109 34.1938L-0.553155 36.8809L0.553155 41.1191ZM9.25069 38.2385C12.4187 39.9554 15.9675 40.8547 19.5733 40.8549L19.5736 36.4746C16.6958 36.4744 13.8643 35.7566 11.3378 34.3874L9.25069 38.2385ZM19.5735 40.8549H19.582V36.4746H19.5735V40.8549ZM19.582 40.8549C31.484 40.8549 41.185 31.2145 41.1901 19.3405L36.8099 19.3386C36.8058 28.7761 29.0837 36.4746 19.582 36.4746V40.8549ZM41.1901 19.3404C41.1924 13.5928 38.9414 8.17915 34.8632 4.1161L31.7716 7.21918C35.0266 10.462 36.8117 14.7593 36.8099 19.3386L41.1901 19.3404ZM34.8633 4.11617C30.7857 0.0533111 25.3541 -2.18753 19.5822 -2.19015L19.5802 2.19015C24.1979 2.19224 28.5174 3.97669 31.7716 7.21912L34.8633 4.11617ZM19.5812 -2.19015C7.67801 -2.19015 -2.02252 7.44964 -2.02744 19.3234L2.35285 19.3252C2.35676 9.88823 10.0781 2.19015 19.5812 2.19015V-2.19015Z" fill="#EAEAEA" mask="url(#path-1-inside-1_3387_9922)"/><path d="M14.5426 11.6334C14.1708 10.8018 13.7795 10.785 13.4259 10.7704C13.1364 10.7579 12.8054 10.7588 12.4747 10.7588C12.1437 10.7588 11.6059 10.8841 11.1513 11.3836C10.6963 11.8836 9.41406 13.0918 9.41406 15.5491C9.41406 18.0065 11.1926 20.3814 11.4406 20.7149C11.6888 21.0479 14.8741 26.252 19.9188 28.2541C24.1114 29.9178 24.9646 29.5869 25.8745 29.5035C26.7846 29.4204 28.8111 28.2956 29.2245 27.1293C29.6383 25.9631 29.6383 24.9635 29.5142 24.7546C29.3902 24.5465 29.0592 24.4215 28.5629 24.1719C28.0664 23.922 25.6263 22.7137 25.1714 22.547C24.7164 22.3804 24.3855 22.2973 24.0545 22.7974C23.7235 23.2968 22.7731 24.4215 22.4834 24.7546C22.194 25.0885 21.9043 25.1301 21.4081 24.8802C20.9115 24.6296 19.3131 24.1029 17.4167 22.4014C15.9412 21.0775 14.9451 19.4426 14.6556 18.9425C14.3661 18.4431 14.6246 18.1725 14.8735 17.9236C15.0965 17.6998 15.37 17.3403 15.6184 17.0488C15.8658 16.7571 15.9484 16.549 16.1139 16.2159C16.2796 15.8825 16.1967 15.5908 16.0728 15.341C15.9484 15.0911 14.9839 12.6211 14.5426 11.6336" fill="white"/><defs><linearGradient id="paint0_linear_3387_9922" x1="19.5" y1="39" x2="19.5" y2="0" gradientUnits="userSpaceOnUse"><stop stop-color="#20B038"/><stop offset="1" stop-color="#60D66A"/></linearGradient></defs></svg>