<svg width="200" height="100" fill="none" xmlns="http://www.w3.org/2000/svg"><g opacity="0.8"><path fill-rule="evenodd" clip-rule="evenodd" d="M32.9688 69.9688H89.9687L61.3173 30.9688" fill="#F7F7F7"/><path fill-rule="evenodd" clip-rule="evenodd" d="M92.1841 39.8313C92.5039 39.8313 93.0734 39.7789 93.0734 39.2141C93.0734 38.6213 92.5226 38.5648 92.1841 38.5648H91.5859V39.8313H92.1841ZM92.1011 38.2714C92.3879 38.2714 92.8928 38.2234 92.8928 37.7237C92.8928 37.1889 92.3504 37.1759 92.1011 37.1759H91.5859V38.2714H92.1011ZM91.2433 36.8825H92.1011C92.4565 36.8825 93.2354 36.9219 93.2354 37.7367C93.2354 38.087 93.0044 38.28 92.8237 38.3859C93.2497 38.5038 93.4219 38.8712 93.4219 39.2081C93.4219 39.4625 93.3059 40.1247 92.1841 40.1247H91.2433V36.8825ZM97.1631 38.4863C97.1631 37.6801 96.5175 37.1194 95.6928 37.1194C94.8537 37.1194 94.2136 37.7061 94.2136 38.5123C94.2136 39.3271 94.868 39.8878 95.6928 39.8878C96.5274 39.8878 97.1631 39.2966 97.1631 38.4863ZM97.5057 38.4863C97.5057 39.458 96.7081 40.1812 95.6884 40.1812C94.6771 40.1812 93.871 39.484 93.871 38.5123C93.871 37.5407 94.6686 36.826 95.6884 36.826C96.7125 36.826 97.5057 37.5232 97.5057 38.4863ZM98.5069 38.5298H99.2527C99.8652 38.5298 100.088 38.1929 100.088 37.8557C100.088 37.5087 99.8652 37.1759 99.2527 37.1759H98.5069V38.5298ZM98.164 36.8825H99.2483C100.254 36.8825 100.43 37.4868 100.43 37.8557C100.43 38.3365 100.115 38.8232 99.2483 38.8232H98.5069V40.1247H98.164V36.8825ZM104.167 38.4863C104.167 37.6801 103.522 37.1194 102.697 37.1194C101.858 37.1194 101.218 37.7061 101.218 38.5123C101.218 39.3271 101.872 39.8878 102.697 39.8878C103.532 39.8878 104.167 39.2966 104.167 38.4863ZM104.51 38.4863C104.51 39.458 103.712 40.1812 102.692 40.1812C101.681 40.1812 100.875 39.484 100.875 38.5123C100.875 37.5407 101.673 36.826 102.692 36.826C103.716 36.826 104.51 37.5232 104.51 38.4863ZM105.168 36.8825H105.511V38.3104H107.305V36.8825H107.648V40.1247H107.305V38.6038H105.511V40.1247H105.168V36.8825ZM108.45 36.8825H110.332V37.1759H108.793V38.3454H110.28V38.6402H108.793V39.8313H110.332V40.1247H108.45V36.8825ZM114.439 36.8825H114.848L113.581 38.4034L114.95 40.1247H114.522L113.165 38.4339L114.439 36.8825ZM112.669 40.1247H113.011V36.8825H112.669V40.1247ZM111.157 40.1247H110.731L112.098 38.4034L110.833 36.8825H111.24L112.515 38.4339L111.157 40.1247ZM118.236 37.7106C118.142 37.5756 117.804 37.1194 117.068 37.1194C116.205 37.1194 115.625 37.7541 115.625 38.4949C115.625 39.2925 116.275 39.8878 117.091 39.8878C117.507 39.8878 117.972 39.6989 118.25 39.2795H118.657C118.337 39.8443 117.762 40.1812 117.091 40.1812C116.084 40.1812 115.282 39.484 115.282 38.4949C115.282 37.5317 116.071 36.826 117.062 36.826C117.777 36.826 118.356 37.1499 118.643 37.7106H118.236ZM121.216 36.8825H121.624L120.303 38.4294L121.68 40.1247H121.254L119.895 38.4644L121.216 36.8825ZM119.316 40.1247H119.659V36.8825H119.316V40.1247ZM122.556 36.8825V39.6643L124.596 36.8825H124.957V40.1247H124.614V37.3432L122.575 40.1247H122.213V36.8825H122.556ZM126.631 36.0938C126.65 36.2696 126.787 36.4351 127.13 36.4351C127.475 36.4351 127.614 36.2696 127.633 36.0938H127.965C127.934 36.4321 127.655 36.7084 127.13 36.7084C126.607 36.7084 126.329 36.4321 126.297 36.0938H126.631ZM126.102 36.8825V39.6643L128.142 36.8825H128.503V40.1247H128.16V37.3432L126.12 40.1247H125.759V36.8825H126.102ZM132.402 36.8825H132.809L131.488 38.4294L132.865 40.1247H132.439L131.081 38.4644L132.402 36.8825ZM130.501 40.1247H130.844V36.8825H130.501V40.1247ZM136.263 38.4863C136.263 37.6801 135.619 37.1194 134.793 37.1194C133.954 37.1194 133.316 37.7061 133.316 38.5123C133.316 39.3271 133.968 39.8878 134.793 39.8878C135.628 39.8878 136.263 39.2966 136.263 38.4863ZM136.606 38.4863C136.606 39.458 135.809 40.1812 134.789 40.1812C133.779 40.1812 132.971 39.484 132.971 38.5123C132.971 37.5407 133.769 36.826 134.789 36.826C135.814 36.826 136.606 37.5232 136.606 38.4863ZM137.264 36.8825H137.792L139.055 39.6424L140.314 36.8825H140.843V40.1247H140.501V37.2473L139.198 40.1247H138.91L137.607 37.2473V40.1247H137.264V36.8825ZM141.984 39.8313H142.775C143.374 39.8313 143.517 39.423 143.517 39.1732C143.517 38.9248 143.374 38.5168 142.775 38.5168H141.984V39.8313ZM143.504 36.8825V37.1759H141.984V38.2234H142.771C143.824 38.2234 143.861 39.0121 143.861 39.1732C143.861 39.7399 143.415 40.1247 142.771 40.1247H141.641V36.8825H143.504ZM144.788 36.8825V39.6643L146.828 36.8825H147.189V40.1247H146.846V37.3432L144.807 40.1247H144.445V36.8825H144.788ZM147.991 36.8825H148.334V38.3104H150.128V36.8825H150.471V40.1247H150.128V38.6038H148.334V40.1247H147.991V36.8825ZM153.308 38.7447L152.65 37.2602L151.983 38.7447H153.308ZM152.46 36.8824H152.841L154.31 40.1246H153.938L153.443 39.0381H151.848L151.352 40.1246H150.982L152.46 36.8824ZM154.968 37.1759H154.185V36.8825H156.094V37.1759H155.311V40.1247H154.968V37.1759ZM94.0472 42.6246C93.9539 42.4878 93.6157 42.0319 92.8798 42.0319C92.0162 42.0319 91.4382 42.6681 91.4382 43.4074C91.4382 44.205 92.0863 44.8004 92.9026 44.8004C93.3201 44.8004 93.7835 44.6129 94.0615 44.192H94.4691C94.1493 44.7568 93.5739 45.0938 92.9026 45.0938C91.8957 45.0938 91.0938 44.398 91.0938 43.4074C91.0938 42.4443 91.8829 41.7385 92.874 41.7385C93.5882 41.7385 94.1676 42.0639 94.4548 42.6246H94.0472ZM95.6008 42.0885H94.8161V41.7951H96.7267V42.0885H95.9434V45.0373H95.6008V42.0885ZM97.5618 43.4439H98.3076C98.9201 43.4439 99.1423 43.1055 99.1423 42.7682C99.1423 42.4228 98.9201 42.0885 98.3076 42.0885H97.5618V43.4439ZM97.2174 41.7951H98.3017C99.3086 41.7951 99.4852 42.4008 99.4852 42.7682C99.4852 43.2505 99.1698 43.7373 98.3017 43.7373H97.5618V45.0373H97.2174V41.7951ZM103.222 43.3988C103.222 42.5927 102.576 42.0319 101.751 42.0319C100.912 42.0319 100.272 42.6187 100.272 43.4264C100.272 44.2396 100.927 44.8004 101.751 44.8004C102.587 44.8004 103.222 44.2091 103.222 43.3988ZM103.565 43.3988C103.565 44.372 102.767 45.0938 101.747 45.0938C100.736 45.0938 99.9298 44.398 99.9298 43.4264C99.9298 42.4532 100.727 41.7385 101.747 41.7385C102.771 41.7385 103.565 42.4357 103.565 43.3988ZM104.566 41.795V44.5784L106.606 41.795H106.967V45.0372H106.624V42.2554L104.585 45.0372H104.222V41.795H104.566ZM108.241 42.0885H107.458V41.7951H109.368V42.0885H108.584V45.0373H108.241V42.0885ZM109.859 41.795H111.741V42.0884H110.202V43.2594H111.69V43.5528H110.202V44.7438H111.741V45.0372H109.859V41.795ZM115.32 45.0373H114.944L113.743 42.2034L112.534 45.0373H112.158L113.581 41.7951H113.905L115.32 45.0373ZM116.163 44.7439H116.956C117.554 44.7439 117.698 44.3371 117.698 44.0872C117.698 43.8373 117.554 43.4294 116.956 43.4294H116.163V44.7439ZM116.163 41.7951V43.136H116.952C117.648 43.136 118.041 43.5094 118.041 44.0872C118.041 44.6524 117.6 45.0373 116.952 45.0373H115.82V41.7951H116.163ZM118.624 41.795H118.968V43.2229H120.762V41.795H121.105V45.0372H120.762V43.5178H118.968V45.0372H118.624" fill="#F7F7F7"/><mask id="mask0_3014_849" style="mask-type:alpha" maskUnits="userSpaceOnUse" x="33" y="30" width="135" height="40"><path d="M33.0312 69.0312H167.031V30.0312H33.0312V69.0312Z" fill="white"/></mask><g mask="url(#mask0_3014_849)"><path fill-rule="evenodd" clip-rule="evenodd" d="M124.028 44.9435H124.367V41.7013H124.028V44.9435ZM121.808 44.6501H122.592C123.184 44.6501 123.326 44.2433 123.326 43.9934C123.326 43.7435 123.184 43.3356 122.592 43.3356H121.808V44.6501ZM121.808 41.7013V43.0422H122.588C123.276 43.0422 123.665 43.4156 123.665 43.9934C123.665 44.5586 123.229 44.9435 122.588 44.9435H121.469V41.7013H121.808ZM126.008 43.2876L124.926 41.7013H125.324L126.218 43.0028L127.109 41.7013H127.507L126.411 43.2876L127.575 44.9435H127.177L126.218 43.5591L125.256 44.9435H124.858L126.008 43.2876ZM130.431 41.7013H130.954L132.201 44.4612L133.448 41.7013H133.969V44.9435H133.631V42.0661L132.343 44.9435H132.059L130.771 42.0661V44.9435H130.431V41.7013ZM136.771 43.5636L136.12 42.0792L135.46 43.5636H136.771ZM135.931 41.7014H136.307L137.761 44.9436H137.394L136.903 43.857H135.327L134.836 44.9436H134.469L135.931 41.7014ZM138.412 41.9947H137.637V41.7013H139.525V41.9947H138.751V44.9435H138.412V41.9947ZM140.012 41.7013H141.873V41.9947H140.351V43.1656H141.822V43.459H140.351V44.6501H141.873V44.9435H140.012V41.7013ZM142.922 43.3501H143.66C144.266 43.3501 144.486 43.0117 144.486 42.6745C144.486 42.329 144.266 41.9947 143.66 41.9947H142.922V43.3501ZM142.582 41.7013H143.656C144.65 41.7013 144.824 42.3071 144.824 42.6745C144.824 43.1568 144.513 43.6435 143.656 43.6435H142.922V44.9435H142.582V41.7013ZM145.751 41.7013V44.4846L147.768 41.7013H148.125V44.9435H147.785V42.1616L145.769 44.9435H145.411V41.7013H145.751ZM150.929 43.5636L150.28 42.0792L149.619 43.5636H150.929ZM150.091 41.7014H150.467L151.921 44.9436H151.554L151.063 43.857H149.487L148.996 44.9436H148.629L150.091 41.7014ZM155.253 44.9436H154.881L153.694 42.1096L152.498 44.9436H152.127L153.534 41.7014H153.855L155.253 44.9436ZM158.855 43.3051C158.855 42.4989 158.219 41.9381 157.403 41.9381C156.573 41.9381 155.941 42.5249 155.941 43.3326C155.941 44.1458 156.586 44.7066 157.403 44.7066C158.228 44.7066 158.855 44.1154 158.855 43.3051ZM159.195 43.3051C159.195 44.2782 158.406 45 157.399 45C156.399 45 155.602 44.3043 155.602 43.3326C155.602 42.3595 156.389 41.6448 157.399 41.6448C158.411 41.6448 159.195 42.342 159.195 43.3051ZM160.776 44.6502C161.092 44.6502 161.657 44.5977 161.657 44.0329C161.657 43.4416 161.111 43.3851 160.776 43.3851H160.184V44.6502H160.776ZM160.694 43.0902C160.977 43.0902 161.478 43.0423 161.478 42.544C161.478 42.0092 160.942 41.9947 160.694 41.9947H160.184V43.0902H160.694ZM159.845 41.7014H160.694C161.047 41.7014 161.817 41.7423 161.817 42.5555C161.817 42.9069 161.587 43.1003 161.408 43.2048C161.831 43.3226 162 43.6915 162 44.0284C162 44.2828 161.885 44.9436 160.776 44.9436H159.845V41.7014ZM92.0782 39.7376C92.3944 39.7376 92.9576 39.6852 92.9576 39.1203C92.9576 38.5276 92.4129 38.471 92.0782 38.471H91.4866V39.7376H92.0782ZM91.9961 38.1777C92.2797 38.1777 92.779 38.1297 92.779 37.6299C92.779 37.0952 92.2426 37.0822 91.9961 37.0822H91.4866V38.1777H91.9961ZM91.1479 36.7888H91.9961C92.3476 36.7888 93.1177 36.8282 93.1177 37.6429C93.1177 37.9932 92.8893 38.1862 92.7107 38.2922C93.1319 38.4101 93.3022 38.7775 93.3022 39.1144C93.3022 39.3687 93.1875 40.031 92.0782 40.031H91.1479V36.7888ZM97.0016 38.3926C97.0016 37.5864 96.3633 37.0256 95.5477 37.0256C94.718 37.0256 94.0851 37.6124 94.0851 38.4186C94.0851 39.2333 94.7322 39.7941 95.5477 39.7941C96.3731 39.7941 97.0016 39.2028 97.0016 38.3926ZM97.3404 38.3926C97.3404 39.3642 96.5517 40.0875 95.5434 40.0875C94.5434 40.0875 93.7463 39.3902 93.7463 38.4186C93.7463 37.4469 94.535 36.7322 95.5434 36.7322C96.5561 36.7322 97.3404 37.4294 97.3404 38.3926ZM98.3305 38.4361H99.068C99.6737 38.4361 99.8937 38.0992 99.8937 37.7619C99.8937 37.415 99.6737 37.0822 99.068 37.0822H98.3305V38.4361ZM97.9914 36.7888H99.0636C100.058 36.7888 100.233 37.393 100.233 37.7619C100.233 38.2427 99.9206 38.7295 99.0636 38.7295H98.3305V40.031H97.9914V36.7888ZM103.928 38.3926C103.928 37.5864 103.289 37.0256 102.474 37.0256C101.644 37.0256 101.011 37.6124 101.011 38.4186C101.011 39.2333 101.658 39.7941 102.474 39.7941C103.299 39.7941 103.928 39.2028 103.928 38.3926ZM104.267 38.3926C104.267 39.3642 103.478 40.0875 102.469 40.0875C101.469 40.0875 100.672 39.3902 100.672 38.4186C100.672 37.4469 101.461 36.7322 102.469 36.7322C103.482 36.7322 104.267 37.4294 104.267 38.3926ZM104.918 36.7887H105.257V38.2167H107.031V36.7887H107.37V40.0309H107.031V38.5101H105.257V40.0309H104.918V36.7887ZM108.163 36.7887H110.024V37.0821H108.502V38.2516H109.973V38.5465H108.502V39.7375H110.024V40.0309H108.163V36.7887ZM114.085 36.7887H114.489L113.237 38.3096L114.59 40.0309H114.167L112.825 38.3401L114.085 36.7887ZM112.334 40.0309H112.673V36.7887H112.334V40.0309ZM110.839 40.0309H110.418L111.77 38.3096L110.519 36.7887H110.922L112.183 38.3401L110.839 40.0309ZM117.839 37.6169C117.747 37.4819 117.412 37.0256 116.685 37.0256C115.831 37.0256 115.258 37.6604 115.258 38.4011C115.258 39.1987 115.9 39.7941 116.707 39.7941C117.119 39.7941 117.578 39.6052 117.853 39.1857H118.256C117.94 39.7506 117.371 40.0875 116.707 40.0875C115.712 40.0875 114.919 39.3902 114.919 38.4011C114.919 37.438 115.699 36.7322 116.679 36.7322C117.385 36.7322 117.958 37.0561 118.242 37.6169H117.839ZM120.787 36.7887H121.189L119.883 38.3357L121.245 40.0309H120.824L119.48 38.3706L120.787 36.7887ZM118.907 40.0309H119.246V36.7887H118.907V40.0309ZM122.112 36.7887V39.5706L124.129 36.7887H124.486V40.0309H124.147V37.2495L122.13 40.0309H121.772V36.7887H122.112ZM126.141 36C126.16 36.1759 126.296 36.3414 126.635 36.3414C126.975 36.3414 127.113 36.1759 127.131 36H127.46C127.429 36.3384 127.154 36.6147 126.635 36.6147C126.117 36.6147 125.842 36.3384 125.811 36H126.141ZM125.618 36.7887V39.5705L127.635 36.7887H127.992V40.0309H127.653V37.2494L125.636 40.0309H125.279V36.7887H125.618ZM131.848 36.7887H132.25L130.944 38.3357L132.306 40.0309H131.885L130.541 38.3706L131.848 36.7887ZM129.968 40.0309H130.307V36.7887H129.968V40.0309ZM135.666 38.3926C135.666 37.5864 135.029 37.0256 134.212 37.0256C133.382 37.0256 132.751 37.6124 132.751 38.4186C132.751 39.2333 133.396 39.7941 134.212 39.7941C135.038 39.7941 135.666 39.2028 135.666 38.3926ZM136.005 38.3926C136.005 39.3642 135.216 40.0875 134.208 40.0875C133.209 40.0875 132.411 39.3902 132.411 38.4186C132.411 37.4469 133.199 36.7322 134.208 36.7322C135.222 36.7322 136.005 37.4294 136.005 38.3926ZM136.656 36.7887H137.178L138.426 39.5486L139.672 36.7887H140.195V40.0309H139.856V37.1535L138.568 40.0309H138.283L136.995 37.1535V40.0309H136.656V36.7887ZM141.322 39.7376H142.105C142.697 39.7376 142.839 39.3293 142.839 39.0794C142.839 38.831 142.697 38.4231 142.105 38.4231H141.322V39.7376ZM142.826 36.7888V37.0822H141.322V38.1297H142.101C143.142 38.1297 143.179 38.9184 143.179 39.0794C143.179 39.6461 142.738 40.031 142.101 40.031H140.983V36.7888H142.826ZM144.095 36.7887V39.5706L146.113 36.7887H146.47V40.0309H146.131V37.2495L144.114 40.0309H143.756V36.7887H144.095ZM147.263 36.7887H147.602V38.2167H149.376V36.7887H149.715V40.0309H149.376V38.5101H147.602V40.0309H147.263V36.7887ZM152.521 38.6509L151.87 37.1665L151.21 38.6509H152.521ZM151.682 36.7887H152.059L153.511 40.0309H153.144L152.654 38.9443H151.077L150.586 40.0309H150.22L151.682 36.7887ZM154.162 37.0821H153.387V36.7887H155.275V37.0821H154.501V40.0309H154.162V37.0821ZM93.9205 42.5309C93.8283 42.394 93.4939 41.9381 92.7662 41.9381C91.9121 41.9381 91.3406 42.5744 91.3406 43.3136C91.3406 44.1113 91.9815 44.7066 92.7887 44.7066C93.2016 44.7066 93.6598 44.5192 93.9347 44.0983H94.3377C94.0215 44.6631 93.4525 45 92.7887 45C91.793 45 91 44.3043 91 43.3136C91 42.3505 91.7803 41.6448 92.7604 41.6448C93.4666 41.6448 94.0396 41.9701 94.3236 42.5309H93.9205ZM95.4568 41.9947H94.6808V41.7013H96.5701V41.9947H95.7956V44.9435H95.4568V41.9947ZM97.3959 43.3501H98.1334C98.7391 43.3501 98.9588 43.0117 98.9588 42.6745C98.9588 42.329 98.7391 41.9947 98.1334 41.9947H97.3959V43.3501ZM97.0553 41.7013H98.1276C99.1233 41.7013 99.2979 42.3071 99.2979 42.6745C99.2979 43.1568 98.986 43.6435 98.1276 43.6435H97.3959V44.9435H97.0553V41.7013ZM102.993 43.3051C102.993 42.4989 102.354 41.9381 101.539 41.9381C100.709 41.9381 100.076 42.5249 100.076 43.3326C100.076 44.1458 100.723 44.7066 101.539 44.7066C102.365 44.7066 102.993 44.1154 102.993 43.3051ZM103.332 43.3051C103.332 44.2782 102.543 45 101.535 45C100.535 45 99.7375 44.3043 99.7375 43.3326C99.7375 42.3595 100.526 41.6448 101.535 41.6448C102.547 41.6448 103.332 42.342 103.332 43.3051ZM104.322 41.7013V44.4846L106.339 41.7013H106.696V44.9435H106.357V42.1616L104.34 44.9435H103.982V41.7013H104.322ZM107.956 41.9947H107.181V41.7013H109.071V41.9947H108.295V44.9435H107.956V41.9947ZM109.556 41.7013H111.417V41.9947H109.895V43.1656H111.367V43.459H109.895V44.6501H111.417V44.9435H109.556V41.7013ZM114.956 44.9436H114.584L113.397 42.1096L112.201 44.9436H111.83L113.237 41.7014H113.557L114.956 44.9436ZM115.79 44.6502H116.574C117.166 44.6502 117.308 44.2433 117.308 43.9935C117.308 43.7436 117.166 43.3357 116.574 43.3357H115.79V44.6502ZM115.79 41.7014V43.0423H116.57C117.258 43.0423 117.646 43.4156 117.646 43.9935C117.646 44.5587 117.211 44.9436 116.57 44.9436H115.451V41.7014H115.79ZM118.224 41.7013H118.564V43.1292H120.337V41.7013H120.676V44.9435H120.337V43.4241H118.564V44.9435H118.224" fill="#F7F7F7"/><path fill-rule="evenodd" clip-rule="evenodd" d="M124.588 44.9495H124.931V42.0506H124.588V44.9495ZM122.343 44.6872H123.136C123.734 44.6872 123.878 44.3234 123.878 44.1C123.878 43.8766 123.734 43.5118 123.136 43.5118H122.343V44.6872ZM122.343 42.0506V43.2495H123.132C123.828 43.2495 124.221 43.5833 124.221 44.1C124.221 44.6054 123.78 44.9495 123.132 44.9495H122V42.0506H122.343ZM126.591 43.4689L125.497 42.0506H125.9L126.804 43.2143L127.705 42.0506H128.108L126.999 43.4689L128.177 44.9495H127.774L126.804 43.7117L125.831 44.9495H125.428L126.591 43.4689ZM131.065 42.0505H131.594L132.856 44.5182L134.117 42.0505H134.645V44.9495H134.302V42.3767L132.999 44.9495H132.712L131.409 42.3767V44.9495H131.065V42.0505ZM137.479 43.7157L136.82 42.3884L136.153 43.7157H137.479ZM136.629 42.0506H137.01L138.48 44.9496H138.109L137.612 43.978H136.018L135.522 44.9496H135.15L136.629 42.0506ZM139.139 42.3129H138.355V42.0506H140.265V42.3129H139.482V44.9495H139.139V42.3129ZM140.757 42.0505H142.64V42.3129H141.1V43.3599H142.588V43.6222H141.1V44.6871H142.64V44.9495H140.757V42.0505ZM143.702 43.5248H144.448C145.06 43.5248 145.283 43.2222 145.283 42.9207C145.283 42.6118 145.06 42.3129 144.448 42.3129H143.702V43.5248ZM143.357 42.0506H144.444C145.449 42.0506 145.626 42.5922 145.626 42.9207C145.626 43.3519 145.31 43.7871 144.444 43.7871H143.702V44.9495H143.357V42.0506ZM146.563 42.0505V44.5392L148.603 42.0505H148.965V44.9495H148.62V42.4622L146.581 44.9495H146.218V42.0505H146.563ZM151.801 43.7157L151.144 42.3884L150.476 43.7157H151.801ZM150.953 42.0506H151.334L152.804 44.9496H152.433L151.936 43.978H150.342L149.846 44.9496H149.474L150.953 42.0506ZM156.175 44.9495H155.799L154.598 42.4157L153.388 44.9495H153.012L154.436 42.0506H154.761L156.175 44.9495ZM159.819 43.4845C159.819 42.7637 159.175 42.2623 158.35 42.2623C157.51 42.2623 156.871 42.787 156.871 43.5091C156.871 44.2363 157.523 44.7377 158.35 44.7377C159.185 44.7377 159.819 44.209 159.819 43.4845ZM160.162 43.4845C160.162 44.3546 159.364 45 158.345 45C157.334 45 156.528 44.3779 156.528 43.5091C156.528 42.639 157.324 42 158.345 42C159.37 42 160.162 42.6234 160.162 43.4845ZM161.762 44.6872C162.082 44.6872 162.653 44.6403 162.653 44.1353C162.653 43.6066 162.1 43.5561 161.762 43.5561H161.163V44.6872H161.762ZM161.678 43.2924C161.966 43.2924 162.472 43.2495 162.472 42.804C162.472 42.3259 161.93 42.3129 161.678 42.3129H161.163V43.2924H161.678ZM160.82 42.0506H161.678C162.036 42.0506 162.815 42.0872 162.815 42.8143C162.815 43.1285 162.582 43.3014 162.402 43.3948C162.829 43.5002 163 43.8301 163 44.1313C163 44.3587 162.884 44.9495 161.762 44.9495H160.82V42.0506Z" fill="#F7F7F7"/><path fill-rule="evenodd" clip-rule="evenodd" d="M39.0015 67.605H45.0123C45.1053 66.151 45.4345 64.7453 45.8578 63.3421L40.2689 60.9692L41.0687 58.9829L46.6089 61.4029C47.2197 60.0959 48.0177 58.8378 49.0035 57.7719L44.7307 53.3637L46.1852 51.8622L50.4122 56.2705C51.4453 55.2521 52.6197 54.4295 53.9344 53.8485L51.6324 48.1314L53.5107 47.3089L55.8122 53.0246C57.1741 52.5886 58.536 52.2492 59.9437 52.2002V46H62.0105V52.2002C63.4197 52.2492 64.7801 52.5886 66.1416 53.0246L68.4436 47.3089L70.3687 48.1314L68.0671 53.8485C69.3818 54.4295 70.5089 55.2521 71.542 56.2705L75.8148 51.8622L77.2708 53.3637L72.998 57.7719C73.9838 58.8378 74.7817 60.0959 75.3926 61.4029L80.9328 58.9829L81.6853 60.9692L76.1436 63.3421C76.6127 64.6982 76.8489 66.151 76.9892 67.605H83L82.9927 69H39L39.0015 67.605Z" fill="#F7F7F7"/><path fill-rule="evenodd" clip-rule="evenodd" d="M95.3374 65.663H97.2058C98.006 65.663 99.2075 65.6318 100.175 65.0957C101.242 64.4983 101.544 63.4912 101.544 62.6726C101.544 62.0097 101.31 60.8773 99.9086 60.2792C98.974 59.8691 97.8728 59.8691 96.9393 59.8691H95.3374V65.663ZM95.3374 56.721H96.5722C97.2389 56.721 99.9416 56.6586 99.9416 53.9811C99.9416 52.0621 98.3731 51.3371 96.6049 51.3371H95.3374V56.721ZM96.5047 48.0002C97.7392 48.0002 100.141 48.0002 101.943 49.3225C103.244 50.2676 104.013 51.9044 104.013 53.6681C104.013 56.3749 102.11 57.4772 101.511 57.7921C102.977 58.0121 103.845 58.6107 104.413 59.1144C105.748 60.3104 106.014 61.9476 106.014 63.0499C106.014 64.2771 105.647 66.0092 104.112 67.3003C102.444 68.6844 100.409 69 98.4733 69H91V48.0002H96.5047ZM111.853 56.8785L120.027 48H125.5L116.09 57.6971L126 68.9998H120.26L112.354 59.5867L111.853 60.0578V68.9998H107.516V48H111.853" fill="#F7F7F7"/><path fill-rule="evenodd" clip-rule="evenodd" d="M139.899 67.77C138.589 68.4327 136.853 69 134.494 69C130.663 69 128.338 67.7372 126.504 66.0645C123.982 63.729 123 61.1092 123 58.0153C123 54.1964 124.638 51.4499 126.504 49.7771C128.699 47.789 131.416 47 134.528 47C136.066 47 137.9 47.2527 139.899 48.2937V53.0913C137.9 50.8826 135.412 50.7231 134.625 50.7231C130.237 50.7231 127.388 54.1964 127.388 58.0779C127.388 62.7503 131.122 65.2751 134.79 65.2751C136.819 65.2751 138.621 64.4234 139.899 62.9709V67.77ZM144.32 47.0934H147.267L153.195 60.8559L159.384 47.0934H162.332L166 68.5268H161.676L159.712 55.5536L153.719 68.8112H152.539L146.808 55.5536L144.582 68.5268H140.258" fill="#F7F7F7"/></g></g></svg>