<svg width="200" height="100" fill="none" xmlns="http://www.w3.org/2000/svg"><g opacity="0.8"><path d="M63.5 68.0312C53.2972 68.0312 45 59.734 45 49.5312C45 39.3285 53.2972 31.0312 63.5 31.0312C73.7028 31.0312 82 39.3285 82 49.5312C82 59.734 73.7028 68.0312 63.5 68.0312ZM63.5 35.6562C55.8503 35.6562 49.625 41.8815 49.625 49.5312C49.625 57.181 55.8503 63.4062 63.5 63.4062C71.1497 63.4062 77.375 57.181 77.375 49.5312C77.375 41.8815 71.1497 35.6562 63.5 35.6562Z" fill="#F7F7F7"/><path d="M86.5 68.7812C76.2972 68.7812 68 60.484 68 50.2812C68 40.0785 76.2972 31.7812 86.5 31.7812C96.7028 31.7812 105 40.0785 105 50.2812C105 60.484 96.7028 68.7812 86.5 68.7812ZM86.5 36.4062C78.8503 36.4062 72.625 42.6315 72.625 50.2812C72.625 57.931 78.8503 64.1562 86.5 64.1562C94.1497 64.1562 100.375 57.931 100.375 50.2812C100.375 42.6315 94.1497 36.4062 86.5 36.4062Z" fill="#F7F7F7"/><path d="M112.5 68.9062C102.297 68.9062 94 60.609 94 50.4062C94 40.2035 102.297 31.9062 112.5 31.9062C122.703 31.9062 131 40.2035 131 50.4062C131 60.609 122.703 68.9062 112.5 68.9062ZM112.5 36.5312C104.85 36.5312 98.625 42.7565 98.625 50.4062C98.625 58.056 104.85 64.2812 112.5 64.2812C120.15 64.2812 126.375 58.056 126.375 50.4062C126.375 42.7565 120.15 36.5312 112.5 36.5312Z" fill="#F7F7F7"/><path d="M136.5 68.9688C126.297 68.9688 118 60.6715 118 50.4688C118 40.266 126.297 31.9688 136.5 31.9688C146.703 31.9688 155 40.266 155 50.4688C155 60.6715 146.703 68.9688 136.5 68.9688ZM136.5 36.5938C128.85 36.5938 122.625 42.819 122.625 50.4688C122.625 58.1185 128.85 64.3438 136.5 64.3438C144.15 64.3438 150.375 58.1185 150.375 50.4688C150.375 42.819 144.15 36.5938 136.5 36.5938Z" fill="#F7F7F7"/></g></svg>