<svg width="200" height="100" fill="none" xmlns="http://www.w3.org/2000/svg"><g opacity="0.8"><path d="M131.761 51.2213C131.684 55.2365 132.605 57.3632 136.122 57.3632C139.632 57.3632 140.136 53.7404 140.136 50.9836C140.136 48.225 139.47 45.547 135.782 45.547C133.519 45.547 131.848 47.202 131.761 51.2213ZM124.647 68V40.8211H131.848V41.9236C131.848 43.3941 132.478 42.7877 132.986 42.2146C133.071 42.1189 134.676 40.2699 138.29 40.2699C141.894 40.2699 147.5 42.6325 147.5 50.9837C147.5 57.4433 144.156 62.1692 138.379 62.1692C135.197 62.1692 133.356 60.9897 132.936 60.5137C132.514 60.0442 131.929 59.9623 131.929 60.5137V67.9999H124.647V68ZM68.987 32H76.7714V51.2213C76.7714 54.5276 75.2631 61.4621 64.4678 61.4621C53.6713 61.4621 52.5 54.9988 52.5 51.3778V47.8333H60.0331V51.2977C60.0331 53.4245 61.5401 55.393 64.3841 55.393C67.2294 55.393 68.987 53.8969 68.987 51.3778V32ZM93.0509 48.3057C93.0509 46.3341 91.8815 44.4439 89.2032 44.4439C86.6086 44.4439 85.6872 46.1753 85.6872 48.3057H93.0509ZM88.4525 40.0334C94.5657 40.0334 99.9198 42.2384 99.9198 52.4008H85.4417C85.4417 55.6307 86.8631 56.9702 89.3739 56.9702C91.8853 56.9702 92.7217 55.0782 92.7217 55.0782H99.838C99.838 57.9939 95.5689 61.9327 89.1226 61.8545C81.7595 61.8545 78.1599 56.7338 78.1599 51.4555C78.1599 46.1753 81.3382 40.0334 88.4525 40.0334ZM116.196 48.3057C116.196 46.3341 115.025 44.4439 112.347 44.4439C109.754 44.4439 108.83 46.1753 108.83 48.3057H116.196ZM111.598 40.0334C117.71 40.0334 123.063 42.2384 123.063 52.4008H108.586C108.586 55.6307 110.008 56.9702 112.521 56.9702C115.03 56.9702 115.867 55.0782 115.867 55.0782H122.984C122.984 57.9939 118.714 61.9327 112.27 61.8545C104.903 61.8545 101.303 56.7338 101.303 51.4555C101.303 46.1753 104.485 40.0334 111.598 40.0334ZM142.733 64.7416C142.733 63.6653 143.664 62.7908 144.812 62.7908C145.956 62.7908 146.885 63.6653 146.885 64.7416C146.885 65.8162 145.956 66.6962 144.812 66.6962C143.665 66.6962 142.733 65.8162 142.733 64.7416ZM142.494 64.7416C142.494 65.946 143.53 66.9236 144.812 66.9236C146.086 66.9236 147.128 65.946 147.128 64.7416C147.128 63.5373 146.086 62.5597 144.812 62.5597C143.53 62.5597 142.494 63.5373 142.494 64.7416Z" fill="#F7F7F7"/></g></svg>