<svg width="200" height="100" fill="none" xmlns="http://www.w3.org/2000/svg"><g opacity="0.8"><path fill-rule="evenodd" clip-rule="evenodd" d="M100 61.0494C102.907 61.9136 102.774 51.4198 113.608 48.9506C121.667 47.0988 124.177 46.1111 125.234 43.7654L126.423 41.4198C126.423 41.4198 125.894 51.9136 124.177 57.2222C122.459 62.4074 119.024 70.679 100 70.9259C80.8435 70.8025 77.4085 62.5309 75.8232 57.2222C74.1057 51.9136 73.5772 41.4198 73.5772 41.4198L74.7663 43.7654C75.9553 46.1111 78.3333 46.9753 86.3923 48.9506C97.2256 51.4198 97.0935 61.9136 100 61.0494ZM91.0163 74.3827C93.6585 74.8765 96.8293 75 100 75C103.171 75 106.341 74.7531 108.984 74.3827C114.4 73.642 119.289 72.284 122.327 70.1852C129.461 65.4938 132.5 57.4691 132.5 48.8272C132.5 40.1852 127.48 29.5679 116.514 26.7284C114.136 26.1111 111.626 25.7407 109.116 25.4938C109.116 25.4938 108.059 25.3704 106.474 25.2469C104.228 25.1235 101.982 25 100 25C98.0183 25 95.7724 25 93.5264 25.2469C91.8089 25.3704 90.8841 25.4938 90.8841 25.4938C88.374 25.7407 85.7317 26.1111 83.4858 26.7284C72.6524 29.4444 67.5 40.1852 67.5 48.8272C67.5 57.4691 70.6707 65.3704 77.6728 70.1852C80.7114 72.1605 85.5996 73.642 91.0163 74.3827ZM99.0752 28.7037H100.925C103.699 28.7037 109.248 29.0741 115.193 31.0494C123.648 33.8889 122.195 37.5926 122.195 37.5926C122.195 37.5926 107.927 42.7778 103.699 47.3457C101.057 50.1852 100.264 51.7901 100 52.6543C99.7358 51.7901 98.9431 50.1852 96.3008 47.3457C92.0732 42.7778 77.8049 37.5926 77.8049 37.5926C77.8049 37.5926 76.3516 33.8889 84.8069 31.0494C90.752 29.0741 96.3008 28.7037 99.0752 28.7037Z" fill="#F7F7F7"/></g></svg>