<svg width="201" height="101" fill="none" xmlns="http://www.w3.org/2000/svg"><g opacity="0.8"><path fill-rule="evenodd" clip-rule="evenodd" d="M100.091 17.5504C81.8655 17.6323 67.1711 32.4735 67.2695 50.6982C67.3679 68.9232 82.2223 83.6313 100.447 83.5494C118.672 83.4675 133.367 68.6266 133.269 50.4016C133.17 32.1773 118.315 17.4685 100.091 17.5504ZM100.431 80.5907C83.84 80.6653 70.3178 67.2762 70.2282 50.6849C70.1387 34.0943 83.5156 20.584 100.107 20.5095C116.698 20.4349 130.221 33.8243 130.31 50.4149C130.4 67.0062 117.022 80.5162 100.431 80.5907Z" fill="white"/><path fill-rule="evenodd" clip-rule="evenodd" d="M94.1445 27.4844C96.254 26.8712 98.4423 26.5559 100.643 26.548C102.898 26.5379 105.08 26.8442 107.144 27.4243L100.724 41.5478L94.1445 27.4844Z" fill="white"/><path fill-rule="evenodd" clip-rule="evenodd" d="M112.867 30.4931C115.322 32.0659 117.467 34.0885 119.194 36.4575L108.609 60.5661L104.424 51.2554L96.5904 51.2906L92.5066 60.6381L81.6775 36.6037C83.375 34.2288 85.4928 32.1949 87.923 30.6056L96.5825 49.8275L104.443 49.7922L112.867 30.4931ZM78.0217 44.4435C77.5094 46.4363 77.2564 48.4889 77.2691 50.5489C77.319 59.7885 82.5988 67.7625 90.2455 71.5952L78.0217 44.4435Z" fill="white"/><path fill-rule="evenodd" clip-rule="evenodd" d="M94.3832 71.6821C96.4297 72.2683 98.5467 72.5599 100.672 72.5483C102.85 72.5385 104.954 72.2174 106.944 71.6281L100.591 57.4949L94.3832 71.6821ZM110.798 70.0822C118.234 66.2637 123.312 58.4126 123.263 49.3688C123.252 47.3215 122.979 45.3377 122.477 43.45L110.798 70.0822Z" fill="white"/></g></svg>