<svg width="201" height="101" fill="none" xmlns="http://www.w3.org/2000/svg"><g opacity="0.8"><path fill-rule="evenodd" clip-rule="evenodd" d="M98.0685 32.5874C107.971 31.6402 116.801 38.944 117.748 48.8532C118.679 58.7532 111.382 67.5808 101.478 68.5192C91.5757 69.467 82.7373 62.1626 81.7987 52.2625C80.8594 42.3618 88.1655 33.5261 98.0685 32.5874ZM97.2566 21.3713C113.332 19.8567 127.695 31.7279 129.227 47.7986C130.742 63.8866 118.868 78.2465 102.793 79.7607C86.7093 81.2921 72.3372 69.4214 70.8226 53.3422C69.29 37.2623 81.1643 22.9028 97.2566 21.3713ZM97.1755 19.9255C114.177 18.3141 129.355 30.8671 130.967 47.8637C132.58 64.8605 120.031 80.0346 103.031 81.6467C86.0382 83.2585 70.8594 70.7139 69.2475 53.7173C67.6266 36.7293 80.183 21.546 97.1755 19.9255ZM106.935 61.1757L93.0793 59.9244C91.8924 59.6416 90.7675 59.9639 89.7217 60.8495C89.1596 61.153 87.3066 61.0973 87.0453 60.3356C86.4954 58.2766 86.2425 57.3512 84.8025 56.194C84.3685 55.7018 84.4372 55.3468 85.0081 55.1462L89.156 55.5183C89.9095 55.5947 90.4378 55.7925 90.8712 56.0251L93.099 57.2758C93.2898 57.3968 94.0864 57.4727 94.1107 56.6419C94.2011 54.3561 93.2344 51.7615 91.4122 49.7399C90.8481 49.135 90.0417 48.6175 89.1748 48.1346C88.4815 47.8158 87.7968 47.5749 87.0866 47.4985C85.6923 47.4062 84.887 47.209 84.6786 46.9152C83.8286 46.2937 84.8206 44.5433 85.1822 43.6423C85.5957 42.6547 86.1999 41.7098 87.1426 41.301C88.5802 41.5146 90.4439 42.4711 92.5506 43.8516C93.2262 43.9454 93.4073 43.6942 93.0426 43.0889C91.5679 41.7329 88.0327 40.5721 88.1005 39.8015C88.7037 38.3807 90.6578 37.2166 92.1103 36.3133C93.1393 35.6447 94.3073 35.1836 95.1128 35.3114C96.0139 35.6125 97.5589 37.5307 99.8254 40.5557C100.26 41.152 100.995 40.6312 100.664 39.974C100.203 39.2998 99.6478 38.5132 99.4478 38.2195C98.1542 36.5343 97.0435 35.4462 97.0514 34.9961C97.2572 34.0347 99.6119 33.926 102.695 34.4475C108.393 38.6163 110.412 47.8822 106.726 56.9441C106.605 57.2558 106.511 57.6804 106.521 58.0179C106.53 58.3816 106.738 58.5452 107.137 58.5532C107.5 58.5436 107.664 58.4653 107.794 58.1708C107.784 57.7898 107.714 57.548 107.93 57.2011C109.462 56.9643 112.548 58.7318 113.383 60.2885C112.424 61.5541 109.951 62.745 107.899 62.7406C107.673 62.7065 107.509 62.5594 107.447 62.326L107.438 61.8498C107.403 61.4696 107.255 61.2445 106.935 61.1757ZM102.638 51.776C103.979 51.6518 105.168 52.6366 105.3 53.9779C105.425 55.3107 104.44 56.4988 103.098 56.6311C101.765 56.7553 100.576 55.7712 100.453 54.4299C100.32 53.0971 101.305 51.909 102.638 51.776ZM123.783 40.6343L120.926 40.9953L121.631 42.6126L123.783 40.6343ZM125.112 38.5798L126.39 41.3904L119.771 47.3426L118.865 44.8776L120.248 43.6457L119.213 41.2156L117.351 41.2975L116.281 39.0146L125.112 38.5798ZM114.512 29.2631L112.216 32.6697C113.396 33.6454 114.385 34.2835 115.592 32.455C116.792 30.6171 115.873 30.1862 114.512 29.2631ZM113.511 26.5211L115.895 28.0223C118.591 29.7045 119.305 31.6245 117.622 34.0604C115.93 36.4963 114.059 36.0674 111.467 34.2898L109.212 32.7452L113.511 26.5211ZM97.3989 27.2219C97.3324 24.4955 99.2861 22.9851 101.745 23.0927C104.204 23.2 106.37 23.7837 106.446 26.8653C106.53 29.9292 104.671 30.9548 101.978 31.0036C99.2857 31.0524 97.4739 29.9401 97.3989 27.2219ZM100.194 26.775C100.017 28.9653 100.945 29.4392 101.819 29.4373C102.711 29.4354 103.454 28.9491 103.667 27.0617C103.854 25.2781 102.891 24.527 101.974 24.5724C100.562 24.6357 100.271 25.8484 100.194 26.775ZM84.2575 28.0553L86.3673 26.7699L88.1138 29.6832L88.5033 25.6662L91.0639 24.6306L90.4579 28.7L94.498 31.2796L91.9719 32.2805L88.3742 30.1416L90.2251 33.2021L88.0547 34.5395L84.2575 28.0553ZM81.7416 41.8752C84.3266 40.078 85.6795 37.1409 83.6244 35.5956C81.2395 33.8174 79.6711 37.2832 78.6231 37.1471C77.9476 37.0621 78.6714 35.4763 80.0975 34.227L79.1087 33.3807C76.0922 35.7157 75.4838 38.8069 77.7545 39.8236C79.5745 40.642 81.507 37.4436 81.9576 37.6162C83.5347 38.2274 80.8385 40.6827 80.4495 40.9174L81.7416 41.8752ZM107.829 74.2186C106.405 72.5164 106.919 70.2128 108.701 69.2918C109.774 68.7438 111.393 68.7837 112.235 69.6046C113.206 70.5719 113.566 72.5879 112.383 73.9146C111.493 74.912 108.809 75.394 107.829 74.2186ZM110.797 73.3896C111.523 73.0251 111.4 71.978 111.147 71.3548C110.738 70.3782 110.001 70.0249 109.335 70.2941C108.583 70.5987 108.602 71.6633 108.924 72.3639C109.237 73.0642 110.009 73.7638 110.797 73.3896ZM101.228 76.8121L100.959 72.6663L99.5135 72.7389L99.4411 71.3968L104.056 71.1795L104.137 72.5124L102.777 72.5841L103.029 76.7299L101.228 76.8121ZM91.5851 69.7436L93.4476 70.3019L92.6229 73.2298C92.4853 73.7233 92.3051 74.468 93.0154 74.6139C93.7257 74.7592 93.8803 74.127 94.0263 73.6071L94.8425 70.6718L96.5058 71.118L95.6723 74.0886C95.2946 75.6391 93.9713 76.1263 92.6195 75.7658C91.0689 75.3709 90.3221 74.2902 90.7605 72.7142L91.5851 69.7436ZM86.8193 68.0316L85.0037 69.2557L86.0096 70.0501L86.8193 68.0316ZM81.61 69.4707L86.4958 66.5948L88.5681 68.036L86.502 73.6059L85.0879 72.3453L85.4666 71.2196L83.9834 70.0371L83.0671 70.697L81.61 69.4707ZM75.3481 36.0895L76.4477 36.0959C76.6632 35.5847 76.9476 35.0994 77.2672 34.7177L76.9706 33.6191C76.6597 33.9486 76.3574 34.3041 76.2628 34.6073L76.5147 35.0915L75.8744 35.1447C75.6153 35.4483 75.4947 35.6651 75.3481 36.0895Z" fill="white"/></g></svg>