<svg width="199" height="100" fill="none" xmlns="http://www.w3.org/2000/svg"><g opacity="0.8"><path fill-rule="evenodd" clip-rule="evenodd" d="M87.4515 31.5168C79.6577 34.4026 73.077 36.2799 66.5243 37.4865C63.7099 38.0048 62.6391 38.1776 57.9827 38.8647C56.5733 39.0726 55.0998 39.2958 54.7083 39.3606C54.0877 39.4633 55.9195 39.4794 69.0019 39.4869L84.0072 39.4955L84.0568 37.4026C84.095 35.7916 84.1355 35.2935 84.2326 35.2397C84.3019 35.2014 85.2787 34.856 86.4033 34.4723L88.448 33.7747L91.3901 34.4411C93.0083 34.8075 94.5031 35.1519 94.7119 35.2064L95.0915 35.3054L95.1169 37.4004L95.1423 39.4955L118.085 39.4852L141.027 39.4748L138.844 39.2813C133.468 38.8046 132.951 38.7565 129.638 38.4259C121.222 37.5861 115.192 36.7312 109.328 35.5462C105.866 34.8467 102.934 34.2009 98.5557 33.1734C96.8592 32.7753 94.9587 32.3297 94.3323 32.1832C93.7059 32.0367 92.3113 31.7089 91.2332 31.4549C90.1551 31.2007 89.1728 30.9961 89.0503 31.0001C88.9279 31.0041 88.2084 31.2366 87.4515 31.5168ZM86.5498 34.9896L84.8415 35.5698L84.8175 47.3894L84.7934 59.2089L86.6603 60.0662L88.5272 60.9235L91.4772 60.0513L94.4272 59.1791L94.4513 47.3885L94.4753 35.5979L94.1666 35.5392C93.9967 35.5069 92.7106 35.236 91.3086 34.9372C89.9065 34.6383 88.6466 34.3974 88.5088 34.4016C88.3709 34.4059 87.4894 34.6705 86.5498 34.9896ZM89.6343 35.8396C89.9736 35.8947 91.02 36.0615 91.9596 36.2103L93.6679 36.4808L93.6951 37.3079C93.7101 37.7628 93.7006 38.1351 93.674 38.1351C93.6474 38.1351 93.0159 38.0375 92.2707 37.9181C89.7839 37.5199 88.8282 37.3709 88.7564 37.3704C88.7173 37.3701 88.6853 36.9847 88.6853 36.5139C88.6853 35.7397 88.7011 35.6617 88.8514 35.6986C88.9427 35.7212 89.295 35.7846 89.6343 35.8396ZM91.5325 39.159C92.3938 39.2526 93.2372 39.3492 93.4069 39.3737L93.7154 39.4182V40.232V41.0458L93.0747 40.9862C92.7224 40.9534 91.6057 40.8341 90.5931 40.7212C89.5806 40.6082 88.7371 40.5158 88.7187 40.5158C88.7004 40.5158 88.6853 40.147 88.6853 39.6963V38.8768L89.3259 38.9328C89.6782 38.9636 90.6712 39.0653 91.5325 39.159ZM92.0545 42.2045L93.6679 42.3439L93.6952 43.1794L93.7224 44.0149L93.2206 43.9674C92.9446 43.9412 92.0355 43.8613 91.2003 43.79C90.3651 43.7187 89.4575 43.6387 89.1835 43.6124L88.6853 43.5645V42.755V41.9454L89.5632 42.0052C90.046 42.0381 91.1671 42.1278 92.0545 42.2045ZM119.199 43.2855C115.305 43.9778 112.707 47.4258 112.699 51.9126C112.69 56.1141 114.512 59.4169 117.585 60.7738C118.385 61.1271 119.19 61.327 119.957 61.363L120.527 61.3898L120.551 52.2707L120.575 43.1516L120.219 43.1596C120.023 43.164 119.564 43.2207 119.199 43.2855ZM121.903 52.3018V61.4519L122.449 61.3948C125.085 61.1187 127.171 59.7282 128.449 57.3936C129.852 54.832 130.134 51.1981 129.148 48.3933C128.364 46.1647 126.625 44.3876 124.464 43.6057C123.871 43.3909 122.667 43.1516 122.179 43.1516H121.903V52.3018ZM138.802 47.8919C138.812 50.3586 138.843 52.75 138.87 53.206L138.919 54.035L139.925 54.0336C141.897 54.0307 143.204 53.5966 144.339 52.5676C145.737 51.2995 146.273 49.5359 145.869 47.5297C145.685 46.6138 145.106 45.4505 144.594 44.9677C143.383 43.8257 142.149 43.411 139.953 43.4082L138.784 43.4067L138.802 47.8919ZM53.1593 43.5617C53.0114 43.5872 53 44.2129 53 52.2982V61.0072H56.3222H59.6444L59.6203 52.2897L59.5961 43.5721L56.4573 43.5532C54.731 43.5427 53.2469 43.5466 53.1593 43.5617ZM60.7993 50.2613C60.8107 53.9969 60.8358 57.9622 60.855 59.0729L60.89 61.0922L61.9513 61.091C62.551 61.0903 63.2716 61.035 63.6077 60.964C65.7415 60.5134 66.8068 59.1173 67.0142 56.5C67.1181 55.1888 66.6974 53.9957 65.8426 53.1769C65.1502 52.5137 64.2905 52.1001 63.1314 51.8724C62.9206 51.831 62.8704 51.7742 62.8704 51.5771C62.8704 51.3624 62.913 51.326 63.2263 51.274C64.1213 51.1252 65.2707 50.3134 65.7311 49.5049C66.0125 49.0108 66.2871 47.9538 66.2871 47.3647C66.2871 46.7713 66.0891 46.0078 65.7899 45.4473C65.482 44.8703 64.6025 44.1277 63.8567 43.8151C63.2714 43.5697 63.1206 43.5448 61.999 43.5085L60.7784 43.469L60.7993 50.2613ZM96.2225 43.5697C96.2007 43.5892 96.183 47.5205 96.183 52.3062V61.0072H99.5047H102.827V52.2941V43.5811L99.5442 43.5576C97.7389 43.5448 96.2441 43.5502 96.2225 43.5697ZM103.983 43.6405C104.06 43.7223 105.438 45.1764 107.043 46.8715C108.649 48.5668 109.98 49.9538 110.001 49.9538C110.022 49.9538 110.039 48.4998 110.039 46.7227V43.4917H106.94C103.998 43.4917 103.848 43.4993 103.983 43.6405ZM133.98 43.5566L130.824 43.5791V52.2931V61.0072H134.146H137.468V52.377C137.468 47.6304 137.471 43.72 137.475 43.6873C137.491 43.5536 136.998 43.5353 133.98 43.5566ZM68.2801 52.292V61.0072H71.6019H74.9237V52.292V43.5768H71.6019H68.2801V52.292ZM93.7902 45.8937L93.7628 46.6802L91.224 46.7028L88.6853 46.7255V45.9164V45.1072H91.2514H93.8174L93.7902 45.8937ZM93.7154 48.7235C93.7154 49.2966 93.6806 49.5442 93.5967 49.5688C93.5315 49.588 92.7094 49.6447 91.7698 49.6948C90.8302 49.7449 89.7502 49.8079 89.3698 49.8349L88.6782 49.8839L88.7055 49.0473L88.7327 48.2107L90.9156 48.0752C92.1162 48.0006 93.2372 47.9336 93.4069 47.9264L93.7154 47.9131V48.7235ZM104.199 50.4852C104.174 50.5437 104.165 52.9446 104.178 55.8206L104.203 61.0497L105.389 61.0389C106.165 61.0319 106.786 60.9783 107.185 60.884C110.244 60.1606 111.835 57.5631 111.17 54.3751C110.805 52.6274 109.519 51.2492 107.754 50.7167C106.758 50.4162 104.297 50.2559 104.199 50.4852ZM76.1573 55.8545L76.1575 61.2026L77.4824 61.1438C78.2111 61.1115 79.0333 61.0257 79.3093 60.953C81.2065 60.4535 82.6613 59.0622 83.1551 57.2749C83.5093 55.9929 83.2657 54.1369 82.5923 52.988C82.0041 51.9842 80.7467 51.0537 79.5267 50.7194C79.3179 50.6622 78.4743 50.5909 77.6521 50.5609L76.1572 50.5064L76.1573 55.8545ZM93.8103 51.5714C93.8103 52.4768 93.8715 52.4304 92.4816 52.5781C91.9857 52.6307 90.9393 52.7504 90.1563 52.8438C89.3733 52.9373 88.7205 53.0139 88.7056 53.0142C88.6906 53.0145 88.6906 52.6417 88.7056 52.1857L88.7327 51.3567L90.9156 51.0889C92.1162 50.9415 93.2587 50.8172 93.4544 50.8125L93.8103 50.804V51.5714ZM93.8103 54.3269C93.8103 55.0175 93.7872 55.1349 93.6442 55.1724C93.5529 55.1963 92.6666 55.3723 91.6749 55.5636C90.6831 55.7548 89.6279 55.9627 89.3301 56.0255C89.0322 56.0884 88.7653 56.119 88.7369 56.0936C88.7085 56.0681 88.6853 55.693 88.6853 55.2598V54.4722L89.231 54.3714C89.5312 54.316 90.6095 54.1058 91.6274 53.9043C92.6453 53.7029 93.5529 53.5352 93.6442 53.5315C93.7911 53.5256 93.8103 53.6172 93.8103 54.3269ZM93.79 57.244L93.8172 58.0161L93.5052 58.1036C93.3337 58.1518 92.7022 58.3062 92.1019 58.4465C91.5017 58.587 90.5125 58.8189 89.9039 58.9618C89.2952 59.1047 88.7706 59.2216 88.7378 59.2216C88.7052 59.2216 88.6906 58.8499 88.7056 58.3956L88.7327 57.5696L89.0174 57.5008C91.1188 56.9925 93.5934 56.4337 93.6679 56.4505C93.7201 56.4624 93.7751 56.8195 93.79 57.244ZM54.1825 64.9887C52.7444 65.5907 52.5918 67.8681 53.9335 68.7015C54.3036 68.9314 54.4184 68.9572 55.0724 68.9572C55.9429 68.9572 56.3509 68.775 56.6898 68.2348C56.9553 67.8116 56.9187 67.7015 56.4723 67.5787C56.1353 67.4861 56.1247 67.4901 55.9975 67.7631C55.8237 68.1357 55.5075 68.3195 55.0405 68.3195C54.2707 68.3195 53.9491 67.8984 53.9491 66.8909C53.9491 66.3318 53.9855 66.1704 54.1661 65.9301C54.5917 65.3634 55.5928 65.3266 55.9267 65.8654C56.0656 66.0895 56.1232 66.1146 56.4085 66.075C56.5867 66.0502 56.7725 65.9941 56.8215 65.9502C56.9583 65.8276 56.7022 65.4362 56.2911 65.1401C55.9733 64.9111 55.8435 64.8755 55.2471 64.8534C54.7333 64.8343 54.4717 64.8676 54.1825 64.9887ZM66.8091 64.9901C65.9889 65.34 65.6122 65.9484 65.6122 66.9234C65.6122 67.6805 65.8192 68.1578 66.3174 68.5497C67.1351 69.1929 68.659 69.1278 69.3928 68.4185C70.347 67.496 70.0541 65.5515 68.8843 65.0427C68.3478 64.8093 67.2956 64.7826 66.8091 64.9901ZM110.989 64.9072C110.858 64.9368 110.68 64.9992 110.593 65.046C110.439 65.1287 109.945 65.9234 109.945 66.0884C109.945 66.2307 109.558 66.619 109.416 66.619C109.307 66.619 109.28 66.4486 109.28 65.7687V64.9184H108.806H108.331V66.9166V68.9147H108.806H109.28V68.0219C109.28 67.5309 109.313 67.1291 109.354 67.1291C109.573 67.1291 109.847 67.4467 110.225 68.1399L110.648 68.9147H111.155H111.661L111.171 68.0591C110.886 67.563 110.566 67.1278 110.408 67.0233C110.147 66.8507 110.143 66.8365 110.301 66.6814C110.392 66.5923 110.595 66.2836 110.751 65.9953C111.004 65.5293 111.07 65.4681 111.344 65.4445C111.627 65.4201 111.653 65.3931 111.653 65.1256C111.653 64.8133 111.551 64.7799 110.989 64.9072ZM113.402 64.941C113.019 65.0791 112.697 65.3195 112.414 65.6783C112.224 65.9205 112.177 66.0993 112.144 66.7225C112.095 67.6406 112.256 68.0886 112.792 68.5221C113.797 69.3356 115.601 69.072 116.203 68.0233C116.409 67.6644 116.445 67.4917 116.442 66.8711C116.438 66.2311 116.405 66.0915 116.175 65.7404C115.785 65.1429 115.284 64.8946 114.405 64.8623C113.991 64.8471 113.572 64.88 113.402 64.941ZM57.3658 65.216V65.5136H58.0301H58.6945V67.2141V68.9147H59.1215H59.5486V67.2141V65.5136H60.213H60.8773V65.216V64.9184H59.1215H57.3658V65.216ZM61.5417 66.9166V68.9147H61.9651H62.3885L62.4159 68.1707L62.4433 67.4267L63.3083 67.3721C64.2681 67.3116 64.4761 67.2419 64.7586 66.8865C65.062 66.5049 65.1067 66.0289 64.8819 65.5736C64.5947 64.992 64.3641 64.9184 62.8277 64.9184H61.5417V66.9166ZM70.7477 66.9166V68.9147H71.2142H71.6806L72.5666 67.618L73.4526 66.3214L73.4788 67.618L73.505 68.9147H73.9296H74.3542V66.9166V64.9184H73.9008H73.4475L72.5484 66.2494L71.6493 67.5805L71.6232 66.2494L71.5971 64.9184H71.1724H70.7477V66.9166ZM75.0186 65.2123V65.5061L75.7066 65.5311L76.3947 65.5561L76.4205 67.2354L76.4462 68.9147H76.8713H77.2964V67.2141V65.5136H77.9607H78.6251V65.216V64.9184H76.8218H75.0186V65.2123ZM79.2894 66.9166V68.9147H80.9977H82.7061V68.6195V68.3244L81.4486 68.3007L80.191 68.277L80.1629 67.703L80.1349 67.1291H81.2781H82.4214V66.789V66.4489H81.2825H80.1436V65.9813V65.5136H81.3774H82.6112V65.216V64.9184H80.9503H79.2894V66.9166ZM83.9399 66.4752C83.9399 68.1438 83.904 68.2843 83.4653 68.3347C83.274 68.3567 83.2223 68.4163 83.198 68.6425L83.1679 68.9231L83.7578 68.8976C84.6643 68.8585 84.7067 68.7773 84.7523 66.9927L84.789 65.5561H85.4796H86.1702L86.1959 67.2354L86.2217 68.9147H86.6467H87.0718V66.9166V64.9184H85.5059H83.9399V66.4752ZM88.1158 66.9224V68.9264L89.6418 68.8993L91.168 68.8722L91.4925 68.5546C91.7778 68.2755 91.8172 68.1816 91.8172 67.7807C91.8172 67.2155 91.5334 66.7928 91.0546 66.645C90.8737 66.5892 90.3307 66.5413 89.8479 66.5387L88.97 66.5339V65.7262V64.9184H88.5429H88.1158V66.9224ZM92.6714 66.9166V68.9147H93.0951H93.5189L93.546 68.0432L93.573 67.1716L94.4984 67.1473L95.4237 67.123V68.0188V68.9147H95.8508H96.2779V66.9166V64.9184H95.8544H95.4308L95.4036 65.7049L95.3763 66.4914H94.4746H93.573L93.5457 65.7049L93.5184 64.9184H93.0949H92.6714V66.9166ZM97.7713 66.8498C97.3138 67.9154 96.9401 68.8179 96.9409 68.8556C96.9416 68.8932 97.1416 68.9123 97.3854 68.8981C97.8256 68.8723 97.8294 68.8694 97.9865 68.447L98.1445 68.0219L99.0656 67.9975L99.9866 67.9732L100.227 68.4439C100.466 68.9115 100.471 68.9147 100.888 68.9147C101.119 68.9147 101.308 68.8802 101.308 68.8382C101.308 68.7961 100.926 67.9065 100.459 66.8613L99.6103 64.9609L99.1067 64.9367L98.6031 64.9124L97.7713 66.8498ZM102.487 65.0391C102.149 65.1709 101.877 65.6158 101.878 66.0366C101.878 66.4507 102.189 66.8512 102.635 67.0108L103.015 67.1471L102.741 67.376C102.491 67.5851 101.593 68.7508 101.593 68.8658C101.593 68.8927 101.822 68.9147 102.101 68.9147H102.61L102.965 68.3991C103.16 68.1156 103.483 67.7303 103.682 67.5429C103.985 67.2573 104.095 67.2067 104.36 67.2295L104.677 67.2567L104.704 68.0857L104.731 68.9147H105.155H105.579V66.9166V64.9184L104.179 64.9217C103.225 64.924 102.686 64.9614 102.487 65.0391ZM117.252 66.9128V68.9147H117.632H118.012V67.3792C118.012 66.5347 118.048 65.8637 118.092 65.8881C118.136 65.9126 118.359 66.6035 118.588 67.4236L119.005 68.9147H119.436H119.868L120.279 67.4259C120.505 66.6071 120.728 65.9162 120.774 65.8905C120.823 65.8638 120.859 66.5035 120.859 67.3792V68.9147H121.239H121.618V66.9128V64.9109L120.937 64.9359L120.257 64.9609L119.879 66.2576C119.671 66.9708 119.471 67.5543 119.435 67.5543C119.399 67.5543 119.199 66.9708 118.992 66.2576L118.614 64.9609L117.933 64.9359L117.252 64.9109V66.9128ZM122.662 66.8315C122.662 67.8837 122.652 68.7733 122.638 68.8084C122.625 68.8435 122.818 68.8838 123.066 68.8981L123.516 68.924V67.2188V65.5136H124.418H125.32V67.2141V68.9147H125.747H126.174V66.9166V64.9184H124.418H122.662V66.8315ZM127.666 66.8536C127.208 67.9171 126.834 68.8179 126.836 68.8556C126.837 68.8932 127.038 68.9123 127.281 68.8981C127.722 68.8723 127.725 68.8694 127.882 68.447L128.04 68.0219L128.992 67.9978L129.944 67.9737L130.124 68.423L130.304 68.8722L130.792 68.8976L131.28 68.923L130.429 67.027C129.961 65.9842 129.555 65.0832 129.527 65.0247C129.495 64.9592 129.288 64.9188 128.987 64.9193L128.499 64.9201L127.666 66.8536ZM131.868 66.9166V68.9147H132.295H132.722V68.0219V67.1291H133.671H134.621V68.0219V68.9147H135.048H135.475V66.9166V64.9184H135.051H134.628L134.6 65.7049L134.573 66.4914H133.671H132.77L132.743 65.7049L132.715 64.9184H132.292H131.868V66.9166ZM136.519 66.9166V68.9147L136.97 68.9107L137.42 68.9066L138.322 67.5888L139.224 66.2709L139.25 67.5928L139.276 68.9147H139.7H140.125V66.9166V64.9184H139.656H139.188L138.319 66.1938C137.841 66.8953 137.411 67.4692 137.364 67.4692C137.316 67.4692 137.278 66.8995 137.278 66.1938V64.9184H136.898H136.519V66.9166ZM141.567 65.0907C141.17 65.3074 140.946 65.7654 141.027 66.1949C141.099 66.5748 141.359 66.8471 141.812 67.0169L142.144 67.141L141.815 67.4539C141.542 67.7133 141.073 68.3112 140.752 68.8084C140.701 68.888 140.814 68.9147 141.205 68.9147H141.726L142.269 68.1914C142.919 67.3253 142.955 67.2965 143.443 67.2378L143.827 67.1918V68.0532V68.9147H144.254H144.681V66.9166V64.9184L143.281 64.9188C142.044 64.919 141.844 64.9391 141.567 65.0907ZM68.4828 65.6635C68.8405 65.8499 69.0394 66.2845 69.0394 66.8797C69.0394 67.8022 68.5962 68.3195 67.8056 68.3195C67.0084 68.3195 66.4769 67.7518 66.4769 66.9001C66.4769 65.7266 67.451 65.1261 68.4828 65.6635ZM114.956 65.6541C115.349 65.8778 115.543 66.2738 115.544 66.8555C115.544 67.502 115.377 67.8931 114.995 68.1368C114.656 68.353 114.05 68.3789 113.651 68.1942C112.884 67.8387 112.746 66.2905 113.433 65.7425C113.832 65.424 114.484 65.3862 114.956 65.6541ZM63.8541 65.6899C64.1619 65.9067 64.1871 66.2896 63.9101 66.5378C63.7463 66.6845 63.6169 66.7076 63.0797 66.6866L62.4433 66.6615L62.4142 66.2039C62.3721 65.5425 62.3985 65.5136 63.0445 65.5136C63.4669 65.5136 63.6653 65.5568 63.8541 65.6899ZM104.677 66.0663V66.5764L103.941 66.6013C103.264 66.6241 103.187 66.6091 102.969 66.4139C102.68 66.155 102.673 66.0288 102.931 65.7343C103.122 65.5168 103.164 65.5081 103.904 65.5316L104.677 65.5561V66.0663ZM143.827 66.0663V66.619H143.089C142.19 66.619 141.928 66.4944 141.928 66.0663C141.928 65.6382 142.19 65.5136 143.089 65.5136H143.827V66.0663ZM99.4441 66.5662C99.5818 66.9139 99.6946 67.2402 99.6946 67.2913C99.6946 67.3489 99.4605 67.3842 99.0777 67.3842C98.7384 67.3842 98.4608 67.3671 98.4608 67.3461C98.4608 67.189 99.0638 65.8623 99.1208 65.8939C99.1609 65.916 99.3063 66.2186 99.4441 66.5662ZM129.334 66.5552C129.478 66.941 129.595 67.2853 129.593 67.3204C129.589 67.4109 128.357 67.4001 128.357 67.3095C128.357 67.2685 128.414 67.1059 128.484 66.9482C128.553 66.7905 128.685 66.4797 128.776 66.2576C128.867 66.0355 128.971 65.8537 129.006 65.8537C129.042 65.8537 129.189 66.1693 129.334 66.5552ZM90.7783 67.3458C91.0208 67.5423 91.0136 67.912 90.7634 68.115C90.6084 68.2407 90.3849 68.2837 89.7668 68.307L88.97 68.3369V67.7211V67.1051L89.7817 67.1505C90.3705 67.1835 90.6442 67.237 90.7783 67.3458Z" fill="#F7F7F7"/></g></svg>