<svg width="200" height="100" fill="none" xmlns="http://www.w3.org/2000/svg"><g opacity="0.8"><path d="M138.745 39.2888H116.468C116.44 38.817 116.411 38.3452 116.354 37.8733H127.778C128.122 37.8733 128.408 37.5958 128.408 37.2628C128.408 36.9297 128.122 36.6522 127.778 36.6522H116.153C114.55 29.4085 107.907 23.9688 99.9752 23.9688C92.0437 23.9688 85.4007 29.4085 83.8259 36.6522H72.0002C71.6566 36.6522 71.3703 36.9297 71.3703 37.2628C71.3703 37.5958 71.6566 37.8733 72.0002 37.8733H83.5968C83.5396 38.3452 83.4823 38.817 83.4823 39.2888H61.0049C60.6613 39.2888 60.375 39.5663 60.375 39.8994C60.375 40.2324 60.6613 40.5099 61.0049 40.5099H83.4823C83.5109 40.9818 83.5396 41.4536 83.5968 41.9254H72.0002C71.6566 41.9254 71.3703 42.2029 71.3703 42.536C71.3703 42.869 71.6566 43.1465 72.0002 43.1465H83.7973C85.3148 50.4458 91.9865 55.9688 99.9752 55.9688C107.964 55.9688 114.636 50.4458 116.153 43.1465H127.75C128.093 43.1465 128.38 42.869 128.38 42.536C128.38 42.2029 128.093 41.9254 127.75 41.9254H116.354C116.411 41.4536 116.44 40.9818 116.468 40.5099H138.745C139.089 40.5099 139.375 40.2324 139.375 39.8994C139.375 39.5663 139.089 39.2888 138.745 39.2888ZM99.9752 54.7476C91.557 54.7476 84.7135 48.1145 84.7135 39.9549C84.7135 31.7953 91.557 25.1622 99.9752 25.1622C108.393 25.1622 115.237 31.7953 115.237 39.9549C115.237 48.1145 108.393 54.7476 99.9752 54.7476Z" fill="#F7F7F7"/><path d="M104.464 38.7596C105.184 35.5195 105.732 33.1779 105.732 33.1779C105.732 33.1779 105.789 32.8784 106.193 32.8784C106.193 32.5517 106.193 32.5517 106.193 32.5517H103.34V32.8784C103.34 32.8784 104.147 32.9873 104.032 33.5591L103.254 38.7324C102.534 38.7051 101.381 38.6235 100.344 38.3784L99.2202 33.5591C99.2202 33.5591 99.0473 32.9056 99.8252 32.9056C99.8252 32.6334 99.8252 32.5517 99.8252 32.5517H96.3678V32.9873C96.5983 32.9873 96.6848 33.1507 96.7712 33.5591L97.5491 37.6705C97.0305 37.616 94.7544 37.1804 94.7544 34.3487C94.7544 30.4551 99.71 29.8561 100.776 29.8561C101.669 29.8561 107.748 29.9106 107.748 34.7027C107.864 34.7027 107.921 34.7027 108.065 34.7027C108.584 33.2324 109.362 30.8636 109.362 30.8636C109.362 30.8636 107.057 29.0938 100.776 29.0938C92.9104 29.0938 91.4698 34.0764 91.4698 35.2744C91.4698 36.4725 91.8444 39.8759 98.0677 40.6655C98.1541 41.0467 98.2406 41.4007 98.2982 41.7546L99.8828 50.0863C96.339 49.9774 92.8816 48.5616 92.1613 44.2868C92.0173 44.2596 91.758 44.2868 91.6139 44.2868C91.0377 46.5739 90.375 48.9972 90.375 48.9972C90.375 48.9972 93.9765 51.0938 100.747 51.0938C107.518 51.0938 110.37 46.7101 110.37 44.0145C110.457 41.5913 109.391 39.8759 104.464 38.7596ZM102.908 41.1829L102.159 46.1383L100.949 40.9106C101.784 41.0739 102.505 41.1829 102.908 41.1829ZM101.813 50.0591L103.945 41.4279C103.945 41.4279 107.201 42.0269 107.201 45.2126C107.201 49.3512 101.813 50.0591 101.813 50.0591Z" fill="#F7F7F7"/><path d="M45.875 65.9858C39.9583 65.489 41.625 59.942 46.1528 59.942C50.6806 59.942 51.0694 63.6952 51.0694 63.6952L52.0417 60.5767C52.0417 60.5767 50.5694 59.0312 46.2083 59.0312C41.8472 59.0312 39.5139 61.7358 39.5139 63.8332C39.5139 65.9306 41.6528 68.4696 45.7917 68.4696C49.9306 68.4696 50.1806 70.567 50.1806 71.6985C50.1806 72.8575 49.1528 75.0377 45.7917 75.0377C42.4028 75.0377 40.0694 72.6092 40.0694 70.6222C39.5139 72.1952 38.875 74.3754 38.875 74.3754C38.875 74.3754 41.0139 76.0312 45.7361 76.0312C50.4583 76.0312 52.875 72.9679 52.875 70.4842C52.875 67.7244 51.3472 66.4274 45.875 65.9858Z" fill="#F7F7F7"/><path d="M64.4449 60.6843C64.4449 60.6843 66.8142 60.4122 65.7612 63.1877C64.7374 65.9632 62.0756 72.4938 62.0756 72.4938L58.4486 61.7455C58.4486 61.7455 58.4193 60.6571 60.4376 60.6571C60.4376 60.3034 60.4376 60.0312 60.4376 60.0312H53.125V60.6571C53.125 60.6571 54.9385 60.385 55.4358 61.6639C55.933 62.9156 61.0811 76.0312 61.0811 76.0312H61.4029L67.1945 61.8816C67.1945 61.8816 67.8087 60.6571 69.125 60.6571C69.125 60.3578 69.125 60.0312 69.125 60.0312H64.4157V60.6843H64.4449Z" fill="#F7F7F7"/><path d="M85.125 60.6843V60.0312H80.1716V60.6027C80.1716 60.6027 80.7313 60.6027 80.9552 60.6027C82.0466 60.6027 82.2985 61.7455 81.7108 62.7251C81.1231 63.7319 78.7444 67.6775 78.7444 67.6775C78.7444 67.6775 77.4851 65.5006 75.9459 63.0244C74.4067 60.5755 76.1978 60.7659 76.1978 60.7659H77.1493V60.0312H70.125C70.125 60.0312 70.125 60.385 70.125 60.6027C71.7201 60.6027 72 61.3918 72 61.3918L76.5896 68.8748C76.5896 68.8748 76.5896 72.1945 76.5896 73.9088C76.5896 75.6231 74.3787 75.2966 74.3787 75.2966V76.0312H81.1791C81.1791 76.0312 81.1791 75.6775 81.1791 75.3238C79.1922 75.3238 78.9963 73.9632 78.9963 73.9632V68.3034C78.9963 68.3034 81.1511 64.902 82.3825 62.7795C83.6138 60.6571 84.3694 60.6843 84.3694 60.6843H85.125Z" fill="#F7F7F7"/><path d="M139.153 60.6027C139.153 60.6027 139.712 60.6027 139.935 60.6027C141.024 60.6027 141.276 61.7455 140.689 62.7251C140.103 63.7319 137.728 67.6775 137.728 67.6775C137.728 67.6775 136.471 65.5006 134.935 63.0244C133.399 60.5755 135.186 60.7659 135.186 60.7659H136.136V60.0312H129.125C129.125 60.0312 129.125 60.385 129.125 60.6027C130.717 60.6027 130.997 61.3918 130.997 61.3918L135.578 68.8748C135.578 68.8748 135.578 72.1945 135.578 73.9088C135.578 75.6231 133.371 75.2966 133.371 75.2966V76.0312H140.159C140.159 76.0312 140.159 75.6775 140.159 75.3238C138.175 75.3238 137.98 73.9632 137.98 73.9632V68.3034C137.98 68.3034 140.131 64.902 141.36 62.7796C142.589 60.6571 143.343 60.6843 143.343 60.6843H144.125V60.0312H139.181V60.6027H139.153Z" fill="#F7F7F7"/><path d="M99.125 64.4938H99.5417C99.5417 64.4938 99.7361 60.6571 102.319 60.6571C103.486 60.6571 104.292 60.6571 104.292 60.6571V73.7727C104.292 73.7727 104.292 75.3782 102.458 75.3782C102.458 75.6231 102.458 76.0312 102.458 76.0312H107.875V75.3782C107.875 75.3782 106.181 75.5415 106.181 73.6367C106.181 71.7319 106.181 60.6299 106.181 60.6299H108.431C108.431 60.6299 110.847 60.9292 110.847 64.1945C111.125 64.1945 111.125 64.1945 111.125 64.1945V60.0312H99.4028L99.125 64.4938Z" fill="#F7F7F7"/><path d="M122.996 60.6571H123.812C123.812 60.6571 125.211 60.6843 125.211 61.8816C125.211 63.0517 125.211 71.7591 125.211 71.7591L116.38 60.0585H112.125V60.7387C112.125 60.7387 114.369 60.521 114.369 62.5891C114.369 64.6571 114.369 74.0449 114.369 74.0449C114.369 74.0449 114.34 75.3782 112.999 75.3782C112.65 75.3782 112.125 75.3782 112.125 75.3782V76.0312H117.254V75.3238H116.409C116.409 75.3238 115.098 75.1605 115.098 73.936C115.098 72.7115 115.098 62.4258 115.098 62.4258L125.385 76.0312H125.91V61.8272C125.91 61.8272 126.347 60.6027 127.571 60.6027C127.863 60.6027 128.125 60.6027 128.125 60.6027V60.0312H122.996V60.6571Z" fill="#F7F7F7"/><path d="M97.0493 74.6187L91.2259 60.0312H90.4764L85.6043 73.5321C85.6043 73.5321 84.7971 75.325 83.125 75.325C83.125 75.5694 83.125 76.0312 83.125 76.0312H88.0836V75.325C85.7196 75.325 86.6421 72.69 86.6421 72.69L87.7376 69.6204H92.4655C92.4655 69.6204 92.9556 70.9515 93.4745 72.1467C94.9448 75.7053 91.8601 75.325 91.8601 75.325V75.9769H99.125C99.125 75.9769 99.125 75.5151 99.125 75.2706C97.3376 75.325 97.0493 74.6187 97.0493 74.6187ZM87.9971 69.0228L89.9574 63.2638L92.2926 69.0228H87.9971Z" fill="#F7F7F7"/><path d="M160.496 60.7126C160.696 60.7126 161.125 60.7126 161.125 60.7126V60.0584H154.125V60.7399H154.839C154.839 60.7399 156.325 60.7399 156.325 62.239C156.325 63.7654 156.325 67.5269 156.325 67.5269H148.811V61.9937C148.811 61.9937 148.896 60.6308 150.296 60.6308C150.554 60.6308 151.011 60.6308 151.011 60.6308V60.0312H144.354V60.6581H145.096C145.096 60.6581 146.354 60.4946 146.354 62.13C146.354 63.7654 146.354 73.7961 146.354 73.7961C146.354 73.7961 146.382 75.377 144.811 75.377C144.354 75.377 144.125 75.377 144.125 75.377V75.9767H151.068V75.4043H150.325C150.325 75.4043 148.811 75.4043 148.811 73.7416C148.811 72.0789 148.811 68.1538 148.811 68.1538H156.382V73.7143C156.382 73.7143 156.439 75.4315 154.811 75.4315C154.554 75.4315 154.096 75.4315 154.096 75.4315V76.0312H161.068V75.4043H160.296C160.296 75.4043 158.782 75.4315 158.782 73.5508C158.782 71.67 158.782 62.1845 158.782 62.1845C158.782 62.1845 158.811 60.7126 160.496 60.7126Z" fill="#F7F7F7"/></g></svg>