<svg width="200" height="100" fill="none" xmlns="http://www.w3.org/2000/svg"><g opacity="0.8"><path d="M125.631 66.6381C125.211 66.6431 124.793 66.6639 124.371 66.6714C123.255 66.6903 122.14 66.7104 121.025 66.7298C119.909 66.7487 118.794 66.7663 117.678 66.7826C114.873 66.8222 112.067 66.8983 109.262 66.8681C107.05 66.8448 104.841 66.6821 102.63 66.5853C101.691 66.5445 100.752 66.5288 99.8142 66.4753C97.362 66.3352 94.9125 66.1586 92.4597 66.038C90.4289 65.9374 88.3949 65.8583 86.3623 65.8363C83.3116 65.803 80.2596 65.8583 77.2089 65.8199C73.6329 65.7759 70.0569 65.6697 66.4816 65.5943C65.1069 65.5648 63.7321 65.539 62.3574 65.5258C62.0765 65.5227 61.7916 65.5617 61.5139 65.6132C59.9157 65.9092 58.3018 66.0015 56.6756 66.0298C54.0659 66.0751 51.4569 66.1819 48.8473 66.2366C48.1423 66.2516 47.4347 66.1385 46.729 66.1454C45.5595 66.1574 44.3905 66.2177 43.2216 66.2604C43.0204 66.268 42.8191 66.2812 42.6179 66.2925C42.4833 66.3 42.2618 66.3283 42.1442 66.2529C42.1305 66.2441 42.1174 66.2334 42.105 66.2221C42.0586 66.1794 42.0168 66.1278 42.0037 66.0675C41.9606 65.8721 42.3043 65.7841 42.4526 65.7659C44.1534 65.5554 45.8594 65.4617 47.5745 65.5321C48.3194 65.5635 49.0655 65.6226 49.8091 65.6025C52.3024 65.5372 54.7944 65.4083 57.2884 65.37C58.8794 65.3461 60.4325 65.0363 62.0065 64.9251C63.3486 64.8302 64.7037 64.8968 66.053 64.91C67.018 64.9194 67.9824 64.9678 68.9475 64.9835C70.9678 65.0162 72.9887 65.042 75.009 65.0646C78.4059 65.1023 81.8036 65.1168 85.1999 65.1752C87.6311 65.2167 90.063 65.2814 92.4923 65.3951C95.2673 65.5258 98.0383 65.7376 100.813 65.8834C102.624 65.9789 104.444 65.9626 106.252 66.0977C109.429 66.3352 112.608 66.246 115.786 66.2127C121.706 66.1511 127.626 66.043 133.546 65.9651C137.497 65.9129 141.449 65.9054 145.399 65.8294C147.623 65.7873 149.847 65.6559 152.07 65.5478C153.431 65.4819 154.79 65.3889 156.149 65.2977C156.598 65.2682 157.045 65.2123 157.491 65.1607C157.709 65.1356 157.929 65.1237 157.989 65.3788C158.053 65.6572 157.835 65.7558 157.608 65.791C157.252 65.8451 156.893 65.8853 156.534 65.9067C154.505 66.0235 152.475 66.1128 150.449 66.2504C145.576 66.5809 140.697 66.4163 135.82 66.486C135.095 66.4967 134.37 66.5105 133.644 66.5262C132.528 66.5508 131.412 66.5815 130.296 66.6136C129.738 66.6293 129.18 66.6456 128.622 66.662C128.343 66.6701 128.064 66.6783 127.785 66.6865C127.645 66.6903 127.506 66.6947 127.366 66.6984C127.243 66.7022 127.133 66.6859 127.012 66.6808C126.766 66.6695 126.52 66.6582 126.273 66.6475C126.059 66.6375 125.845 66.6356 125.631 66.6381Z" fill="#F7F7F7"/><path d="M146.187 42.2384C146.125 42.2513 146.072 42.3006 146.046 42.356C146.015 42.4212 146.012 42.4944 146.009 42.5658C146.001 42.804 145.993 43.0416 145.986 43.2797C145.978 43.5111 145.886 43.7087 145.833 43.9333C145.773 44.193 145.709 44.4527 145.645 44.7125C145.515 45.2307 145.378 45.7476 145.233 46.2621C144.942 47.2942 144.619 48.3189 144.266 49.3338C144.11 49.7793 143.949 50.2225 143.782 50.6643C143.701 50.8791 143.626 51.1001 143.533 51.3099C143.467 51.4552 143.322 51.6706 143.43 51.8275C143.577 52.0411 144.256 51.8847 144.477 51.8706C144.912 51.8423 145.346 51.8134 145.781 51.785C146.095 51.7641 146.409 51.745 146.723 51.7247C146.956 51.71 147.189 51.6952 147.422 51.6804C147.625 51.6669 147.896 51.7149 148.075 51.6226C148.11 51.6041 148.143 51.5813 148.169 51.5524C148.317 51.3887 148.217 51.0748 148.179 50.8896C148.124 50.6243 148.069 50.3591 148.015 50.0938C147.557 47.8918 147.101 45.6904 146.644 43.4884C146.601 43.2828 146.559 43.0779 146.516 42.8729C146.482 42.708 146.482 42.4618 146.377 42.3203C146.342 42.2716 146.284 42.2347 146.22 42.2347C146.209 42.2347 146.198 42.2359 146.187 42.2384ZM153.992 60.691C153.972 60.9181 153.913 61.1415 153.793 61.3538C153.545 61.7883 152.967 62.0782 152.453 62.1176C151.54 62.1877 150.812 61.7582 150.529 60.9298C150.315 60.3051 150.138 59.6675 149.98 59.0281C149.802 58.308 149.651 57.5812 149.527 56.8513C149.464 56.4753 149.407 56.0986 149.357 55.7207C149.329 55.5035 149.361 55.0456 149.125 54.9158C148.933 54.8099 148.57 54.8868 148.36 54.8998C148.064 54.9176 147.768 54.9354 147.472 54.9527C146.883 54.9865 146.293 55.0167 145.702 55.0345C145.075 55.053 144.447 55.0284 143.823 54.9742C143.504 54.9459 143.185 54.9108 142.867 54.8702C142.629 54.8394 142.329 54.7182 142.121 54.8782C141.955 55.005 141.993 55.1896 141.931 55.3589C141.845 55.5897 141.752 55.8174 141.662 56.0463C141.488 56.4943 141.313 56.9424 141.139 57.3898C140.789 58.2853 140.439 59.1813 140.086 60.0756C139.957 60.403 139.808 60.7267 139.633 61.0344C139.434 61.3821 139.108 61.5963 138.683 61.6769C138.365 61.7372 137.956 61.6886 137.691 61.5009C137.494 61.3612 137.205 61.1089 137.091 60.9009C137.028 60.7864 137.008 60.6559 137.002 60.5279C136.984 60.115 137.103 59.7088 137.222 59.3106C137.648 57.8858 138.206 56.4956 138.721 55.0948C139.494 52.9974 140.265 50.9 141.032 48.8008C141.741 46.8585 142.255 44.8694 142.616 42.8471C142.97 40.8611 143.38 38.8855 143.885 36.9278C144.021 36.4004 144.232 35.8834 144.467 35.3849C144.785 34.7104 145.353 34.2833 146.149 34.1522C146.937 34.0224 147.731 34.3652 148.118 35.012C148.237 35.2114 148.328 35.4311 148.391 35.6514C149.129 38.2319 149.745 40.8383 150.292 43.4594C150.733 45.5685 151.185 47.6758 151.67 49.7769C151.809 50.3812 152.081 50.9597 152.297 51.5487C152.382 51.7826 152.474 52.0152 152.577 52.2435C152.79 52.7131 152.875 53.2073 152.935 53.7095C153.054 54.6954 153.118 55.7109 153.31 56.6851C153.508 57.6901 153.706 58.6958 153.903 59.7008C153.968 60.0276 154.02 60.3636 153.992 60.691Z" fill="#F7F7F7"/><path d="M58.9652 41.7C58.9714 42.9514 59.0128 44.2021 59.0747 45.4546C59.1044 46.0534 59.1842 46.6497 59.2548 47.2453C59.3383 47.9517 59.4404 48.6563 59.5289 49.362C59.6397 50.2466 59.7449 51.1317 59.8526 52.0168C59.9826 53.0888 60.1255 54.1595 60.24 55.2333C60.3044 55.8407 60.3935 56.4457 60.5111 57.045C60.5711 57.3494 60.6379 57.6525 60.7134 57.9537C60.7691 58.177 60.7945 58.5704 60.9845 58.7207C61.0488 58.772 61.1262 58.8048 61.2036 58.8327C61.2636 58.8543 61.3261 58.8735 61.3892 58.8648C61.6114 58.8339 61.6801 58.5289 61.7729 58.3638C61.914 58.1127 62.0273 57.8455 62.0749 57.5597C62.2104 56.745 62.2581 55.9242 62.2779 55.1009C62.2958 54.3543 62.2946 53.6078 62.3262 52.8618C62.3837 51.5171 62.4598 50.1723 62.5273 48.8276C62.5675 48.0309 62.6022 47.2342 62.6461 46.4375C62.7142 45.2134 62.8058 43.9911 62.7377 42.7621C62.6678 41.5033 62.6257 40.2433 62.5712 38.9834C62.5564 38.632 62.5428 38.2813 62.523 37.93C62.492 37.3671 62.2996 36.8982 61.7741 36.6094C61.5155 36.4671 61.2834 36.4529 61.029 36.6248C60.7066 36.8438 60.3489 36.9848 59.956 37.0281C59.8458 37.0405 59.7375 37.0727 59.6298 37.098C59.4466 37.1413 59.3142 37.2527 59.274 37.4333C59.1781 37.8588 59.0444 38.285 59.0233 38.7155C59.0196 38.7817 59.0171 38.8479 59.0141 38.9141C58.9751 39.8431 58.9602 40.7716 58.9652 41.7ZM60.9288 62.1091C60.4752 62.0652 60.0271 61.9291 59.6187 61.699C59.0735 61.391 58.6205 60.932 58.3327 60.3753C58.035 59.7988 57.8723 59.1778 57.7398 58.5469C57.4465 57.1539 57.2355 55.7479 57.0634 54.3352C56.8901 52.9144 56.7218 51.4929 56.5436 50.0734C56.4464 49.2996 56.3196 48.5295 56.2304 47.755C56.1512 47.0653 56.072 46.3732 56.0522 45.6804C56.012 44.2491 55.9934 42.8165 56.0021 41.3846C56.0077 40.5112 56.0231 39.6353 56.1401 38.7656C56.236 38.0512 56.3604 37.3417 56.5702 36.6527C56.918 35.5102 57.6687 34.7172 58.7418 34.2112C58.9485 34.1141 59.1477 33.9904 59.3303 33.8525C59.9442 33.3861 60.654 33.1288 61.4263 33.1251C61.8199 33.1232 62.2179 33.1622 62.5916 33.2853C63.174 33.477 63.5274 33.9347 64.0336 34.2483C64.8412 34.7475 65.3066 35.4867 65.4953 36.3966C65.6123 36.9663 65.6865 37.5458 65.7503 38.1242C65.9588 40.0361 66.0077 41.9561 65.9991 43.8773C65.9953 44.588 65.9359 45.2988 65.8982 46.0095C65.8549 46.8142 65.8054 47.6183 65.762 48.4231C65.6791 49.9639 65.5937 51.5047 65.5194 53.0461C65.486 53.7482 65.473 54.4521 65.4569 55.1548C65.439 55.9007 65.4198 56.6461 65.296 57.384C65.0893 58.6217 64.619 59.7549 63.9042 60.7817C63.2235 61.7603 62.0582 62.2186 60.9288 62.1091Z" fill="#F7F7F7"/><path d="M45.3191 54.1386C45.2336 54.2134 45.2804 54.3798 45.2804 54.493C45.2791 55.5725 45.2797 56.6526 45.2751 57.7321C45.2744 57.8728 45.3485 57.9117 45.4868 57.9369C46.5075 58.1213 47.3885 57.6549 47.6724 56.7556C47.9396 55.912 47.6577 55.1678 47.1033 54.4888C46.9276 54.2739 46.6651 54.1661 46.3692 54.1224C46.0633 54.0769 45.7567 54.1014 45.4501 54.1002C45.3886 54.0996 45.3465 54.1146 45.3191 54.1386ZM42.1256 38.8214C42.147 37.9927 42.2505 37.1665 42.3246 36.3396C42.3554 36.0008 42.3988 35.6625 42.4509 35.326C42.531 34.8129 42.8497 34.4704 43.4174 34.3537C43.8937 34.2555 44.376 34.1651 44.8616 34.1154C46.6057 33.937 48.3584 34.016 50.1078 34.0262C50.361 34.0274 50.6248 34.0831 50.8646 34.1609C51.6348 34.4106 52.0723 35.0596 51.9902 35.7876C51.9087 36.5073 51.2948 37.0803 50.4866 37.1827C50.3042 37.206 50.1178 37.2186 49.9335 37.2192C48.488 37.221 47.0432 37.218 45.5984 37.2168C45.4501 37.2162 45.3165 37.2048 45.2517 37.3575C45.1802 37.5251 45.2537 37.8023 45.2503 37.9927C45.2477 38.1652 45.2457 38.3382 45.2437 38.5106C45.2383 38.9549 45.235 39.3991 45.2316 39.8434C45.2236 40.9858 45.2189 42.1281 45.2156 43.2711C45.2129 44.4811 45.2116 45.6905 45.2129 46.9006C45.2143 47.8525 45.2163 48.8045 45.225 49.7559C45.2256 49.8888 45.2216 50.0223 45.221 50.1546C45.2203 50.3217 45.1395 50.6001 45.2176 50.7498C45.3392 50.9797 45.945 50.8827 46.1708 50.8677C46.6551 50.8366 47.132 50.8635 47.6016 50.9827C48.2402 51.1449 48.7899 51.4461 49.2555 51.8622C50.2568 52.7573 50.9441 53.814 51.1986 55.0708C51.401 56.0683 51.2334 57.0334 50.8379 57.9776C50.1332 59.6576 48.7538 60.5802 46.8207 60.9065C45.9724 61.0496 45.1248 61.0041 44.2751 60.9305C44.036 60.9101 43.7942 60.8964 43.5597 60.8539C42.9178 60.7377 42.3153 60.3491 42.0949 59.7803C41.988 59.5055 42.0347 59.2415 42.02 58.9601C42.0073 58.7014 42 58.441 42 58.1794V51.6976C42 49.5362 42.0748 40.8463 42.1256 38.8214Z" fill="#F7F7F7"/><path d="M129.157 58.7372C129.34 58.8965 129.743 58.8175 129.964 58.8175C130.248 58.8175 130.868 58.9397 131.047 58.686C131.183 58.4945 131.131 58.2611 131.132 58.0456C131.133 57.7677 131.134 57.4892 131.135 57.2114C131.138 56.6544 131.14 56.098 131.143 55.541C131.147 54.4283 131.152 53.3149 131.156 52.2016C131.165 49.9755 131.174 47.7488 131.177 45.5227C131.178 44.7879 131.179 44.0531 131.179 43.3183C131.18 42.2407 131.088 41.1626 131.029 40.0857C130.959 38.8025 130.862 37.5199 130.914 36.2343C130.929 35.8669 130.965 35.4995 131.016 35.1352C131.074 34.7214 131.326 34.4232 131.747 34.2596C132.236 34.07 132.751 33.9909 133.281 34.0008C133.592 34.007 133.803 34.1688 133.963 34.3954C134.215 34.7486 134.32 35.1488 134.365 35.5594C134.414 36.0108 134.446 36.464 134.464 36.9173C134.514 38.1066 134.573 39.2965 134.589 40.487C134.626 43.2016 134.652 45.9167 134.659 48.6318C134.661 49.5556 134.598 50.48 134.555 51.4038C134.504 52.4838 134.512 53.5607 134.624 54.6376C134.676 55.1316 134.708 55.6275 134.746 56.1227C134.829 57.199 134.913 58.2753 134.989 59.3516C135.005 59.5733 135.002 59.7975 134.988 60.0191C134.952 60.5736 134.677 60.996 134.133 61.2609C133.609 61.5166 133.051 61.6851 132.471 61.7963C131.727 61.9389 130.972 62.0069 130.212 61.9995C128.854 61.9859 127.497 61.9612 126.139 61.9346C124.782 61.9081 123.424 61.8759 122.067 61.8426C121.534 61.829 121 61.8117 120.478 61.6944C120.333 61.6623 120.188 61.6228 120.051 61.5703C119.431 61.3319 119.079 60.8997 119.044 60.2902C119.005 59.6066 118.998 58.9206 119 58.2358C119.017 53.5589 119.036 48.8819 119.065 44.2056C119.079 42.0048 119.119 39.8035 119.141 37.6021C119.147 36.958 119.214 36.3208 119.332 35.6866C119.378 35.4396 119.461 35.2031 119.617 34.9944C119.95 34.5492 120.407 34.3151 121.003 34.3707C121.584 34.425 121.996 34.7208 122.211 35.2117C122.309 35.439 122.367 35.6897 122.388 35.9342C122.445 36.582 122.508 37.2322 122.507 37.8812C122.498 43.0293 122.475 48.1767 122.457 53.3248C122.453 54.3437 122.433 55.3638 122.454 56.3827C122.464 56.8582 122.486 57.333 122.511 57.8085C122.523 58.0407 122.538 58.2728 122.55 58.5044C122.56 58.6971 122.498 58.8786 122.603 59.0602C122.8 59.4016 123.393 59.0861 123.702 59.0052C124.177 58.8811 124.652 58.7557 125.126 58.6291C125.449 58.5433 125.55 58.426 125.563 58.1148C125.601 57.233 125.647 56.3518 125.667 55.47C125.737 52.2671 125.797 49.0647 125.86 45.8617C125.895 44.1062 125.932 42.3506 125.965 40.5951C125.984 39.5577 126.065 38.5259 126.292 37.507C126.306 37.4397 126.322 37.373 126.342 37.3075C126.511 36.7697 126.884 36.4838 127.46 36.4517C128.047 36.4177 128.565 36.6999 128.767 37.2026C128.883 37.4897 128.969 37.7916 129.019 38.0942C129.085 38.4993 129.133 38.9112 129.137 39.32C129.185 43.7567 129.218 48.1934 129.264 52.6301C129.274 53.6083 129.188 54.5796 129.11 55.5534C129.07 56.0653 129.081 56.5803 129.076 57.094C129.074 57.3602 129.073 57.6263 129.074 57.8925C129.074 58.1191 128.986 58.4612 129.101 58.6674C129.116 58.6946 129.135 58.7174 129.157 58.7372Z" fill="#F7F7F7"/><path d="M85.5785 58.6659C85.674 58.7737 85.8336 58.7657 85.9964 58.7601C86.2823 58.7496 86.5689 58.741 86.8548 58.7195C87.5234 58.6696 88.1939 58.6277 88.8582 58.5433C89.8064 58.4232 90.7503 58.2667 91.6961 58.1287C91.8595 58.1047 92.3697 58.1404 92.4496 57.9661C92.4659 57.9303 92.4653 57.8891 92.4634 57.849C92.4345 57.2829 92.2478 56.6811 92.1272 56.1242C91.999 55.5346 91.8551 54.9488 91.686 54.3698C91.0463 52.1878 90.6649 49.9609 90.4349 47.7051C90.3513 46.8851 90.2665 46.0627 90.1213 45.2521C90.039 44.7913 89.9384 44.333 89.8328 43.8771C89.7801 43.648 89.726 43.42 89.6726 43.1921C89.6318 43.0196 89.6186 42.8015 89.5551 42.6395C89.5287 42.573 89.4659 42.5157 89.393 42.5188C89.3238 42.5225 89.2673 42.5804 89.2459 42.6451C89.2044 42.7664 89.2151 42.918 89.1831 43.0467C89.1441 43.202 89.1058 43.3572 89.0668 43.5118C88.9864 43.8334 88.9059 44.1543 88.8255 44.4759L88.3429 46.4028C87.788 48.6174 87.2337 50.8332 86.687 53.0496C86.298 54.6254 85.8443 56.187 85.6087 57.7967C85.5747 58.0277 85.4478 58.2944 85.5087 58.5273C85.5245 58.5876 85.5483 58.6326 85.5785 58.6659ZM82.7959 58.648C82.8128 58.624 82.8191 58.5932 82.8223 58.5636C82.8367 58.4213 82.7953 58.2839 82.7739 58.1441C82.7538 58.0178 82.7777 57.9273 82.7871 57.8071C82.811 57.5053 82.7676 57.1905 82.7814 56.8862C82.8078 56.2936 82.8945 55.704 83.0309 55.1268C83.6329 52.5907 84.2632 50.0607 84.8854 47.5289C85.2957 45.8582 85.7306 44.1925 86.1158 42.5163C86.3552 41.4734 86.5085 40.4114 86.7266 39.3629C86.9968 38.0656 87.2909 36.7738 87.5819 35.4808C87.6215 35.3021 87.6906 35.1272 87.7673 34.9603C88.2957 33.8071 89.6223 33.8052 90.3444 34.3633C90.7026 34.6412 90.9282 35.0034 91.0438 35.4297C91.2317 36.1245 91.397 36.8256 91.5918 37.5186C91.9223 38.6933 92.2503 39.8693 92.6123 41.0354C93.1773 42.8521 93.5838 44.7007 93.8327 46.5833C93.9735 47.6533 94.0665 48.7301 94.2324 49.7958C94.3668 50.6613 94.551 51.5219 94.7596 52.3739C95.1103 53.8067 95.4515 55.2408 95.6777 56.6989C95.7368 57.0802 95.7751 57.4652 95.8354 57.8459C95.8995 58.2519 96.039 58.3677 96.4488 58.4084C96.8045 58.4429 97.1608 58.4811 97.5146 58.5316C98.4188 58.6603 99.0491 59.4082 98.997 60.2798C98.948 61.1034 98.2881 61.7343 97.4467 61.7158C96.9295 61.7047 96.4123 61.6437 95.8977 61.5833C94.8281 61.4577 93.7567 61.4145 92.6808 61.4379C91.7288 61.4589 90.7905 61.6037 89.8561 61.7595C88.5333 61.9794 87.2036 62.0299 85.8682 61.985C84.5259 61.9394 83.183 61.8846 81.8413 61.8162C81.5598 61.8026 81.2751 61.7336 81.0037 61.6529C80.4167 61.4774 79.9724 60.947 80.0013 60.2213C80.0296 59.5227 80.4796 58.9967 81.1689 58.8661C81.6534 58.7139 82.1976 58.81 82.6853 58.7022C82.723 58.6936 82.7638 58.6837 82.7896 58.6554C82.7915 58.6529 82.7934 58.6505 82.7959 58.648Z" fill="#F7F7F7"/><path d="M109.464 49.7675C109.47 49.7594 109.477 49.7502 109.482 49.741C109.508 49.6923 109.506 49.6343 109.502 49.5795C109.476 49.1666 109.342 48.7475 109.254 48.342C108.781 46.1697 108.308 43.9967 107.833 41.8244C107.813 41.7331 107.847 41.5957 107.681 41.5945C107.514 41.5926 107.544 41.7295 107.525 41.8213C107.06 44.001 106.595 46.1808 106.13 48.3605C106.075 48.6218 106.02 48.8837 105.964 49.145C105.931 49.3009 105.776 49.6257 105.868 49.7699C105.976 49.9406 106.405 49.8414 106.585 49.8414H107.574H108.468C108.734 49.8414 109.055 49.8889 109.316 49.8439C109.373 49.834 109.428 49.8087 109.464 49.7675ZM109.993 52.7502C109.814 52.6306 109.554 52.6602 109.343 52.6547C109.088 52.6473 108.832 52.6436 108.576 52.6405C108.215 52.6362 107.854 52.6405 107.493 52.6294C107.066 52.6171 106.639 52.6041 106.212 52.5918C105.919 52.5832 105.433 52.4667 105.174 52.6331C105.047 52.7145 105.055 52.9221 105.019 53.0479C104.414 55.1968 103.785 57.3408 103.165 59.4866C103.048 59.8903 102.916 60.2903 102.779 60.689C102.727 60.8418 102.656 60.9947 102.566 61.1309C102.204 61.6781 101.567 61.8802 100.913 61.6689C100.517 61.5419 100.269 61.2874 100.154 60.9158C99.9761 60.3377 99.9403 59.759 100.11 59.1711C100.349 58.3472 100.594 57.5238 100.804 56.6931C101.239 54.9638 101.668 53.2334 102.071 51.4973C102.578 49.3194 103.066 47.1378 103.544 44.9544C103.809 43.7502 104.027 42.5368 104.288 41.3313C104.738 39.2594 105.373 37.2368 106.222 35.274C106.31 35.0694 106.415 34.8648 106.552 34.6855C106.968 34.1358 107.555 33.9151 108.262 34.0292C108.95 34.1407 109.41 34.5302 109.585 35.1582C109.779 35.8521 109.927 36.5565 110.103 37.2547C110.576 39.1331 111.049 41.0115 111.532 42.8887C111.959 44.5501 112.309 46.2258 112.624 47.9082C113.057 50.2216 113.49 52.5351 113.948 54.8437C114.244 56.3295 114.587 57.8067 114.909 59.2882C115.007 59.7356 115.023 60.1873 114.971 60.6403C114.89 61.3398 114.434 61.7447 113.739 61.9339C112.853 62.1754 111.79 61.7514 111.588 60.7247C111.544 60.4979 111.485 60.2736 111.437 60.0475C111.148 58.6997 110.846 57.3537 110.577 56.0023C110.408 55.1463 110.289 54.2816 110.147 53.4207C110.125 53.2882 110.084 53.1471 110.08 53.014C110.077 52.9147 110.127 52.8574 110.026 52.7742C110.015 52.7656 110.004 52.7576 109.993 52.7502Z" fill="#F7F7F7"/><path d="M76.1332 37.4219C76.0745 37.4693 76.0228 37.5321 75.9807 37.6146C75.8358 37.8946 75.8639 38.2411 75.8167 38.5451C75.555 40.2357 75.2819 41.925 75.0323 43.6175C74.8926 44.5671 74.7617 45.5192 74.6768 46.4743C74.4445 49.0973 74.5243 51.7276 74.5135 54.3549C74.5103 55.211 74.4924 56.067 74.5154 56.9225C74.5428 57.9601 74.6073 58.9977 74.6551 60.036C74.6743 60.4458 74.5977 60.8385 74.3743 61.1911C74.0125 61.7629 73.4796 62.0558 72.7833 61.9912C72.029 61.921 71.4546 61.4434 71.2759 60.7486C71.1891 60.4114 71.1534 60.0612 71.1112 59.7147C71.0206 58.9768 70.9976 58.2358 71.0002 57.493C71.0072 55.5107 70.9938 53.5284 71.0117 51.5461C71.0232 50.3066 71.0442 49.0653 71.1221 47.8283C71.1923 46.7149 71.3308 45.6041 71.4648 44.4951C71.6001 43.3861 71.7616 42.2801 71.9237 41.1742C72.0673 40.1901 72.2236 39.2067 72.3806 38.2245C72.5108 37.4139 72.6499 36.6053 72.7859 35.796C72.7973 35.727 72.8171 35.66 72.8305 35.591C72.9748 34.8236 73.4936 34.2469 74.5735 34.2094C75.1344 34.1897 75.696 34.1805 76.257 34.162C77.8129 34.1109 79.3695 34.058 80.9261 34.0038C81.2445 33.9928 81.5598 34.0001 81.8642 34.1023C83.0908 34.5134 83.3008 35.9098 82.6058 36.7C82.362 36.9776 82.0544 37.1548 81.6747 37.1844C81.0071 37.2355 80.3389 37.2927 79.6701 37.3136C78.8653 37.3389 78.0586 37.3358 77.2532 37.3321C76.8735 37.3302 76.4198 37.1899 76.1332 37.4219Z" fill="#F7F7F7"/></g></svg>