<svg xmlns="http://www.w3.org/2000/svg" version="1.1" viewBox="0.00 0.00 205.00 205.00">
<path fill="currentColor" d="   M 14.41 63.86   C 11.29 61.78 7.52 59.50 5.17 57.02   C -3.66 47.70 0.39 31.85 12.09 27.38   Q 15.68 26.01 22.71 26.01   Q 102.17 26.00 181.63 26.00   Q 189.18 26.00 192.71 27.31   C 206.61 32.49 209.19 51.48 196.77 59.78   Q 156.72 86.56 116.60 113.24   C 107.93 119.01 100.62 121.27 91.68 115.33   Q 53.00 89.65 14.41 63.86   Z"/>
<path fill="currentColor" d="   M 205.00 68.79   L 205.00 74.05   L 205.00 146.07   L 205.00 155.79   Q 204.67 157.93 204.71 160.10   C 204.86 168.18 199.97 175.06 192.89 177.77   Q 188.99 179.26 179.93 179.25   Q 102.88 179.24 25.83 179.26   Q 16.35 179.27 12.36 177.76   C 2.60 174.08 0.25 165.89 0.25 155.80   Q 0.25 112.45 0.25 69.23   A 0.24 0.24 0.0 0 1 0.62 69.03   Q 41.21 96.19 81.99 123.25   C 94.83 131.77 107.09 134.04 120.85 124.86   Q 162.65 96.97 205.00 68.79   Z"/>
</svg>
