<svg width="27" height="18" viewBox="0 0 27 18" fill="none" xmlns="http://www.w3.org/2000/svg">
<path fill-rule="evenodd" clip-rule="evenodd" d="M13.5615 0C14.3284 0.00127431 22.0482 0.0267606 24.0476 0.536486C25.2099 0.830312 26.1239 1.69902 26.4357 2.81045C26.9775 4.73591 26.9991 8.66286 27 8.97394V9.01329C26.9991 9.3253 26.9775 13.264 26.4357 15.1895C26.1239 16.3009 25.2099 17.1696 24.0476 17.4635C21.985 17.9893 13.8352 17.9998 13.51 18H13.49C13.1648 17.9998 5.01361 17.9893 2.94972 17.4635C1.78872 17.1696 0.873416 16.3009 0.562915 15.1895C0.022482 13.264 0.000864693 9.3253 0 9.01329V8.97394C0.000864693 8.66286 0.022482 4.73591 0.562915 2.81045C0.873416 1.69902 1.78872 0.830312 2.94972 0.536486C4.95043 0.0267606 12.6714 0.00127431 13.4385 0H13.5615ZM10.7379 5.19939V12.8006L17.7957 8.99358L10.7379 5.19939Z" fill="currentColor"/>
</svg>
