<svg width="19" height="19" viewBox="0 0 19 19" fill="none" xmlns="http://www.w3.org/2000/svg">
<path fill-rule="evenodd" clip-rule="evenodd" d="M3.77219 1.93531C5.32512 0.744121 7.25925 0.120471 9.20668 0.0181462C9.13542 1.77859 9.1619 3.57364 8.67462 5.28129C8.49661 5.95334 8.17412 6.5789 7.72944 7.11472C7.28476 7.65054 6.72851 8.08384 6.09912 8.38467C4.18323 9.20797 2.04689 9.14689 0.00164599 9.2294C0.00164599 6.39161 1.49327 3.61822 3.77219 1.93531ZM9.78674 0C11.5104 0.143588 13.2373 0.593953 14.6826 1.57234C15.9698 2.40626 17.0345 3.53865 17.7853 4.87233C18.5362 6.20601 18.9507 7.70114 18.9934 9.2294C17.1007 9.16341 15.1533 9.18984 13.3401 8.57108C12.6828 8.34463 12.0845 7.97527 11.5885 7.48983C11.0926 7.00439 10.7115 6.41507 10.4729 5.76469C9.80333 3.92506 9.81987 1.93035 9.78674 0ZM13.6832 10.3315C15.4135 9.858 17.22 9.84319 19 9.80192C18.9304 12.2341 17.9163 14.5447 16.1709 16.248C14.4625 17.9273 12.1842 18.9085 9.78505 18.9983C9.83147 17.0332 9.79834 14.9973 10.5176 13.133C11.0297 11.7554 12.2794 10.7292 13.6832 10.3315ZM5.27642e-05 9.80521C2.15122 9.88112 4.44837 9.78211 6.4107 10.8083C7.75316 11.4914 8.54369 12.912 8.82547 14.3424C9.14702 15.8735 9.15693 17.4442 9.19672 19C7.92349 18.9513 6.67249 18.6525 5.5157 18.1207C4.35891 17.589 3.31914 16.8348 2.45622 15.9015C0.956333 14.245 -0.00821746 12.0507 5.27642e-05 9.80521Z" fill="currentColor"/>
</svg>
