<svg width="27" height="17" viewBox="0 0 27 17" fill="none" xmlns="http://www.w3.org/2000/svg">
<path d="M25.8262 13.2593C25.2383 12.4907 24.5702 11.8018 23.9242 11.1355C23.6945 10.8986 23.457 10.6536 23.228 10.4101C22.5706 9.70998 22.5467 9.44697 23.0672 8.65178C23.4272 8.10366 23.809 7.55481 24.1782 7.02401C24.5131 6.54243 24.8594 6.04441 25.1913 5.54478L25.2595 5.44205C25.8939 4.48593 26.5499 3.49727 26.8991 2.30461C26.9898 1.98995 27.085 1.52691 26.8673 1.13972C26.6498 0.75285 26.2278 0.634822 25.9292 0.579694C25.7816 0.552413 25.6349 0.54869 25.4989 0.54869L21.3444 0.545452L21.31 0.545128C20.6819 0.545128 20.2586 0.867558 20.016 1.53096C19.7844 2.16481 19.53 2.83978 19.2397 3.48157C18.6621 4.75955 17.9284 6.23149 16.8668 7.45912L16.8219 7.51134C16.6965 7.6581 16.5545 7.8243 16.4506 7.8243C16.4347 7.8243 16.4174 7.82098 16.3978 7.81426C16.1779 7.72092 16.0303 7.14107 16.037 6.87133C16.0371 6.86761 16.0371 6.86389 16.0371 6.86016L16.0342 1.62988C16.0342 1.61175 16.033 1.59377 16.0309 1.5758C15.9252 0.725569 15.6911 0.196307 14.8066 0.00760898C14.7831 0.00250903 14.7591 1.87605e-09 14.7351 1.87301e-09L10.4153 1.32391e-09C9.71151 1.23444e-09 9.32372 0.311583 8.95918 0.777945C8.86078 0.90261 8.65596 1.16214 8.75748 1.47696C8.86049 1.79648 9.19485 1.8648 9.30372 1.88698C9.84417 1.99902 10.1488 2.35909 10.2351 2.98825C10.3857 4.08077 10.4042 5.24688 10.2933 6.65811C10.2624 7.05032 10.2013 7.35324 10.1005 7.61204C10.0771 7.67243 9.99407 7.86955 9.90942 7.86963C9.88252 7.86963 9.8047 7.85813 9.66298 7.75176C9.32788 7.5017 9.0827 7.14487 8.79687 6.70409C7.82449 5.20721 7.00839 3.55823 6.30162 1.66177C6.0395 0.963648 5.54997 0.572813 4.92257 0.561318C4.23319 0.549904 3.60817 0.544399 3.01206 0.544399C2.36073 0.544399 1.75689 0.550957 1.16725 0.564314C0.662479 0.574028 0.31333 0.738845 0.129614 1.05456C-0.0543985 1.37051 -0.0424332 1.78555 0.165213 2.28794C1.82742 6.31309 3.33453 9.23974 5.05203 11.7777C6.25547 13.5536 7.46255 14.7829 8.85038 15.6459C10.3125 16.557 11.9511 17 13.8596 17C14.0759 17 14.2996 16.9943 14.5252 16.9828C15.6342 16.9239 16.0456 16.4867 16.0976 15.3105C16.1224 14.7095 16.1827 14.0791 16.454 13.5415C16.6252 13.2028 16.7849 13.2028 16.8373 13.2028C16.9384 13.2028 17.0637 13.2535 17.1983 13.3484C17.4397 13.5201 17.6467 13.75 17.8163 13.9508C17.976 14.1416 18.134 14.3343 18.292 14.5272C18.6332 14.9433 18.9859 15.3736 19.3543 15.7817C20.1609 16.6755 21.0493 17.0686 22.0698 16.9832L25.8788 16.9832C25.8869 16.9832 25.895 16.9829 25.9031 16.9824C26.2827 16.9551 26.6114 16.7257 26.805 16.3532C27.0448 15.8917 27.04 15.3029 26.7921 14.7779C26.5108 14.1842 26.1459 13.6769 25.8262 13.2593Z" fill="currentColor"/>
</svg>
