<svg width="19" height="20" viewBox="0 0 19 20" fill="none" xmlns="http://www.w3.org/2000/svg">
<path d="M5.32582 2.50283L6.64022 2.10655C7.07401 1.97597 7.54049 2.00765 7.95265 2.19568C8.3648 2.38372 8.69448 2.71526 8.88018 3.12847L9.80168 5.17776C9.96162 5.53328 10.0062 5.92996 9.92916 6.31211C9.85212 6.69426 9.65733 7.04269 9.37215 7.30847L7.96954 8.6154C7.78158 8.79387 7.92408 9.4894 8.61079 10.6796C9.29818 11.8705 9.8295 12.3414 10.0745 12.2682L11.912 11.7063C12.2845 11.5924 12.6833 11.5978 13.0525 11.722C13.4217 11.8461 13.7428 12.0826 13.9708 12.3984L15.2805 14.2136C15.545 14.5802 15.6675 15.0303 15.6252 15.4803C15.5829 15.9303 15.3786 16.3497 15.0504 16.6605L14.038 17.6194C13.7112 17.9289 13.3081 18.1462 12.8699 18.249C12.4317 18.3519 11.974 18.3367 11.5436 18.205C9.42236 17.5556 7.4579 15.6284 5.62372 12.4507C3.78547 9.26819 3.09129 6.58376 3.57511 4.39062C3.67269 3.9487 3.88636 3.5408 4.1941 3.20897C4.50184 2.87714 4.8925 2.63339 5.32582 2.50283Z" fill="currentColor"/>
</svg>
