<svg xmlns="http://www.w3.org/2000/svg" version="1.1" viewBox="0.00 0.00 441.00 441.00">
<path fill="currentColor" d="   M 32.07 179.16   C 54.60 77.81 153.19 12.04 255.40 30.77   C 339.44 46.16 405.08 117.09 412.51 202.50   Q 418.26 268.59 382.99 324.50   Q 378.77 331.19 375.97 333.09   C 366.17 339.74 352.88 331.19 354.87 319.39   Q 355.35 316.50 358.79 311.19   C 405.90 238.41 390.05 142.23 320.89 89.07   C 267.43 47.97 193.31 44.12 135.61 78.54   C 44.53 132.88 27.71 258.90 101.56 335.46   C 124.98 359.74 156.69 377.18 190.30 383.00   Q 258.36 394.80 315.29 356.03   Q 320.75 352.31 323.38 351.61   C 338.57 347.61 346.49 367.95 333.39 377.21   C 271.92 420.68 192.12 425.30 126.40 388.86   C 52.69 347.98 13.72 261.68 32.07 179.16   Z"/>
<path fill="currentColor" d="   M 147.88 204.33   C 167.00 223.23 185.74 242.59 205.04 261.30   A 0.53 0.52 41.2 0 0 205.82 261.25   Q 248.08 206.88 290.51 152.37   Q 294.18 147.65 297.03 146.25   C 307.65 141.05 320.16 151.00 316.23 162.86   Q 315.48 165.11 311.99 169.61   Q 265.22 229.78 218.41 289.91   C 211.34 299.00 202.27 297.60 194.83 290.18   Q 161.79 257.25 128.90 224.19   C 114.90 210.13 134.42 191.04 147.88 204.33   Z"/>
</svg>
