<svg width="9" height="10" viewBox="0 0 9 10" fill="none" xmlns="http://www.w3.org/2000/svg">
<path d="M8.39344 1.11183C8.31717 1.06224 8.23186 1.02818 8.14241 1.0116C8.05296 0.995011 7.96112 0.996228 7.87214 1.01518C7.78316 1.03412 7.69879 1.07043 7.62386 1.12202C7.54892 1.17361 7.48489 1.23947 7.43544 1.31583L3.55544 7.29683L1.66244 5.54683C1.52758 5.42217 1.34872 5.3562 1.16522 5.36342C0.981712 5.37064 0.808593 5.45046 0.683941 5.58533C0.559289 5.72019 0.493316 5.89905 0.500536 6.08255C0.507756 6.26605 0.587578 6.43917 0.722441 6.56383L3.20744 8.86183C3.20744 8.86183 3.27844 8.92283 3.31144 8.94383C3.38771 8.99341 3.47302 9.02747 3.56247 9.04405C3.65192 9.06064 3.74376 9.05942 3.83274 9.04047C3.92172 9.02153 4.00609 8.98522 4.08103 8.93363C4.15596 8.88204 4.21999 8.81618 4.26944 8.73983L8.59744 2.07083C8.64702 1.99455 8.68109 1.90925 8.69767 1.8198C8.71425 1.73035 8.71304 1.6385 8.69409 1.54952C8.67514 1.46054 8.63883 1.37617 8.58725 1.30124C8.53566 1.22631 8.4698 1.16128 8.39344 1.11183Z" fill="currentColor"/>
</svg>
