<svg width="20" height="20" viewBox="0 0 20 20" fill="none" xmlns="http://www.w3.org/2000/svg">
<path d="M10 0C7.87901 0.00236318 5.84557 0.830934 4.3458 2.30394C2.84603 3.77694 2.00241 5.77408 2 7.85722C2 14.5805 9.27273 19.6582 9.58273 19.8707C9.70501 19.9549 9.8507 20 10 20C10.1493 20 10.295 19.9549 10.4173 19.8707C10.7273 19.6582 18 14.5805 18 7.85722C17.9976 5.77408 17.154 3.77694 15.6542 2.30394C14.1544 0.830934 12.121 0.00236318 10 0ZM10 5.00005C10.5754 5.00005 11.1378 5.16762 11.6162 5.48157C12.0946 5.79552 12.4675 6.24175 12.6877 6.76383C12.9078 7.28591 12.9654 7.86039 12.8532 8.41463C12.7409 8.96887 12.4639 9.47796 12.057 9.87755C11.6502 10.2771 11.1318 10.5492 10.5675 10.6595C10.0032 10.7697 9.41831 10.7132 8.88674 10.4969C8.35517 10.2807 7.90083 9.91444 7.58118 9.44458C7.26152 8.97472 7.09091 8.42232 7.09091 7.85722C7.09091 7.09945 7.3974 6.37272 7.94296 5.8369C8.48852 5.30107 9.22846 5.00005 10 5.00005Z" fill="currentColor"/>
</svg>
