<svg width="200" height="100" viewBox="0 0 200 100" fill="none" xmlns="http://www.w3.org/2000/svg">
<g opacity="0.8">
<mask id="mask0_3014_814" style="mask-type:luminance" maskUnits="userSpaceOnUse" x="31" y="30" width="138" height="40">
<path d="M168.5 30.5H31.5V69.5H168.5V30.5Z" fill="white"/>
</mask>
<g mask="url(#mask0_3014_814)">
<path d="M62.234 50.3962L59.3477 53.31C59.0754 53.5849 58.6125 53.5849 58.3402 53.31L55.4268 50.3687C55.1545 50.0938 55.1545 49.6265 55.4268 49.3516L58.313 46.4379C58.5853 46.163 59.0482 46.163 59.3205 46.4379L62.234 49.3792C62.5063 49.6541 62.5063 50.1214 62.234 50.3962ZM50.7705 37.5043L48.6466 39.6483C48.2381 40.0882 47.5302 40.0882 47.1218 39.6483L44.9979 37.5043C44.5895 37.0645 44.5895 36.3773 44.9979 35.9649L47.1218 33.8208C47.5575 33.381 48.2381 33.381 48.6466 33.8208L50.7705 35.9649C51.2062 36.3773 51.2062 37.0645 50.7705 37.5043ZM65.2564 44.981L52.1865 31.7867C51.0701 30.6322 49.518 30 47.9114 30H47.857C46.2777 30 44.7529 30.6322 43.6093 31.7592L38 37.3118L47.6391 47.0427L48.8373 45.8332C48.9461 45.7232 49.055 45.6683 49.1912 45.6132L52.7038 44.4313C52.8671 44.3763 53.0578 44.3763 53.2212 44.4038L56.4614 45.2835C57.115 45.4759 57.3327 46.3005 56.8427 46.7678L55.7807 47.8398C55.5629 48.0597 55.2361 48.1422 54.9366 48.0597L53.1394 47.6749C53.0033 47.6474 52.8399 47.6474 52.6766 47.6749L51.1517 48.1422C50.9883 48.1696 50.8522 48.2521 50.7433 48.362L49.8447 49.2692L59.4838 59L60.3825 58.0929C60.4914 57.9829 60.573 57.8455 60.6002 57.6806L61.0087 56.1413C61.0359 56.0038 61.0359 55.8388 61.0087 55.674L60.6275 53.8598C60.5458 53.5573 60.6275 53.2275 60.8453 53.0075L61.9073 51.9356C62.3974 51.4407 63.2143 51.6607 63.3776 52.3204L64.0312 54.7118L65.1748 53.5849C66.3456 52.4303 66.9991 50.8635 66.9991 49.2142C67.0264 47.6749 66.4001 46.1081 65.2564 44.981Z" fill="#F7F7F7"/>
<path d="M51.1056 62.9868L48.9717 65.1187C48.534 65.5561 47.85 65.5561 47.4396 65.1187L45.3056 62.9868C44.8679 62.5495 44.8679 61.8661 45.3056 61.4562L47.4396 59.3242C47.8774 58.8869 48.5613 58.8869 48.9717 59.3242L51.1056 61.4562C51.5434 61.8661 51.5434 62.5495 51.1056 62.9868ZM36.3047 52.6277L33.3774 49.7031C33.1038 49.4297 33.1038 48.9652 33.3774 48.6918L36.2774 45.7945C36.5509 45.5212 37.016 45.5212 37.2896 45.7945L40.217 48.7191C40.4905 48.9924 40.4905 49.4571 40.217 49.7305L37.317 52.6277C37.016 52.9284 36.5783 52.9284 36.3047 52.6277ZM48.1783 51.8624L46.8377 53.2016C46.7283 53.311 46.6189 53.3657 46.4821 53.4203L42.9529 54.5956C42.7887 54.6503 42.5972 54.6503 42.433 54.623L39.1774 53.7483C38.5208 53.557 38.3019 52.7371 38.7943 52.2724L39.8613 51.2064C40.0802 50.9877 40.4085 50.9058 40.7095 50.9877L42.5151 51.3704C42.6519 51.3977 42.8161 51.3977 42.9802 51.3704L44.5123 50.9604C44.6764 50.933 44.8132 50.8511 44.9227 50.7417L45.9623 49.7031L36.2774 40L35.0189 41.2573C34.9915 41.312 34.9915 41.3393 34.9642 41.394L34.5538 42.9246C34.5264 43.0612 34.5264 43.2253 34.5538 43.3892L34.9368 45.1932C35.0189 45.4939 34.9368 45.8219 34.7179 46.0405L33.6509 47.1065C33.1585 47.5985 32.3377 47.3798 32.1736 46.7238L31.6264 44.6738L30.8057 45.4939C29.6292 46.6418 29 48.1725 29 49.7851V49.8125C29 51.4251 29.6292 52.983 30.7783 54.1037L43.9103 67.2233C45.0595 68.3713 46.5915 69 48.2057 69H48.233C49.8471 69 51.4066 68.3713 52.5283 67.2233L58 61.7022L48.1783 51.8624Z" fill="#F7F7F7"/>
<path d="M82.4779 53H79V30H90V53H86.4681V33.2897H82.4779V53Z" fill="#F7F7F7"/>
<path d="M95.5056 45.6958H99.0927L97.3135 34.0703L95.5056 45.6958ZM104 53H100.241L99.6092 48.8182H95.0464L94.415 53H91L94.7881 30H100.241L104 53Z" fill="#F7F7F7"/>
<path d="M109.724 33.2897V41.0678H111.471C112.646 41.0678 113.305 40.5381 113.305 38.8933V35.4642C113.305 33.8194 112.674 33.2897 111.471 33.2897H109.724ZM117 35.6873V38.6703C117 42.3503 115.167 44.3576 111.471 44.3576H109.724V53H106V30H111.471C115.195 30 117 32.0073 117 35.6873Z" fill="#F7F7F7"/>
<path d="M117 30H128V33.2897H124.269V53H120.703V33.2897H117V30Z" fill="#F7F7F7"/>
<path d="M133.497 53H130V30H133.497V39.8691H137.449V30H141V53H137.449V43.1309H133.497V53Z" fill="#F7F7F7"/>
<path d="M146.673 39.7018H151.7V42.9636H146.673V49.7103H153V53H143V30H153V33.2897H146.673V39.7018Z" fill="#F7F7F7"/>
<path d="M158.695 33.2897V41.0678H160.442C161.617 41.0678 162.276 40.5381 162.276 38.8933V35.4642C162.276 33.8194 161.646 33.2897 160.442 33.2897H158.695ZM166 35.6873V38.6703C166 42.3503 164.166 44.3576 160.471 44.3576H158.723V53H155V30H160.471C164.166 30 166 32.0073 166 35.6873Z" fill="#F7F7F7"/>
<path d="M166 57H79V58H166V57Z" fill="#F7F7F7"/>
<path d="M82 69H80.7293L79.7127 65.92L79.2155 66.8V69H78V62H79.2155V65.01L80.7404 62H81.9779L80.5304 64.57L82 69Z" fill="#F7F7F7"/>
<path d="M82 67.2889V63.7111C82 63.1667 82.1287 62.7453 82.3862 62.4472C82.6437 62.1491 83.015 62 83.5 62C83.985 62 84.3563 62.1491 84.6138 62.4472C84.8712 62.7453 85 63.1667 85 63.7111V67.2889C85 67.8333 84.8712 68.2547 84.6138 68.5528C84.3563 68.8509 83.985 69 83.5 69C83.015 69 82.6437 68.8509 82.3862 68.5528C82.1287 68.2547 82 67.8333 82 67.2889ZM84.012 67.357V63.643C84.012 63.1958 83.8413 62.9722 83.5 62.9722C83.1587 62.9722 82.988 63.1958 82.988 63.643V67.357C82.988 67.8042 83.1587 68.0278 83.5 68.0278C83.8413 68.0278 84.012 67.8042 84.012 67.357Z" fill="#F7F7F7"/>
<path d="M87.0527 69H86V62H87.6995L88.5001 67.0801L89.3005 62H91V69H89.8597V63.6999L88.9605 69H87.9518L87.0527 63.6999V69Z" fill="#F7F7F7"/>
<path d="M93.3018 69H92V62H96V69H94.6982V63H93.3018V69Z" fill="#F7F7F7"/>
<path d="M96.3062 69C96.2008 69 96.0988 68.9899 96 68.97V68.0014C96.0527 68.0147 96.1086 68.0213 96.168 68.0213C96.3852 68.0213 96.5367 67.9681 96.6223 67.8616C96.7144 67.7484 96.7638 67.552 96.7704 67.2724L96.9383 62H100V68.9899H98.9136V62.9985H97.9654L97.8469 67.2125C97.8338 67.8383 97.7087 68.2943 97.4716 68.5806C97.2346 68.8601 96.8461 69 96.3062 69Z" fill="#F7F7F7"/>
<path d="M104 69H101V62H104V63H102.1V64.85H103.61V65.85H102.1V68H104V69Z" fill="#F7F7F7"/>
<path d="M109 69H107.729L106.713 65.92L106.216 66.8V69H105V62H106.216V65.01L107.74 62H108.978L107.53 64.57L109 69Z" fill="#F7F7F7"/>
<path d="M109 67.3278V63.6722C109 63.1407 109.13 62.7292 109.389 62.4375C109.648 62.1458 110.019 62 110.5 62C110.982 62 111.352 62.1458 111.611 62.4375C111.87 62.7292 112 63.1407 112 63.6722V64.3916H111.037V63.6042C111.037 63.1828 110.867 62.9722 110.528 62.9722C110.188 62.9722 110.019 63.1828 110.019 63.6042V67.4056C110.019 67.8204 110.188 68.0278 110.528 68.0278C110.867 68.0278 111.037 67.8204 111.037 67.4056V66.4139H112V67.3278C112 67.8593 111.87 68.2708 111.611 68.5625C111.352 68.8542 110.982 69 110.5 69C110.019 69 109.648 68.8542 109.389 68.5625C109.13 68.2708 109 67.8593 109 67.3278Z" fill="#F7F7F7"/>
<path d="M114.302 69H113V62H114.302V64.85H115.698V62H117V69H115.698V65.85H114.302V69Z" fill="#F7F7F7"/>
<path d="M118 67.2889V63.7111C118 63.1667 118.129 62.7453 118.386 62.4472C118.644 62.1491 119.015 62 119.5 62C119.985 62 120.356 62.1491 120.614 62.4472C120.871 62.7453 121 63.1667 121 63.7111V67.2889C121 67.8333 120.871 68.2547 120.614 68.5528C120.356 68.8509 119.985 69 119.5 69C119.015 69 118.644 68.8509 118.386 68.5528C118.129 68.2547 118 67.8333 118 67.2889ZM120.012 67.357V63.643C120.012 63.1958 119.841 62.9722 119.5 62.9722C119.159 62.9722 118.988 63.1958 118.988 63.643V67.357C118.988 67.8042 119.159 68.0278 119.5 68.0278C119.841 68.0278 120.012 67.8042 120.012 67.357Z" fill="#F7F7F7"/>
<path d="M125 69H122V62H125V63H123.1V64.85H124.61V65.85H123.1V68H125V69Z" fill="#F7F7F7"/>
<path d="M127 67.3278V63.6722C127 63.1407 127.13 62.7292 127.389 62.4375C127.648 62.1458 128.018 62 128.5 62C128.981 62 129.351 62.1458 129.611 62.4375C129.87 62.7292 130 63.1407 130 63.6722V64.3916H129.037V63.6042C129.037 63.1828 128.867 62.9722 128.528 62.9722C128.188 62.9722 128.018 63.1828 128.018 63.6042V67.4056C128.018 67.8204 128.188 68.0278 128.528 68.0278C128.867 68.0278 129.037 67.8204 129.037 67.4056V66.4139H130V67.3278C130 67.8593 129.87 68.2708 129.611 68.5625C129.351 68.8542 128.981 69 128.5 69C128.018 69 127.648 68.8542 127.389 68.5625C127.13 68.2708 127 67.8593 127 67.3278Z" fill="#F7F7F7"/>
<path d="M132.303 69H131V62H132.303V64.85H133.698V62H135V69H133.698V65.85H132.303V69Z" fill="#F7F7F7"/>
<path d="M139 69H137.833L137.632 67.6301H136.284L136.083 69H135L136.21 62H137.791L139 69ZM136.952 63.15L136.433 66.68H137.483L136.952 63.15Z" fill="#F7F7F7"/>
<path d="M140.526 69H139V62H141.613V63H139.988V64.75H140.526C141.509 64.75 142 65.3267 142 66.48V67.27C142 68.4234 141.509 69 140.526 69ZM139.988 65.75V68H140.526C140.694 68 140.818 67.9501 140.895 67.8501C140.973 67.7433 141.012 67.5734 141.012 67.34V66.41C141.012 66.1767 140.973 66.01 140.895 65.91C140.818 65.8033 140.694 65.75 140.526 65.75H139.988Z" fill="#F7F7F7"/>
<path d="M148 69H146.879L145.98 65.7L145.556 66.5V69H144.444V66.5L144.02 65.7L143.121 69H142L143.293 64.54L142.021 62H143.162L144.444 64.88V62H145.556V64.88L146.838 62H147.979L146.707 64.54L148 69Z" fill="#F7F7F7"/>
<path d="M151 69H148V62H151V63H149.1V64.85H150.61V65.85H149.1V68H151V69Z" fill="#F7F7F7"/>
<path d="M153.302 69H152V62H153.302V64.85H154.698V62H156V69H154.698V65.85H153.302V69Z" fill="#F7F7F7"/>
<path d="M158.136 66.52L159.713 62H161V69H159.864V64.46L158.287 69H157V62H158.136V66.52Z" fill="#F7F7F7"/>
<path d="M165 69H162V62H165V63H163.1V64.85H164.61V65.85H163.1V68H165V69Z" fill="#F7F7F7"/>
</g>
</g>
</svg>
