<svg width="200" height="100" viewBox="0 0 200 100" fill="none" xmlns="http://www.w3.org/2000/svg">
<g opacity="0.8">
<path d="M109.513 58.5642H100.289V41.4369H108.398C112.068 41.4369 114.06 43.659 114.06 46.2885C114.06 47.4684 113.447 48.6745 112.509 49.587C113.893 50.297 115.079 51.8967 115.079 53.5647C115.077 56.4991 112.72 58.5642 109.513 58.5642ZM104.644 55.119H108.919C109.975 55.119 110.67 54.3601 110.67 53.4282V53.4009C110.67 52.469 109.975 51.7101 108.919 51.7101H104.644V55.119ZM104.644 48.2637H107.83C108.971 48.2637 109.65 47.5048 109.65 46.5729C109.65 45.6411 109.013 44.8822 107.83 44.8822H104.644V48.2637Z" fill="#F7F7F7"/>
<path d="M60.4665 58.5642L54.1214 49.8088L60.2756 41.4369H55.1459L50.2551 48.2967V41.4369H45.7963V58.5642H50.2551V51.536L55.1658 58.5642H60.4665Z" fill="#F7F7F7"/>
<path d="M140.584 41.4358V54.1097C140.584 54.6786 140.325 55.1156 139.777 55.1156C139.004 55.1156 138.97 54.2565 138.97 53.6887H134.787C134.787 56.4365 136.407 58.9989 139.905 58.9989C142.948 58.9989 145.043 56.5924 145.043 53.6353V45.2929H151.073V58.5642H155.531V41.4358H140.584Z" fill="#F7F7F7"/>
<path d="M80.511 41.4369L74.3392 54.0836C73.1964 56.49 70.8429 58.9977 66.835 58.9977C63.423 58.9977 60.2159 56.9838 59.6457 52.5487H63.9698C64.2894 54.3202 65.588 55.1076 67.0364 55.1076C68.2787 55.1076 69.1135 54.3919 69.3442 53.9823L61.9922 41.4369H67.1207L71.7902 49.7281L75.6413 41.4369H80.511Z" fill="#F7F7F7"/>
<path d="M37.8717 58.5642H26V41.4358H36.757C40.4266 41.4358 42.4183 43.6579 42.4183 46.2874C42.4183 47.4673 41.8059 48.6733 40.868 49.5858C42.252 50.2958 43.4381 51.8956 43.4381 53.5636C43.437 56.4991 41.08 58.5642 37.8717 58.5642ZM30.3569 55.119H37.2792C38.3354 55.119 39.0297 54.3601 39.0297 53.4282V53.4009C39.0297 52.469 38.3354 51.7101 37.2792 51.7101H30.3569V55.119ZM30.3569 48.2637H36.1903C37.3308 48.2637 38.0099 47.5048 38.0099 46.5729C38.0099 45.6411 37.3729 44.8822 36.1903 44.8822H30.3569V48.2637Z" fill="#F7F7F7"/>
<path d="M93.2878 52.1345C92.6017 53.7047 91.1275 54.8095 89.0726 54.8095C86.1711 54.8095 84.4253 52.6067 84.4253 50.0046V49.9966C84.4253 47.3933 86.1723 45.1905 89.0726 45.1905C91.1346 45.1905 92.6134 46.3044 93.296 47.8826H98.0932C97.1963 43.9606 93.8089 41 89.0726 41C83.5167 41 79.8144 45.0745 79.8144 49.9966V50.0034C79.8144 54.9255 83.5167 59 89.0726 59C93.8019 59 97.1858 56.0474 98.0897 52.1334H93.2878V52.1345Z" fill="#F7F7F7"/>
<path d="M129.54 41.4369L122.099 51.3358V41.4369H117.64V58.5642H121.708L129.151 48.6733V58.5642H133.61V41.4369H129.54Z" fill="#F7F7F7"/>
<path d="M160.571 41.4358V53.0197C160.571 54.0915 159.941 54.7264 158.815 54.7264H157.501V58.5642H159.864C162.968 58.5642 165.03 56.6641 165.03 53.1756V45.2929H169.541V58.5642H174V41.4358H160.571Z" fill="#F7F7F7"/>
</g>
</svg>
