<svg width="200" height="100" viewBox="0 0 200 100" fill="none" xmlns="http://www.w3.org/2000/svg">
<g opacity="0.8">
<path fill-rule="evenodd" clip-rule="evenodd" d="M43 61.4016H47.4128V65.7581H55.2959V61.4016H59.6536V73.6284H55.2959V68.4804H47.3564V73.5795H43V61.4016ZM60.1492 61.4016H64.4491L68.9709 66.1046L73.4375 61.4016H77.683L71.1212 68.8764V73.6284H66.7655V68.5299L60.1492 61.4016ZM78.2343 61.4016H82.5907V70.8566H89.593C90.6957 70.8566 91.4124 69.8683 91.4124 68.8275V61.4016H95.7675V71.1543C95.7675 72.6884 93.8384 73.5795 92.7351 73.5795H78.2343V61.4016ZM96.7048 61.4016H111.207C112.917 61.4016 114.295 62.341 114.295 64.249V73.6039L109.939 73.6284V66.2031C109.939 65.1652 109.553 64.5461 108.064 64.5461H101.503V73.6558H96.7048V61.4016ZM115.619 61.4016H128.3C130.837 61.4016 132.795 63.2327 132.795 64.6433V70.2626C132.767 71.2521 131.222 73.6278 129.293 73.6278H115.62V61.4016H115.619ZM120.057 70.9067H126.75C127.714 70.9067 128.459 70.2632 128.459 69.4699V65.906C128.459 65.0394 127.666 64.5216 126.647 64.5216H120.057V70.9067ZM138.171 61.3497H151.763V73.6284H146.91V70.4618H138.555V73.6284H133.649V65.6573C133.538 62.9852 136.186 61.3497 138.171 61.3497ZM138.5 65.7098V67.6877H146.882V64.5676H139.823C138.997 64.5682 138.5 65.0149 138.5 65.7098ZM152.644 61.3771H157V74H152.644V61.3771ZM100.265 26C82.1899 26 67.5361 32.4964 67.5361 40.5076C67.5361 48.5195 82.1899 55.0164 100.265 55.0164C118.339 55.0164 132.994 48.5201 132.994 40.5076C132.993 32.497 118.339 26 100.265 26ZM97.1602 29.229C100.896 28.0431 111.994 29.229 116.305 31.0881C117.685 32.2762 110.153 36.0934 101.186 37.7481C88.3644 40.0696 94.4579 31.1906 97.1602 29.229ZM75.1416 46.4193C72.3231 44.6149 66.8044 39.4511 75.9465 34.0829C80.7758 31.554 83.4774 30.9844 86.8115 30.3659C88.4221 30.0548 89.5716 30.4171 88.1341 31.5016C85.0874 34.3409 78.763 43.7343 78.1889 45.8007C77.7277 47.1956 76.8086 47.555 75.1416 46.4193ZM101.471 52.4089C96.0678 52.9238 84.0528 51.3244 83.8219 49.9324C84.0528 46.5748 102.909 40.9998 106.3 44.0971C107.739 46.5229 104.98 52.2534 101.471 52.4089ZM128.953 42.6498C127.572 45.4897 122.916 48.6919 113.144 50.8602C111.647 51.1678 111.13 50.343 112.107 49.5684C113.718 48.6913 121.48 37.0253 122.456 34.7009C123.032 33.5127 124.124 33.9792 124.814 34.4428C127.919 36.2489 130.276 39.1919 128.953 42.6498Z" fill="#F7F7F7"/>
</g>
</svg>
