<svg width="200" height="100" viewBox="0 0 200 100" fill="none" xmlns="http://www.w3.org/2000/svg">
<g opacity="0.8">
<path d="M56.9011 41.875L53.7862 47.2708L53.6387 47.2598C53.6369 47.2598 52.4645 47.2435 50.9389 47.2635C49.082 47.2889 47.4417 47.4216 46.4385 47.6325L45.8887 47.7671L49.2786 41.8768H42.062L33.125 57.875H40.3452L42.3096 54.2245C43.1998 52.592 45.1423 50.7485 47.3033 50.5267C48.0188 50.454 48.8271 50.4213 49.7028 50.4213C50.7732 50.4213 51.5743 50.4813 51.5834 50.4813L51.9711 50.4904L47.9605 57.8732H55.188L64.125 41.875H56.9011Z" fill="#F7F7F7"/>
<path d="M113.011 42.0013L102.027 50.9789L101.701 41.9399L94.875 41.875L95.1681 57.875H103.019L121.875 42.0013H113.011Z" fill="#F7F7F7"/>
<path d="M75.2233 44.3936C73.8283 45.3652 72.1952 46.6299 71.7726 47.0298L59.875 57.875H66.2894L68.2645 55.93C69.219 55.0416 71.4323 54.1025 73.6654 54.1025H73.7746C76.0667 54.1333 78.1547 54.2798 78.1744 54.2816L78.529 54.307L76.9334 57.875H82.4274L89.875 41.875H84.193C80.411 41.875 76.484 43.5143 75.2233 44.3936ZM79.8881 51.1244H73.386L76.0614 48.5424C76.1813 48.4357 78.8244 46.0908 80.0493 45.3616C80.8426 44.8894 81.6681 44.7898 82.2214 44.7898C82.5366 44.7898 82.7372 44.8224 82.7461 44.8242L83.081 44.8803L79.8881 51.1244Z" fill="#F7F7F7"/>
<path d="M136.19 42.125C132.41 42.125 128.483 43.7661 127.222 44.6436C125.827 45.6134 124.194 46.8799 123.772 47.2798L111.875 58.125H118.289L120.264 56.18C121.218 55.2916 123.432 54.3525 125.666 54.3525H125.776C128.068 54.3833 130.155 54.5298 130.175 54.5316L130.53 54.557L128.934 58.125H134.428L141.875 42.125H136.19ZM131.887 51.3744H125.385L128.06 48.7924C128.18 48.6857 130.823 46.3408 132.048 45.6116C132.841 45.1394 133.667 45.0398 134.22 45.0398C134.535 45.0398 134.738 45.0724 134.745 45.0742L135.081 45.1303L131.887 51.3744Z" fill="#F7F7F7"/>
<path d="M151.275 54.305L151.22 54.3195C151.201 54.3086 150.722 54.0577 150.587 53.545C150.507 53.2377 150.564 52.9305 150.757 52.6086C150.786 52.5577 154.029 46.6359 154.746 45.3868C155.679 43.7577 157.03 42.6705 157.881 42.125H149.553C148.915 43.2159 144.156 51.9177 143.42 53.245C142.654 54.6286 142.553 56.4541 144.055 57.4814C144.843 58.0195 147.191 58.125 148.03 58.125H163.482L166.875 54.3068H151.275V54.305Z" fill="#F7F7F7"/>
</g>
</svg>
