<svg width="44" height="44" viewBox="0 0 44 44" fill="none" xmlns="http://www.w3.org/2000/svg">
<rect width="44" height="44" rx="8" fill="#F3F3F3"/>
<path d="M24.6 12H18.4C16.1598 12 15.0397 12 14.184 12.436C13.4314 12.8195 12.8195 13.4314 12.436 14.184C12 15.0397 12 16.1598 12 18.4V24.6C12 26.8402 12 27.9603 12.436 28.816C12.8195 29.5686 13.4314 30.1805 14.184 30.564C15.0397 31 16.1598 31 18.4 31H24.6C26.8402 31 27.9603 31 28.816 30.564C29.5686 30.1805 30.1805 29.5686 30.564 28.816C31 27.9603 31 26.8402 31 24.6V18.4C31 16.1598 31 15.0397 30.564 14.184C30.1805 13.4314 29.5686 12.8195 28.816 12.436C27.9603 12 26.8402 12 24.6 12Z" stroke="#074DF3" stroke-width="1.25" stroke-linecap="round"/>
<path d="M21.6753 23.5C19.4324 23.5 17.5031 24.4753 16.6471 26.077C16.1265 27.0512 17.0707 28 18.1753 28H25.1753C26.2799 28 27.2241 27.0512 26.7035 26.077C25.8475 24.4753 23.9182 23.5 21.6753 23.5Z" stroke="#074DF3" stroke-width="1.25" stroke-linecap="round"/>
<path d="M24.1758 18C24.1758 19.3807 23.0565 20.5 21.6758 20.5C20.2951 20.5 19.1758 19.3807 19.1758 18C19.1758 16.6193 20.2951 15.5 21.6758 15.5C23.0565 15.5 24.1758 16.6193 24.1758 18Z" stroke="#074DF3" stroke-width="1.25" stroke-linecap="round"/>
</svg>
