<svg width="44" height="44" viewBox="0 0 44 44" fill="none" xmlns="http://www.w3.org/2000/svg">
<rect width="44" height="44" rx="8" fill="#F3F3F3"/>
<path d="M16.5001 19.5H14C13.4477 19.5 13 19.9477 13 20.5V25.5C13 26.0523 13.4477 26.5 14 26.5H17M30.4484 20.6906L28.2817 26.5646C27.9692 27.4118 27.1306 27.9447 26.2313 27.8628C24.2655 27.6839 20.7949 27.362 18.262 27.0948C17.2554 26.9885 16.5001 26.1368 16.5001 25.1246V20.0523C16.5001 19.5069 16.7228 18.9851 17.1167 18.6079L22.1527 13.7846C22.2223 13.7179 22.2856 13.6449 22.3509 13.5741C22.8887 12.991 23.7716 12.8287 24.4963 13.1955C25.2656 13.5845 25.6348 14.4563 25.3699 15.2588L24.094 17.9334C23.9357 18.2652 24.1777 18.6487 24.5453 18.6487H28.8126C29.3329 18.6487 29.8238 18.8816 30.144 19.2806C30.4634 19.6796 30.5765 20.2001 30.4484 20.6906Z" stroke="#074DF3" stroke-width="1.25" stroke-linecap="round"/>
</svg>
