<svg width="44" height="44" viewBox="0 0 44 44" fill="none" xmlns="http://www.w3.org/2000/svg">
<rect width="44" height="44" rx="8" fill="#F3F3F3"/>
<path d="M19.252 15.2701H12M15.9049 27.156H12M14.2314 21.7533H12M28.4311 25.0489L29.415 27.5259C29.8139 28.5307 28.6162 29.4209 27.7173 28.7877L25.585 27.2857C24.8026 26.7346 23.7425 26.7346 22.96 27.2857L20.8278 28.7877C19.9288 29.4209 18.7312 28.5307 19.1302 27.5259L20.1139 25.0489C20.4765 24.1359 20.1606 23.1006 19.3435 22.5254L17.0068 20.8798C16.1328 20.2643 16.5823 18.9253 17.6629 18.9253H20.2146C21.1885 18.9253 22.0498 18.3137 22.3426 17.4143L23.2085 14.7555C23.5366 13.7482 25.0084 13.7482 25.3366 14.7555L26.2025 17.4143C26.4953 18.3137 27.3566 18.9253 28.3305 18.9253H30.8822C31.9627 18.9253 32.4122 20.2643 31.5383 20.8798L29.2015 22.5254C28.3845 23.1006 28.0685 24.1359 28.4311 25.0489Z" stroke="#074DF3" stroke-width="1.25" stroke-linecap="round"/>
</svg>
