<?xml version="1.0" encoding="utf-8"?><svg viewBox="0 0 441 441" xmlns="http://www.w3.org/2000/svg" xmlns:xlink="http://www.w3.org/1999/xlink"><style>:root>svg{display:none}:root>svg:target{display:block}</style><svg fill="none" viewBox="0 0 17 10" id="icon_arrow_down" xmlns="http://www.w3.org/2000/svg"><path d="M16.156 1L8.577 8.579 1 1" stroke="currentColor" stroke-width="2"/></svg><svg fill="none" viewBox="0 0 14 8" id="icon_arrow_next" xmlns="http://www.w3.org/2000/svg"><path d="M13.354 4.354a.5.5 0 000-.708L10.172.464a.5.5 0 00-.708.708L12.293 4 9.464 6.828a.5.5 0 10.708.708l3.182-3.182zM0 4.5h13v-1H0v1z" fill="currentColor"/></svg><svg viewBox="0 0 441 441" id="icon_check" xmlns="http://www.w3.org/2000/svg"><path fill="currentColor" d="M32.07 179.16C54.6 77.81 153.19 12.04 255.4 30.77c84.04 15.39 149.68 86.32 157.11 171.73q5.75 66.09-29.52 122-4.22 6.69-7.02 8.59c-9.8 6.65-23.09-1.9-21.1-13.7q.48-2.89 3.92-8.2c47.11-72.78 31.26-168.96-37.9-222.12-53.46-41.1-127.58-44.95-185.28-10.53-91.08 54.34-107.9 180.36-34.05 256.92 23.42 24.28 55.13 41.72 88.74 47.54q68.06 11.8 124.99-26.97 5.46-3.72 8.09-4.42c15.19-4 23.11 16.34 10.01 25.6-61.47 43.47-141.27 48.09-206.99 11.65-73.71-40.88-112.68-127.18-94.33-209.7z"/><path fill="currentColor" d="M147.88 204.33c19.12 18.9 37.86 38.26 57.16 56.97a.53.52 41.2 00.78-.05q42.26-54.37 84.69-108.88 3.67-4.72 6.52-6.12c10.62-5.2 23.13 4.75 19.2 16.61q-.75 2.25-4.24 6.75-46.77 60.17-93.58 120.3c-7.07 9.09-16.14 7.69-23.58.27q-33.04-32.93-65.93-65.99c-14-14.06 5.52-33.15 18.98-19.86z"/></svg><svg fill="none" viewBox="0 0 9 10" id="icon_checkbox" xmlns="http://www.w3.org/2000/svg"><path d="M8.393 1.112a.692.692 0 00-.958.204l-3.88 5.98-1.893-1.75a.692.692 0 10-.94 1.018l2.485 2.298s.071.06.104.082a.692.692 0 00.958-.204l4.328-6.67a.692.692 0 00-.204-.958z" fill="currentColor"/></svg><svg fill="none" viewBox="0 0 21 21" id="icon_cross" xmlns="http://www.w3.org/2000/svg"><path d="M17.5 17.5l-14-14m14 0l-14 14" stroke="currentColor" stroke-width="2" stroke-linecap="round"/></svg><svg fill="none" viewBox="0 0 19 19" id="icon_dzen" xmlns="http://www.w3.org/2000/svg"><path fill-rule="evenodd" clip-rule="evenodd" d="M3.772 1.935C5.325.745 7.26.12 9.207.018c-.072 1.76-.045 3.556-.532 5.263a4.792 4.792 0 01-2.576 3.104c-1.916.823-4.052.762-6.097.844 0-2.837 1.491-5.61 3.77-7.294zM9.787 0c1.723.144 3.45.594 4.896 1.572a9.466 9.466 0 013.102 3.3 9.416 9.416 0 011.208 4.357c-1.892-.066-3.84-.04-5.653-.658a4.66 4.66 0 01-2.867-2.806C9.803 3.925 9.82 1.93 9.787 0zm3.896 10.332c1.73-.474 3.537-.489 5.317-.53a9.382 9.382 0 01-2.83 6.446 9.623 9.623 0 01-6.385 2.75c.046-1.965.013-4 .733-5.865.512-1.378 1.761-2.404 3.165-2.801zM0 9.805c2.151.076 4.448-.023 6.41 1.003 1.343.683 2.134 2.104 2.415 3.534.322 1.531.332 3.102.372 4.658a9.7 9.7 0 01-6.74-3.098C.956 14.245-.009 12.05 0 9.805z" fill="currentColor"/></svg><svg viewBox="0 0 205 205" id="icon_email" xmlns="http://www.w3.org/2000/svg"><path fill="currentColor" d="M14.41 63.86c-3.12-2.08-6.89-4.36-9.24-6.84-8.83-9.32-4.78-25.17 6.92-29.64q3.59-1.37 10.62-1.37Q102.17 26 181.63 26q7.55 0 11.08 1.31c13.9 5.18 16.48 24.17 4.06 32.47q-40.05 26.78-80.17 53.46c-8.67 5.77-15.98 8.03-24.92 2.09Q53 89.65 14.41 63.86z"/><path fill="currentColor" d="M205 68.79v87q-.33 2.14-.29 4.31c.15 8.08-4.74 14.96-11.82 17.67q-3.9 1.49-12.96 1.48-77.05-.01-154.1.01-9.48.01-13.47-1.5C2.6 174.08.25 165.89.25 155.8V69.23a.24.24 0 01.37-.2q40.59 27.16 81.37 54.22c12.84 8.52 25.1 10.79 38.86 1.61q41.8-27.89 84.15-56.07z"/></svg><svg fill="none" viewBox="0 0 196 36" id="icon_logo" xmlns="http://www.w3.org/2000/svg"><path fill-rule="evenodd" clip-rule="evenodd" d="M51.539 27.07H48V7.5h7.661v3.603h-4.128l.006 15.966zM63.7 7.5h8.252v3.603h-4.568v3.776h3.538v3.604h-3.538v4.99h4.862v3.603h-8.546V7.5zm23.285 10.983h-3.388v8.58h-3.683V7.5h3.683v7.38h3.388V7.5h3.539v19.57h-3.539v-8.587zM98.515 7.5h8.251v3.603h-4.568v3.776h3.539v3.604h-3.539v4.99h4.863v3.603h-8.546V7.5zm22.84 5.66c0-.887-.518-2.057-1.325-2.057h-1.647v6.35h1.67c.812 0 1.324-1.66 1.324-2.401l-.022-1.891zm-.446 7.757h-2.526v6.178H114.7V7.5h6.043a3.76 3.76 0 011.613.41 4.27 4.27 0 011.351 1.092c.383.463.683 1.008.882 1.604.199.597.293 1.233.276 1.871v3.092c.023 2.153-1.035 5.348-3.956 5.348zm15.246-8.236l-1.18 7.207h2.359l-1.179-7.207zm1.769 10.472h-3.539l-.589 3.948h-3.684L133.796 7.5h4.718l3.683 19.57h-3.683l-.59-3.917zm19.663 3.948h-9.158V7.5h3.683v15.972h3.244V7.5h3.683v15.972h1.474V30.5h-2.948l.022-3.399zm16.864-10.471l-3.683 8.408v2.057h-3.684V7.5h3.684v10.471l3.683-8.407V7.5h3.683v19.57h-3.683V16.63zm17.866-5.495h-1.77c-.639 0-1.179.971-1.179 1.546v2.23c0 .639.467 2.057 1.029 2.057h1.914l.006-5.833zm0 15.973V20.2h-1.18l-2.359 6.868H184.8l3.244-7.724s-2.226-1.144-2.226-4.632v-2.555c0-2.665 1.619-4.632 4.273-4.632H196v19.569l-3.683.013z" fill="currentColor"/><path d="M4.507 29.72a17.518 17.518 0 01-.04-23.416l7.336 7.342v8.766L4.507 29.72zm18.701 4.846v-12.77h-9.492v-7.608h20.88c1.58 7.049-1.331 16.645-11.388 20.378zm0-22.253V1.463a17.413 17.413 0 0110.852 10.85H23.208zm-10.09 0L5.782 4.971A17.486 17.486 0 0117.605.503c1.256-.027 2.51.122 3.724.44v11.37h-8.21zm-7.33 18.69l7.336-7.287h8.205v11.37a17.587 17.587 0 01-15.541-4.084z" fill="currentColor"/></svg><svg fill="none" viewBox="0 0 20 20" id="icon_map" xmlns="http://www.w3.org/2000/svg"><path d="M10 0a8.083 8.083 0 00-5.654 2.304A7.796 7.796 0 002 7.857c0 6.724 7.273 11.801 7.583 12.014a.736.736 0 00.834 0C10.727 19.658 18 14.58 18 7.857a7.796 7.796 0 00-2.346-5.553A8.083 8.083 0 0010 0zm0 5c.575 0 1.138.168 1.616.482.479.314.851.76 1.072 1.282a2.81 2.81 0 01.165 1.65 2.842 2.842 0 01-.796 1.464 2.958 2.958 0 01-3.17.62A2.898 2.898 0 017.58 9.444a2.821 2.821 0 01.362-3.608A2.936 2.936 0 0110 5z" fill="currentColor"/></svg><svg fill="none" viewBox="0 0 19 20" id="icon_phone" xmlns="http://www.w3.org/2000/svg"><path d="M5.326 2.503l1.314-.396a1.866 1.866 0 012.24 1.021l.922 2.05a1.866 1.866 0 01-.43 2.13L7.97 8.615c-.188.179-.046.874.64 2.065.688 1.19 1.22 1.661 1.465 1.588l1.837-.562a1.866 1.866 0 012.059.692l1.31 1.816a1.866 1.866 0 01-.23 2.446l-1.013.96a2.544 2.544 0 01-2.494.585c-2.122-.65-4.086-2.577-5.92-5.754C3.785 9.268 3.09 6.584 3.575 4.39a2.545 2.545 0 011.75-1.888z" fill="currentColor"/></svg><svg fill="none" viewBox="0 0 20 18" id="icon_tg" xmlns="http://www.w3.org/2000/svg"><path d="M18.65.118L.934 7.45c-1.21.52-1.202 1.245-.222 1.567l4.549 1.523 10.523-7.125c.498-.325.952-.15.579.205l-8.527 8.258h-.002l.002.001-.313 5.031c.46 0 .662-.226.92-.493l2.21-2.305 4.595 3.642c.847.501 1.456.244 1.666-.841l3.017-15.257C20.24.327 19.458-.274 18.65.118z" fill="currentColor"/></svg><svg fill="none" viewBox="0 0 27 17" id="icon_vk" xmlns="http://www.w3.org/2000/svg"><path d="M25.826 13.26c-.588-.77-1.256-1.458-1.902-2.124-.23-.237-.467-.482-.696-.726-.657-.7-.681-.963-.16-1.758.36-.548.741-1.097 1.11-1.628.335-.482.681-.98 1.013-1.48l.069-.102c.634-.956 1.29-1.945 1.64-3.137.09-.315.185-.778-.033-1.165-.217-.387-.64-.505-.938-.56a2.356 2.356 0 00-.43-.031L21.344.545h-.034c-.628 0-1.051.323-1.294.986a28.477 28.477 0 01-.776 1.95c-.578 1.279-1.312 2.75-2.373 3.978l-.045.052c-.125.147-.267.313-.371.313a.163.163 0 01-.053-.01c-.22-.093-.368-.673-.361-.943v-.01l-.003-5.231a.465.465 0 00-.003-.054c-.106-.85-.34-1.38-1.224-1.568A.337.337 0 0014.735 0h-4.32C9.712 0 9.324.312 8.96.778c-.098.125-.303.384-.202.699.103.32.438.388.547.41.54.112.845.472.931 1.101.15 1.093.17 2.259.058 3.67-.03.392-.092.695-.192.954-.024.06-.107.258-.192.258-.026 0-.104-.012-.246-.118-.335-.25-.58-.607-.866-1.048-.973-1.497-1.789-3.146-2.495-5.042C6.04.964 5.55.572 4.922.562 4.234.55 3.609.543 3.013.543c-.651 0-1.255.007-1.845.02C.662.574.313.74.13 1.054c-.184.317-.172.732.035 1.234 1.662 4.025 3.17 6.952 4.887 9.49 1.203 1.776 2.41 3.005 3.798 3.868 1.463.911 3.101 1.354 5.01 1.354.216 0 .44-.006.665-.017 1.11-.06 1.52-.496 1.573-1.673.024-.6.085-1.23.356-1.769.171-.338.33-.338.383-.338.101 0 .227.05.361.145.242.172.449.402.618.603.16.19.318.383.476.576.341.416.694.847 1.062 1.255.807.893 1.695 1.287 2.716 1.201h3.833c.38-.028.708-.257.902-.63.24-.461.235-1.05-.013-1.575-.281-.594-.646-1.101-.966-1.519z" fill="currentColor"/></svg><svg fill="none" viewBox="0 0 39 39" id="icon_wa-color" xmlns="http://www.w3.org/2000/svg"><mask id="ama" fill="#fff"><path d="M.163 19.324c-.001 3.406.892 6.731 2.592 9.662L0 39l10.294-2.687a19.479 19.479 0 009.28 2.352h.008c10.702 0 19.413-8.67 19.418-19.325.002-5.164-2.016-10.02-5.683-13.672C29.651 2.015 24.776.002 19.581 0 8.878 0 .167 8.669.163 19.324"/></mask><path d="M.163 19.324c-.001 3.406.892 6.731 2.592 9.662L0 39l10.294-2.687a19.479 19.479 0 009.28 2.352h.008c10.702 0 19.413-8.67 19.418-19.325.002-5.164-2.016-10.02-5.683-13.672C29.651 2.015 24.776.002 19.581 0 8.878 0 .167 8.669.163 19.324" fill="url(#ampaint0_linear_3387_9922)"/><path d="M2.755 28.986l2.112.58.243-.884-.46-.795-1.895 1.099zM0 39l-2.112-.581-1.006 3.659 3.671-.959L0 39zm10.294-2.687l1.044-1.926-.76-.412-.837.219.553 2.119zm9.28 2.352v2.19-2.19zM39 19.34h2.19H39zM33.317 5.668l-1.545 1.551 1.545-1.551zM19.581 0l.001-2.19V0zM-2.028 19.324A21.415 21.415 0 00.86 30.084l3.79-2.197a17.035 17.035 0 01-2.297-8.562l-4.38-.001zm2.671 9.081l-2.755 10.014 4.224 1.162 2.755-10.014-4.224-1.162zm-.09 12.714l10.294-2.687-1.106-4.238L-.553 36.88l1.106 4.238zm8.698-2.88a21.669 21.669 0 0010.322 2.616v-4.38a17.29 17.29 0 01-8.235-2.088L9.25 38.24zm10.322 2.616h.009v-4.38h-.009v4.38zm.009 0c11.902 0 21.603-9.64 21.608-21.514l-4.38-.002c-.004 9.437-7.726 17.136-17.228 17.136v4.38zM41.19 19.34c.002-5.747-2.249-11.16-6.327-15.224L31.772 7.22c3.255 3.243 5.04 7.54 5.038 12.12l4.38.001zM34.863 4.116C30.786.053 25.354-2.188 19.583-2.19l-.003 4.38c4.618.002 8.937 1.787 12.192 5.03l3.091-3.104zM19.581-2.19C7.678-2.19-2.023 7.45-2.027 19.323l4.38.002C2.357 9.888 10.078 2.19 19.58 2.19v-4.38z" fill="#EAEAEA" mask="url(#ama)"/><path d="M14.543 11.633c-.372-.831-.763-.848-1.117-.863-.29-.012-.62-.011-.951-.011-.331 0-.87.125-1.324.625-.455.5-1.737 1.708-1.737 4.165s1.779 4.832 2.027 5.166c.248.333 3.433 5.537 8.478 7.54 4.192 1.663 5.046 1.332 5.956 1.248.91-.083 2.936-1.207 3.35-2.374.413-1.166.413-2.166.29-2.374-.125-.208-.456-.333-.952-.583-.497-.25-2.937-1.458-3.392-1.625-.455-.167-.785-.25-1.116.25-.331.5-1.282 1.625-1.572 1.958-.289.334-.579.375-1.075.125-.497-.25-2.095-.777-3.991-2.479-1.476-1.323-2.472-2.958-2.761-3.459-.29-.499-.031-.77.217-1.018.224-.224.497-.584.745-.875.248-.292.33-.5.496-.833.166-.334.083-.625-.041-.875-.125-.25-1.09-2.72-1.53-3.707" fill="#fff"/><defs><linearGradient id="ampaint0_linear_3387_9922" x1="19.5" y1="39" x2="19.5" y2="0" gradientUnits="userSpaceOnUse"><stop stop-color="#20B038"/><stop offset="1" stop-color="#60D66A"/></linearGradient></defs></svg><svg fill="none" viewBox="0 0 27 18" id="icon_yt" xmlns="http://www.w3.org/2000/svg"><path fill-rule="evenodd" clip-rule="evenodd" d="M13.562 0c.766.001 8.486.027 10.486.536C25.21.83 26.124 1.7 26.436 2.81c.541 1.926.563 5.853.564 6.164v.04c0 .311-.023 4.25-.564 6.176-.312 1.11-1.226 1.98-2.388 2.274-2.063.525-10.213.536-10.538.536h-.02c-.325 0-8.476-.01-10.54-.537C1.789 17.17.873 16.302.563 15.19.023 13.264 0 9.326 0 9.014v-.04c0-.31.022-4.237.563-6.163C.873 1.7 1.789.83 2.95.536 4.95.026 12.67.001 13.438 0h.123zm-2.824 5.2v7.6l7.058-3.806-7.058-3.795z" fill="currentColor"/></svg><svg fill="none" viewBox="0 0 200 100" id="logo_audi" xmlns="http://www.w3.org/2000/svg"><g opacity=".8" fill="#F7F7F7"><path d="M63.5 68.031c-10.203 0-18.5-8.297-18.5-18.5s8.297-18.5 18.5-18.5S82 39.328 82 49.531s-8.297 18.5-18.5 18.5zm0-32.375c-7.65 0-13.875 6.226-13.875 13.875 0 7.65 6.225 13.875 13.875 13.875s13.875-6.225 13.875-13.875S71.15 35.656 63.5 35.656z"/><path d="M86.5 68.781c-10.203 0-18.5-8.297-18.5-18.5s8.297-18.5 18.5-18.5 18.5 8.297 18.5 18.5-8.297 18.5-18.5 18.5zm0-32.375c-7.65 0-13.875 6.226-13.875 13.875 0 7.65 6.225 13.875 13.875 13.875s13.875-6.225 13.875-13.875S94.15 36.406 86.5 36.406z"/><path d="M112.5 68.906c-10.203 0-18.5-8.297-18.5-18.5s8.297-18.5 18.5-18.5 18.5 8.297 18.5 18.5-8.297 18.5-18.5 18.5zm0-32.375c-7.65 0-13.875 6.226-13.875 13.875 0 7.65 6.225 13.875 13.875 13.875s13.875-6.225 13.875-13.875-6.225-13.875-13.875-13.875z"/><path d="M136.5 68.969c-10.203 0-18.5-8.297-18.5-18.5s8.297-18.5 18.5-18.5 18.5 8.297 18.5 18.5-8.297 18.5-18.5 18.5zm0-32.375c-7.65 0-13.875 6.225-13.875 13.875s6.225 13.875 13.875 13.875 13.875-6.225 13.875-13.875-6.225-13.875-13.875-13.875z"/></g></svg><svg fill="none" viewBox="0 0 200 100" id="logo_bogdashamilk" xmlns="http://www.w3.org/2000/svg"><g opacity=".8" fill="#F7F7F7"><path d="M125.631 66.638c-.42.005-.838.026-1.26.033l-3.346.059c-1.116.019-2.231.036-3.347.053-2.805.04-5.611.115-8.416.085-2.212-.023-4.421-.186-6.632-.283-.939-.04-1.878-.056-2.816-.11-2.452-.14-4.901-.316-7.354-.437-2.031-.1-4.065-.18-6.098-.202-3.05-.033-6.102.022-9.153-.016-3.576-.044-7.152-.15-10.727-.226a347.98 347.98 0 00-4.125-.068 4.397 4.397 0 00-.843.087c-1.598.296-3.212.388-4.838.417-2.61.045-5.22.152-7.829.207-.705.015-1.412-.099-2.118-.092-1.17.012-2.338.073-3.507.115-.202.008-.403.021-.604.032-.135.008-.356.036-.474-.04a.3.3 0 01-.039-.03.31.31 0 01-.101-.154c-.043-.196.3-.284.449-.302 1.7-.21 3.406-.304 5.121-.234.745.032 1.492.09 2.235.07 2.493-.065 4.985-.194 7.48-.232 1.59-.024 3.143-.334 4.718-.445 1.342-.095 2.697-.028 4.046-.015.965.01 1.93.058 2.895.074 2.02.032 4.04.058 6.061.08 3.397.038 6.795.053 10.19.111 2.432.042 4.864.106 7.293.22 2.775.13 5.546.343 8.321.488 1.811.096 3.631.08 5.439.215 3.177.237 6.356.148 9.534.115 5.92-.062 11.84-.17 17.76-.248 3.951-.052 7.903-.06 11.853-.136 2.224-.042 4.448-.173 6.671-.281 1.361-.066 2.72-.16 4.079-.25.449-.03.896-.086 1.342-.137.218-.025.438-.037.498.218.064.278-.154.377-.381.412-.356.054-.715.094-1.074.116-2.029.117-4.059.206-6.085.343-4.873.33-9.752.166-14.629.236-.725.01-1.45.024-2.176.04a1336.09 1336.09 0 00-5.859.16c-.14.004-.279.009-.419.012-.123.004-.233-.012-.354-.017l-.739-.034c-.214-.01-.428-.011-.642-.009zM146.187 42.238a.212.212 0 00-.141.118c-.031.065-.034.138-.037.21l-.023.714c-.008.231-.1.429-.153.653a55.483 55.483 0 01-.6 2.329 53.77 53.77 0 01-1.451 4.402c-.081.215-.156.436-.249.646-.066.145-.211.36-.103.517.147.214.826.058 1.047.044l1.304-.086.942-.06.699-.045c.203-.013.474.035.653-.057a.337.337 0 00.094-.07c.148-.164.048-.478.01-.663l-.164-.796-1.371-6.606-.128-.615c-.034-.165-.034-.411-.139-.553a.199.199 0 00-.157-.085.148.148 0 00-.033.003zm7.805 18.453c-.02.227-.079.45-.199.663-.248.434-.826.724-1.34.764-.913.07-1.641-.36-1.924-1.188a22.574 22.574 0 01-.549-1.902 30.046 30.046 0 01-.623-3.307c-.028-.217.004-.675-.232-.805-.192-.106-.555-.03-.765-.016l-.888.053c-.589.033-1.179.064-1.77.081a16.205 16.205 0 01-1.879-.06 24.99 24.99 0 01-.956-.104c-.238-.03-.538-.152-.746.008-.166.127-.128.312-.19.48-.086.232-.179.46-.269.688l-.523 1.344c-.35.895-.7 1.791-1.053 2.686a7.505 7.505 0 01-.453.958c-.199.348-.525.562-.95.643-.318.06-.727.012-.992-.176-.197-.14-.486-.392-.6-.6a.848.848 0 01-.089-.373c-.018-.413.101-.82.22-1.217.426-1.425.984-2.815 1.499-4.216.773-2.098 1.544-4.195 2.311-6.294a35.52 35.52 0 001.584-5.954 79.573 79.573 0 011.269-5.92 8.834 8.834 0 01.582-1.542c.318-.675.886-1.102 1.682-1.233.788-.13 1.582.213 1.969.86.119.2.21.42.273.64.738 2.58 1.354 5.186 1.901 7.807.441 2.11.893 4.217 1.378 6.318.139.604.411 1.183.627 1.772.085.234.177.466.28.694.213.47.298.964.358 1.466.119.986.183 2.002.375 2.976l.593 3.016c.065.327.117.663.089.99zM58.965 41.7a84.53 84.53 0 00.11 3.755c.03.598.11 1.195.18 1.79.083.707.185 1.411.274 2.117.11.885.216 1.77.324 2.655.13 1.072.273 2.142.387 3.216.064.608.154 1.213.271 1.812.06.304.127.608.202.909.056.223.081.616.271.767a.758.758 0 00.22.112c.06.021.122.04.185.032.222-.031.291-.336.384-.501.141-.251.254-.518.302-.804.135-.815.183-1.636.203-2.46.018-.746.017-1.492.048-2.238.058-1.345.134-2.69.201-4.034.04-.797.075-1.594.12-2.39.067-1.225.159-2.447.09-3.676-.07-1.259-.111-2.519-.166-3.779-.015-.351-.028-.702-.048-1.053-.031-.563-.223-1.032-.749-1.32-.258-.143-.49-.157-.745.015a2.35 2.35 0 01-1.073.403c-.11.013-.219.045-.326.07-.183.043-.316.155-.356.335-.096.426-.23.852-.25 1.282l-.01.2a58.847 58.847 0 00-.049 2.785zm1.964 20.41a3.321 3.321 0 01-1.31-.411 3.24 3.24 0 01-1.286-1.324c-.298-.576-.46-1.197-.593-1.828a49.419 49.419 0 01-.677-4.212c-.173-1.42-.341-2.842-.52-4.262-.097-.773-.223-1.544-.313-2.318-.079-.69-.158-1.382-.178-2.075a125.81 125.81 0 01-.05-4.295c.006-.874.021-1.75.138-2.62.096-.714.22-1.423.43-2.112.348-1.143 1.099-1.936 2.172-2.442a3.35 3.35 0 00.588-.358 3.447 3.447 0 012.096-.728c.394-.002.792.037 1.166.16.582.192.935.65 1.442.963.807.5 1.273 1.239 1.461 2.149.117.57.191 1.149.255 1.727.209 1.912.258 3.832.25 5.753-.005.711-.064 1.422-.102 2.133-.043.804-.093 1.608-.136 2.413-.083 1.54-.168 3.082-.243 4.623-.033.702-.046 1.406-.062 2.109-.018.746-.037 1.491-.161 2.229a8.272 8.272 0 01-1.392 3.398c-.68.978-1.846 1.437-2.975 1.327zM45.32 54.139c-.086.074-.04.24-.04.354 0 1.08 0 2.16-.005 3.24 0 .14.074.179.212.204 1.02.184 1.901-.282 2.185-1.181.268-.844-.014-1.588-.569-2.267-.175-.215-.438-.323-.734-.367-.306-.045-.612-.02-.919-.022-.061 0-.104.015-.13.039zM42.125 38.82c.021-.828.125-1.654.199-2.481.03-.34.074-.678.126-1.014.08-.513.399-.856.966-.972.477-.099.959-.189 1.445-.239 1.744-.178 3.496-.099 5.246-.089.253.001.517.057.757.135.77.25 1.207.899 1.125 1.627-.081.72-.695 1.292-1.503 1.395a4.501 4.501 0 01-.553.036c-1.446.002-2.89-.001-4.336-.002-.148 0-.282-.012-.346.14-.072.168.002.445-.002.636l-.006.518c-.006.444-.009.888-.012 1.332a832.803 832.803 0 00-.007 9.913c0 .133-.003.266-.004.399 0 .167-.081.445-.003.595.121.23.727.133.953.118a4.577 4.577 0 011.43.115 3.886 3.886 0 011.654.88c1.002.894 1.69 1.951 1.944 3.208.202.997.034 1.962-.361 2.907-.705 1.68-2.084 2.602-4.017 2.928-.849.144-1.696.098-2.546.025-.239-.02-.48-.035-.715-.077-.642-.116-1.245-.505-1.465-1.074-.107-.275-.06-.538-.075-.82-.013-.259-.02-.519-.02-.78v-6.482c0-2.162.075-10.852.126-12.877zM129.157 58.737c.183.16.586.08.807.08.284 0 .904.123 1.083-.131.136-.191.084-.425.085-.64l.003-.835.008-1.67.013-3.34c.009-2.226.018-4.452.021-6.678l.002-2.205c.001-1.077-.091-2.155-.15-3.232-.07-1.283-.167-2.566-.115-3.852.015-.367.051-.735.102-1.099.058-.414.31-.712.731-.875a4.002 4.002 0 011.534-.26c.311.007.522.169.682.395.252.354.357.754.402 1.164.049.452.081.905.099 1.358.05 1.19.109 2.38.125 3.57.037 2.715.063 5.43.07 8.145.002.924-.061 1.848-.104 2.772a21.422 21.422 0 00.069 3.234c.052.494.084.99.122 1.485.083 1.076.167 2.152.243 3.229.016.221.013.446-.001.667-.036.555-.311.977-.855 1.242a6.598 6.598 0 01-1.662.535c-.744.143-1.499.21-2.259.203a425.532 425.532 0 01-4.073-.064 813.427 813.427 0 01-4.072-.092c-.533-.014-1.067-.031-1.589-.149a3.024 3.024 0 01-.427-.124c-.62-.238-.972-.67-1.007-1.28a34.323 34.323 0 01-.044-2.054c.017-4.677.036-9.354.065-14.03.014-2.201.054-4.403.076-6.604.006-.644.073-1.281.191-1.915.046-.247.129-.484.285-.693.333-.445.79-.679 1.386-.623.581.054.993.35 1.208.84.098.228.156.479.177.723.057.648.12 1.298.119 1.947-.009 5.148-.032 10.296-.05 15.444-.004 1.019-.024 2.039-.003 3.058.01.475.032.95.057 1.425.012.233.027.465.039.696.01.193-.052.375.053.556.197.342.79.026 1.099-.055.475-.124.95-.25 1.424-.376.323-.086.424-.203.437-.514.038-.882.084-1.763.104-2.645.07-3.203.13-6.405.193-9.608.035-1.756.072-3.511.105-5.267.019-1.037.1-2.07.327-3.088.014-.067.03-.134.05-.2.169-.537.542-.823 1.118-.855.587-.034 1.105.248 1.307.75.116.288.202.59.252.892.066.405.114.817.118 1.226.048 4.437.081 8.873.127 13.31.01.978-.076 1.95-.154 2.923-.04.512-.029 1.027-.034 1.541-.002.266-.003.532-.002.798 0 .227-.088.57.027.775.015.028.034.05.056.07zM85.579 58.666c.095.108.255.1.417.094.286-.01.573-.019.859-.04.668-.05 1.339-.092 2.003-.177.948-.12 1.892-.276 2.838-.414.163-.024.674.011.754-.163a.253.253 0 00.013-.117c-.028-.566-.215-1.168-.336-1.725a25.827 25.827 0 00-.441-1.754c-.64-2.182-1.021-4.41-1.251-6.665-.084-.82-.169-1.642-.314-2.453-.082-.46-.183-.919-.288-1.375l-.16-.685c-.041-.172-.054-.39-.118-.553-.026-.066-.09-.123-.162-.12-.07.004-.126.061-.147.126-.042.121-.03.273-.063.402l-.116.465-.241.964-.483 1.927c-.555 2.214-1.11 4.43-1.656 6.647-.389 1.575-.843 3.137-1.078 4.747-.034.23-.161.497-.1.73.016.06.04.106.07.139zm-2.783-.018a.18.18 0 00.026-.084c.015-.143-.027-.28-.048-.42-.02-.126.004-.217.013-.337.024-.302-.02-.617-.006-.92a9.497 9.497 0 01.25-1.76c.602-2.536 1.232-5.066 1.854-7.598.41-1.67.846-3.337 1.23-5.013.24-1.043.394-2.105.612-3.153.27-1.297.564-2.59.855-3.882.04-.179.109-.354.185-.52.529-1.154 1.855-1.156 2.577-.598.359.278.584.64.7 1.067.188.694.353 1.396.548 2.089.33 1.174.658 2.35 1.02 3.516a33.374 33.374 0 011.22 5.548c.142 1.07.235 2.147.4 3.213.135.865.319 1.726.528 2.578.35 1.433.691 2.867.918 4.325.059.381.097.766.157 1.147.065.406.204.522.614.562.356.035.712.073 1.066.124.904.128 1.534.876 1.482 1.748a1.504 1.504 0 01-1.55 1.436c-.517-.011-1.035-.072-1.55-.133a23.206 23.206 0 00-3.216-.145c-.952.02-1.89.166-2.825.322-1.323.22-2.652.27-3.988.225-1.342-.046-2.685-.1-4.027-.169a3.593 3.593 0 01-.837-.163c-.587-.176-1.032-.706-1.003-1.432.029-.698.479-1.224 1.168-1.355.484-.152 1.029-.056 1.516-.164.038-.008.079-.018.105-.047a.069.069 0 01.006-.007zM109.464 49.767c.006-.008.013-.017.018-.026a.295.295 0 00.02-.161c-.026-.413-.16-.832-.248-1.238-.473-2.172-.946-4.345-1.421-6.518-.02-.09.014-.228-.152-.23-.167-.001-.137.136-.156.227l-1.395 6.54-.166.784c-.033.156-.188.48-.096.625.108.17.537.071.717.071h1.883c.266 0 .587.048.848.003a.254.254 0 00.148-.077zm.529 2.983c-.179-.12-.439-.09-.65-.095a45.432 45.432 0 00-.767-.014c-.361-.005-.722 0-1.083-.012l-1.281-.037c-.293-.009-.779-.125-1.038.041-.127.081-.119.29-.155.415-.605 2.149-1.234 4.293-1.854 6.439-.117.403-.249.803-.386 1.202a1.944 1.944 0 01-.213.442c-.362.547-.999.75-1.653.538-.396-.127-.644-.382-.759-.753-.178-.578-.214-1.157-.044-1.745.239-.824.484-1.647.694-2.478.435-1.73.864-3.46 1.267-5.196.507-2.178.995-4.36 1.473-6.543.265-1.204.483-2.417.744-3.623a32.687 32.687 0 011.934-6.057c.088-.205.193-.41.33-.589.416-.55 1.003-.77 1.71-.656.688.112 1.148.501 1.323 1.13.194.693.342 1.398.518 2.096.473 1.878.946 3.756 1.429 5.634a77.244 77.244 0 011.092 5.02c.433 2.313.866 4.626 1.324 6.935.296 1.486.639 2.963.961 4.444.098.448.114.9.062 1.352-.081.7-.537 1.105-1.232 1.294-.886.241-1.949-.183-2.151-1.21-.044-.226-.103-.45-.151-.676-.289-1.348-.591-2.694-.86-4.046-.169-.856-.288-1.72-.43-2.581-.022-.133-.063-.274-.067-.407-.003-.1.047-.157-.054-.24a.572.572 0 00-.033-.024zM76.133 37.422a.583.583 0 00-.152.193c-.145.28-.117.626-.164.93-.262 1.69-.535 3.38-.785 5.072-.14.95-.27 1.902-.355 2.857-.233 2.623-.153 5.254-.164 7.88-.003.857-.02 1.713.002 2.569.028 1.037.092 2.075.14 3.113.02.41-.057.803-.28 1.155-.362.572-.895.865-1.592.8-.754-.07-1.328-.548-1.507-1.242-.087-.338-.123-.688-.165-1.034a17.69 17.69 0 01-.11-2.222c.006-1.982-.007-3.965.01-5.947.012-1.24.033-2.48.111-3.718.07-1.113.209-2.224.343-3.333.135-1.109.297-2.215.459-3.32.143-.985.3-1.968.457-2.95.13-.811.269-1.62.405-2.429.011-.069.031-.136.044-.205.145-.767.664-1.344 1.743-1.382.561-.02 1.123-.029 1.684-.047 1.556-.051 3.112-.104 4.67-.158.317-.011.633-.004.937.098a1.61 1.61 0 01.742 2.598 1.352 1.352 0 01-.931.484c-.668.052-1.336.109-2.005.13-.805.025-1.611.022-2.417.018-.38-.002-.833-.142-1.12.09z"/></g></svg><svg fill="none" viewBox="0 0 200 100" id="logo_haval" xmlns="http://www.w3.org/2000/svg"><g opacity=".8" fill="#F7F7F7"><path d="M56.901 41.875l-3.115 5.396-.147-.011c-.002 0-1.175-.017-2.7.004-1.857.025-3.497.158-4.5.368l-.55.135 3.39-5.89h-7.217l-8.937 15.998h7.22l1.965-3.65c.89-1.633 2.832-3.477 4.993-3.698a24.096 24.096 0 012.4-.106c1.07 0 1.871.06 1.88.06l.388.01-4.01 7.382h7.227l8.937-15.998h-7.224zM113.011 42.001l-10.984 8.978-.326-9.04-6.826-.064.293 16h7.851l18.856-15.874h-8.864zM75.223 44.394c-1.395.971-3.028 2.236-3.45 2.636L59.875 57.875h6.414l1.975-1.945c.955-.888 3.168-1.828 5.401-1.828h.11c2.292.031 4.38.178 4.4.18l.354.025-1.596 3.568h5.494l7.448-16h-5.682c-3.782 0-7.709 1.64-8.97 2.519zm4.665 6.73h-6.502l2.675-2.582c.12-.106 2.763-2.451 3.988-3.18.794-.473 1.62-.572 2.172-.572.316 0 .516.032.525.034l.335.056-3.193 6.244zM136.19 42.125c-3.78 0-7.707 1.641-8.968 2.519-1.395.97-3.028 2.236-3.45 2.636l-11.897 10.845h6.414l1.975-1.945c.954-.888 3.168-1.828 5.402-1.828h.11c2.292.031 4.379.178 4.399.18l.355.025-1.596 3.568h5.494l7.447-16h-5.685zm-4.303 9.25h-6.502l2.675-2.583c.12-.106 2.763-2.451 3.988-3.18.793-.473 1.619-.572 2.172-.572.315 0 .518.032.525.034l.336.056-3.194 6.244zM151.275 54.305l-.055.014c-.019-.01-.498-.261-.633-.774-.08-.307-.023-.614.17-.936.029-.051 3.272-5.973 3.989-7.222.933-1.63 2.284-2.717 3.135-3.262h-8.328c-.638 1.09-5.397 9.793-6.133 11.12-.766 1.384-.867 3.21.635 4.236.788.538 3.136.644 3.975.644h15.452l3.393-3.818h-15.6v-.002z"/></g></svg><svg fill="none" viewBox="0 0 200 100" id="logo_hyundai" xmlns="http://www.w3.org/2000/svg"><path fill-rule="evenodd" clip-rule="evenodd" d="M43 61.402h4.413v4.356h7.883v-4.356h4.358v12.226h-4.358V68.48h-7.94v5.1H43V61.401zm17.15 0h4.3l4.52 4.703 4.468-4.703h4.245l-6.562 7.474v4.752h-4.355V68.53l-6.617-7.128zm18.084 0h4.357v9.455h7.002c1.103 0 1.82-.989 1.82-2.03v-7.425h4.355v9.752c0 1.534-1.93 2.425-3.033 2.425h-14.5V61.402zm18.47 0h14.503c1.71 0 3.088.939 3.088 2.847v9.355l-4.356.024v-7.425c0-1.038-.386-1.657-1.875-1.657h-6.561v9.11h-4.798V61.402zm18.915 0H128.3c2.537 0 4.495 1.83 4.495 3.241v5.62c-.028.99-1.573 3.365-3.502 3.365H115.62V61.402h-.001zm4.438 9.505h6.693c.964 0 1.709-.644 1.709-1.437v-3.564c0-.867-.793-1.384-1.812-1.384h-6.59v6.385zm18.114-9.557h13.592v12.278h-4.853v-3.166h-8.355v3.166h-4.906v-7.97c-.111-2.673 2.537-4.308 4.522-4.308zm.329 4.36v1.978h8.382v-3.12h-7.059c-.826 0-1.323.447-1.323 1.142zm14.144-4.333H157V74h-4.356V61.377zM100.265 26c-18.075 0-32.729 6.496-32.729 14.508 0 8.011 14.654 14.508 32.729 14.508 18.074 0 32.729-6.496 32.729-14.508C132.993 32.497 118.339 26 100.265 26zm-3.105 3.229c3.736-1.186 14.834 0 19.145 1.86 1.38 1.187-6.152 5.004-15.119 6.66-12.822 2.32-6.728-6.558-4.026-8.52zm-22.018 17.19c-2.819-1.804-8.338-6.968.805-12.336 4.829-2.529 7.53-3.099 10.864-3.717 1.611-.311 2.76.051 1.323 1.136-3.047 2.839-9.371 12.232-9.945 14.299-.461 1.395-1.38 1.754-3.047.618zm26.329 5.99c-5.403.515-17.418-1.085-17.65-2.477.232-3.357 19.088-8.932 22.479-5.835 1.439 2.426-1.32 8.156-4.829 8.312zm27.482-9.76c-1.381 2.84-6.037 6.043-15.809 8.211-1.497.308-2.014-.517-1.037-1.292 1.611-.877 9.373-12.543 10.349-14.867.576-1.188 1.668-.722 2.358-.258 3.105 1.806 5.462 4.749 4.139 8.207z" fill="#F7F7F7" opacity=".8"/></svg><svg fill="none" viewBox="0 0 200 100" id="logo_jeep" xmlns="http://www.w3.org/2000/svg"><path d="M131.761 51.221c-.077 4.016.844 6.142 4.361 6.142 3.51 0 4.014-3.623 4.014-6.38 0-2.758-.666-5.436-4.354-5.436-2.263 0-3.934 1.655-4.021 5.674zM124.647 68V40.821h7.201v1.103c0 1.47.63.864 1.138.29.085-.095 1.69-1.944 5.304-1.944 3.604 0 9.21 2.362 9.21 10.714 0 6.46-3.344 11.185-9.121 11.185-3.182 0-5.023-1.18-5.443-1.655-.422-.47-1.007-.552-1.007 0V68h-7.282zm-55.66-36h7.784v19.221c0 3.307-1.508 10.241-12.303 10.241C53.67 61.462 52.5 55 52.5 51.378v-3.545h7.533v3.465c0 2.127 1.507 4.095 4.351 4.095 2.845 0 4.603-1.496 4.603-4.015V32zm24.064 16.306c0-1.972-1.17-3.862-3.848-3.862-2.594 0-3.516 1.731-3.516 3.862h7.364zm-4.599-8.273c6.114 0 11.468 2.205 11.468 12.368H85.442c0 3.23 1.421 4.57 3.932 4.57s3.348-1.893 3.348-1.893h7.116c0 2.916-4.27 6.855-10.715 6.776-7.364 0-10.963-5.12-10.963-10.398 0-5.28 3.178-11.423 10.293-11.423zm27.744 8.273c0-1.972-1.171-3.862-3.849-3.862-2.593 0-3.517 1.731-3.517 3.862h7.366zm-4.598-8.273c6.112 0 11.465 2.205 11.465 12.368h-14.477c0 3.23 1.422 4.57 3.935 4.57 2.509 0 3.346-1.893 3.346-1.893h7.117c0 2.916-4.27 6.855-10.714 6.776-7.367 0-10.967-5.12-10.967-10.398 0-5.28 3.182-11.423 10.295-11.423zm31.135 24.709c0-1.077.931-1.951 2.079-1.951 1.144 0 2.073.874 2.073 1.95 0 1.075-.929 1.955-2.073 1.955-1.147 0-2.079-.88-2.079-1.954zm-.239 0c0 1.204 1.036 2.182 2.318 2.182 1.274 0 2.316-.978 2.316-2.182 0-1.205-1.042-2.182-2.316-2.182-1.282 0-2.318.977-2.318 2.182z" fill="#F7F7F7" opacity=".8"/></svg><svg fill="none" viewBox="0 0 200 100" id="logo_mazda" xmlns="http://www.w3.org/2000/svg"><path fill-rule="evenodd" clip-rule="evenodd" d="M100 61.05c2.907.864 2.774-9.63 13.608-12.1 8.059-1.851 10.569-2.839 11.626-5.185l1.189-2.345s-.529 10.494-2.246 15.802c-1.718 5.185-5.153 13.457-24.177 13.704-19.156-.124-22.591-8.395-24.177-13.704-1.717-5.308-2.246-15.802-2.246-15.802l1.19 2.345c1.188 2.346 3.566 3.21 11.625 5.186C97.226 51.42 97.094 61.914 100 61.049zm-8.984 13.333c2.642.493 5.813.617 8.984.617 3.171 0 6.341-.247 8.984-.617 5.416-.741 10.305-2.099 13.343-4.198 7.134-4.691 10.173-12.716 10.173-21.358 0-8.642-5.02-19.26-15.986-22.099-2.378-.617-4.888-.987-7.398-1.234 0 0-1.057-.124-2.642-.247-2.246-.123-4.492-.247-6.474-.247-1.982 0-4.228 0-6.474.247-1.717.123-2.642.247-2.642.247-2.51.247-5.152.617-7.398 1.234C72.652 29.444 67.5 40.185 67.5 48.828c0 8.641 3.17 16.542 10.173 21.357 3.038 1.975 7.927 3.457 13.343 4.198zm8.06-45.68h1.849c2.774 0 8.323.371 14.268 2.346 8.455 2.84 7.002 6.544 7.002 6.544s-14.268 5.185-18.496 9.753c-2.642 2.84-3.435 4.444-3.699 5.308-.264-.864-1.057-2.469-3.7-5.308-4.227-4.568-18.495-9.753-18.495-9.753s-1.453-3.704 7.002-6.544c5.945-1.975 11.494-2.345 14.268-2.345z" fill="#F7F7F7" opacity=".8"/></svg><svg fill="none" viewBox="0 0 200 100" id="logo_partnerdevice" xmlns="http://www.w3.org/2000/svg"><g opacity=".8"><mask id="aua" style="mask-type:luminance" maskUnits="userSpaceOnUse" x="31" y="30" width="138" height="40"><path d="M168.5 30.5h-137v39h137v-39z" fill="#fff"/></mask><g mask="url(#aua)" fill="#F7F7F7"><path d="M62.234 50.396l-2.886 2.914a.718.718 0 01-1.008 0l-2.913-2.941a.735.735 0 010-1.017l2.886-2.914a.718.718 0 011.008 0l2.913 2.941a.735.735 0 010 1.017zM50.77 37.504l-2.123 2.144c-.409.44-1.117.44-1.525 0l-2.124-2.144c-.408-.44-.408-1.127 0-1.54l2.124-2.143c.435-.44 1.116-.44 1.525 0l2.123 2.144c.436.412.436 1.1 0 1.54zm14.486 7.477l-13.07-13.194C51.07 30.632 49.519 30 47.912 30h-.054a6.06 6.06 0 00-4.248 1.76L38 37.311l9.64 9.73 1.197-1.209a.959.959 0 01.354-.22l3.513-1.182c.163-.055.354-.055.517-.027l3.24.88c.654.192.872 1.017.382 1.484L55.78 47.84c-.218.22-.545.302-.844.22l-1.798-.385a1.306 1.306 0 00-.462 0l-1.525.467a.746.746 0 00-.409.22l-.898.907L59.484 59l.898-.907a.758.758 0 00.218-.412l.409-1.54a1.346 1.346 0 000-.467l-.382-1.814a.889.889 0 01.218-.852l1.062-1.072c.49-.495 1.307-.275 1.47.384l.654 2.392 1.144-1.127a6.121 6.121 0 001.824-4.37 5.867 5.867 0 00-1.743-4.234zM51.106 62.987l-2.134 2.132c-.438.437-1.122.437-1.532 0l-2.134-2.132c-.438-.438-.438-1.12 0-1.53l2.134-2.133c.437-.437 1.121-.437 1.532 0l2.134 2.132c.437.41.437 1.093 0 1.53zm-14.801-10.36l-2.928-2.924a.726.726 0 010-1.011l2.9-2.898a.727.727 0 011.013 0l2.927 2.925a.726.726 0 010 1.011l-2.9 2.898c-.301.3-.739.3-1.012 0zm11.873-.765l-1.34 1.34a.963.963 0 01-.356.218l-3.53 1.176a1.119 1.119 0 01-.519.027l-3.256-.875c-.656-.191-.875-1.01-.383-1.476l1.067-1.066a.88.88 0 01.849-.218l1.805.382c.137.028.301.028.465 0l1.532-.41c.164-.027.301-.109.41-.218l1.04-1.039L36.277 40l-1.258 1.257c-.027.055-.027.082-.055.137l-.41 1.53a1.32 1.32 0 000 .465l.383 1.804c.082.3 0 .629-.22.848l-1.066 1.066c-.493.492-1.313.273-1.477-.383l-.548-2.05-.82.82A5.95 5.95 0 0029 49.785v.028c0 1.612.63 3.17 1.778 4.29l13.132 13.12A6.047 6.047 0 0048.206 69h.027c1.614 0 3.174-.629 4.295-1.777L58 61.703l-9.822-9.84zM82.478 53H79V30h11v23h-3.532V33.29h-3.99V53zM95.506 45.696h3.587l-1.78-11.626-1.807 11.626zM104 53h-3.759l-.632-4.182h-4.563L94.415 53H91l3.788-23h5.453L104 53zM109.724 33.29v7.778h1.747c1.175 0 1.834-.53 1.834-2.175v-3.429c0-1.645-.631-2.174-1.834-2.174h-1.747zM117 35.687v2.983c0 3.68-1.833 5.688-5.529 5.688h-1.747V53H106V30h5.471c3.724 0 5.529 2.007 5.529 5.687zM117 30h11v3.29h-3.731V53h-3.566V33.29H117V30zM133.497 53H130V30h3.497v9.87h3.952V30H141v23h-3.551v-9.87h-3.952V53zM146.673 39.702h5.027v3.262h-5.027v6.746H153V53h-10V30h10v3.29h-6.327v6.412zM158.695 33.29v7.778h1.747c1.175 0 1.834-.53 1.834-2.175v-3.429c0-1.645-.63-2.174-1.834-2.174h-1.747zM166 35.687v2.983c0 3.68-1.834 5.688-5.529 5.688h-1.748V53H155V30h5.471c3.695 0 5.529 2.007 5.529 5.687zM166 57H79v1h87v-1zM82 69h-1.27l-1.017-3.08-.497.88V69H78v-7h1.216v3.01L80.74 62h1.238l-1.448 2.57L82 69zM82 67.289V63.71c0-.544.129-.966.386-1.264.258-.298.629-.447 1.114-.447.485 0 .856.15 1.114.447.257.298.386.72.386 1.264v3.578c0 .544-.129.966-.386 1.264-.258.298-.629.447-1.114.447-.485 0-.856-.15-1.114-.447-.257-.298-.386-.72-.386-1.264zm2.012.068v-3.714c0-.447-.17-.67-.512-.67-.341 0-.512.223-.512.67v3.714c0 .447.17.67.512.67.341 0 .512-.223.512-.67zM87.053 69H86v-7h1.7l.8 5.08.8-5.08H91v7h-1.14v-5.3l-.9 5.3h-1.008l-.9-5.3V69zM93.302 69H92v-7h4v7h-1.302v-6h-1.396v6zM96.306 69c-.105 0-.207-.01-.306-.03v-.969c.053.014.109.02.168.02.217 0 .369-.053.454-.16.092-.113.142-.309.148-.589L96.938 62H100v6.99h-1.086v-5.991h-.949l-.118 4.214c-.013.625-.138 1.081-.375 1.368-.237.28-.626.419-1.166.419zM104 69h-3v-7h3v1h-1.9v1.85h1.51v1h-1.51V68h1.9v1zM109 69h-1.271l-1.016-3.08-.497.88V69H105v-7h1.216v3.01L107.74 62h1.238l-1.448 2.57L109 69zM109 67.328v-3.656c0-.531.13-.943.389-1.234.259-.292.63-.438 1.111-.438.482 0 .852.146 1.111.438.259.291.389.703.389 1.234v.72h-.963v-.788c0-.421-.17-.632-.509-.632-.34 0-.509.21-.509.632v3.802c0 .414.169.622.509.622.339 0 .509-.208.509-.622v-.992H112v.914c0 .531-.13.943-.389 1.234-.259.292-.629.438-1.111.438-.481 0-.852-.146-1.111-.438-.259-.291-.389-.703-.389-1.234zM114.302 69H113v-7h1.302v2.85h1.396V62H117v7h-1.302v-3.15h-1.396V69zM118 67.289V63.71c0-.544.129-.966.386-1.264.258-.298.629-.447 1.114-.447.485 0 .856.15 1.114.447.257.298.386.72.386 1.264v3.578c0 .544-.129.966-.386 1.264-.258.298-.629.447-1.114.447-.485 0-.856-.15-1.114-.447-.257-.298-.386-.72-.386-1.264zm2.012.068v-3.714c0-.447-.171-.67-.512-.67-.341 0-.512.223-.512.67v3.714c0 .447.171.67.512.67.341 0 .512-.223.512-.67zM125 69h-3v-7h3v1h-1.9v1.85h1.51v1h-1.51V68h1.9v1zM127 67.328v-3.656c0-.531.13-.943.389-1.234.259-.292.629-.438 1.111-.438.481 0 .851.146 1.111.438.259.291.389.703.389 1.234v.72h-.963v-.788c0-.421-.17-.632-.509-.632-.34 0-.51.21-.51.632v3.802c0 .414.17.622.51.622.339 0 .509-.208.509-.622v-.992H130v.914c0 .531-.13.943-.389 1.234-.26.292-.63.438-1.111.438-.482 0-.852-.146-1.111-.438-.259-.291-.389-.703-.389-1.234zM132.303 69H131v-7h1.303v2.85h1.395V62H135v7h-1.302v-3.15h-1.395V69zM139 69h-1.167l-.201-1.37h-1.348l-.201 1.37H135l1.21-7h1.581L139 69zm-2.048-5.85l-.519 3.53h1.05l-.531-3.53zM140.526 69H139v-7h2.613v1h-1.625v1.75h.538c.983 0 1.474.577 1.474 1.73v.79c0 1.153-.491 1.73-1.474 1.73zm-.538-3.25V68h.538c.168 0 .292-.05.369-.15.078-.107.117-.277.117-.51v-.93c0-.233-.039-.4-.117-.5-.077-.107-.201-.16-.369-.16h-.538zM148 69h-1.121l-.899-3.3-.424.8V69h-1.112v-2.5l-.424-.8-.899 3.3H142l1.293-4.46-1.272-2.54h1.141l1.282 2.88V62h1.112v2.88l1.282-2.88h1.141l-1.272 2.54L148 69zM151 69h-3v-7h3v1h-1.9v1.85h1.51v1h-1.51V68h1.9v1zM153.302 69H152v-7h1.302v2.85h1.396V62H156v7h-1.302v-3.15h-1.396V69zM158.136 66.52l1.577-4.52H161v7h-1.136v-4.54L158.287 69H157v-7h1.136v4.52zM165 69h-3v-7h3v1h-1.9v1.85h1.51v1h-1.51V68h1.9v1z"/></g></g></svg><svg fill="none" viewBox="0 0 201 101" id="logo_skoda" xmlns="http://www.w3.org/2000/svg"><path fill-rule="evenodd" clip-rule="evenodd" d="M98.069 32.587c9.902-.947 18.732 6.357 19.679 16.266.931 9.9-6.366 18.728-16.27 19.666-9.902.948-18.74-6.356-19.68-16.257-.939-9.9 6.367-18.736 16.27-19.675zm-.812-11.216c16.075-1.514 30.438 10.357 31.97 26.428 1.515 16.088-10.359 30.447-26.434 31.962-16.084 1.531-30.456-10.34-31.97-26.419-1.533-16.08 10.341-30.44 26.434-31.97zm-.082-1.445c17.002-1.612 32.18 10.941 33.792 27.938 1.613 16.997-10.936 32.17-27.936 33.783-16.993 1.611-32.172-10.933-33.784-27.93-1.62-16.988 10.936-32.171 27.928-33.791zm9.76 41.25l-13.856-1.252c-1.187-.282-2.311.04-3.357.925-.562.304-2.415.248-2.677-.513-.55-2.06-.802-2.985-2.243-4.142-.434-.492-.365-.847.206-1.048l4.148.372c.753.077 1.282.274 1.715.507l2.228 1.25c.19.122.987.198 1.012-.633.09-2.286-.877-4.88-2.699-6.902-.564-.605-1.37-1.123-2.237-1.605-.694-.32-1.378-.56-2.088-.636-1.395-.093-2.2-.29-2.408-.584-.85-.621.142-2.372.503-3.273.414-.987 1.018-1.932 1.96-2.341 1.438.214 3.302 1.17 5.409 2.55.675.094.856-.157.492-.762-1.475-1.356-5.01-2.517-4.943-3.288.604-1.42 2.558-2.584 4.01-3.488 1.03-.668 2.197-1.13 3.003-1.002.9.301 2.446 2.22 4.712 5.245.435.596 1.17.075.839-.582-.461-.674-1.016-1.46-1.216-1.755-1.294-1.685-2.404-2.773-2.397-3.223.206-.961 2.56-1.07 5.644-.549 5.698 4.17 7.717 13.435 4.031 22.497-.121.312-.215.736-.205 1.074.009.364.217.527.616.535.363-.01.527-.088.657-.382-.01-.381-.08-.623.136-.97 1.532-.237 4.618 1.53 5.453 3.087-.959 1.266-3.432 2.457-5.484 2.453a.535.535 0 01-.452-.415l-.009-.476c-.035-.38-.183-.605-.503-.674zm-4.297-9.4a2.45 2.45 0 012.662 2.202 2.446 2.446 0 01-2.202 2.653 2.433 2.433 0 01-2.645-2.201 2.435 2.435 0 012.185-2.654zm21.145-11.142l-2.857.361.705 1.618 2.152-1.979zm1.329-2.054l1.278 2.81-6.619 5.953-.906-2.465 1.383-1.232-1.035-2.43-1.862.081-1.07-2.282 8.831-.435zm-10.6-9.317l-2.296 3.407c1.18.975 2.169 1.613 3.376-.215 1.2-1.838.281-2.269-1.08-3.192zm-1.001-2.742l2.384 1.501c2.696 1.683 3.41 3.603 1.727 6.038-1.692 2.436-3.563 2.007-6.155.23l-2.255-1.545 4.299-6.224zm-16.112.7c-.067-2.726 1.887-4.236 4.346-4.128 2.459.107 4.625.69 4.701 3.772.084 3.064-1.775 4.09-4.468 4.139-2.692.048-4.504-1.064-4.58-3.782zm2.795-.446c-.177 2.19.751 2.664 1.625 2.662.892-.002 1.635-.488 1.848-2.375.187-1.784-.776-2.535-1.693-2.49-1.412.064-1.703 1.276-1.78 2.203zm-15.937 1.28l2.11-1.285 1.747 2.913.39-4.017 2.56-1.035-.606 4.069 4.04 2.58-2.526 1-3.598-2.138 1.851 3.06-2.17 1.337-3.798-6.484zm-2.515 13.82c2.585-1.797 3.938-4.734 1.882-6.28-2.384-1.778-3.953 1.688-5 1.552-.676-.085.047-1.67 1.474-2.92l-.99-.846c-3.016 2.335-3.624 5.426-1.354 6.443 1.82.818 3.753-2.38 4.204-2.208 1.577.611-1.12 3.067-1.508 3.301l1.292.958zm26.087 32.344c-1.424-1.703-.91-4.006.872-4.927 1.073-.548 2.692-.508 3.534.313.971.967 1.331 2.983.148 4.31-.89.997-3.574 1.479-4.554.304zm2.968-.83c.726-.364.603-1.411.35-2.034-.409-.977-1.146-1.33-1.812-1.06-.752.304-.733 1.368-.411 2.069.313.7 1.085 1.4 1.873 1.026zm-9.569 3.423l-.269-4.146-1.446.073-.072-1.342 4.615-.218.081 1.333-1.36.072.252 4.146-1.801.082zm-9.643-7.068l1.863.558-.825 2.928c-.138.493-.318 1.238.392 1.384.71.145.865-.487 1.011-1.007l.817-2.935 1.663.446-.834 2.97c-.377 1.551-1.7 2.038-3.052 1.678-1.551-.395-2.298-1.476-1.86-3.052l.825-2.97zm-4.766-1.712l-1.815 1.224 1.006.794.81-2.018zM81.61 69.47l4.886-2.876 2.072 1.441-2.066 5.57-1.414-1.26.379-1.126-1.484-1.183-.916.66-1.457-1.226zm-6.262-33.382l1.1.007c.215-.511.5-.997.82-1.378l-.297-1.099c-.311.33-.614.685-.708.988l.252.485-.64.053c-.26.303-.38.52-.527.944z" fill="#fff" opacity=".8"/></svg><svg fill="none" viewBox="0 0 200 100" id="logo_svyatnyh" xmlns="http://www.w3.org/2000/svg"><g opacity=".8" fill="#F7F7F7"><path d="M138.745 39.289h-22.277a23.267 23.267 0 00-.114-1.416h11.424c.344 0 .63-.277.63-.61a.626.626 0 00-.63-.61h-11.625c-1.603-7.244-8.246-12.684-16.178-12.684-7.931 0-14.574 5.44-16.15 12.683H72a.626.626 0 00-.63.61c0 .334.287.611.63.611h11.597c-.057.472-.115.944-.115 1.416H61.005a.626.626 0 00-.63.61c0 .333.286.61.63.61h22.477c.029.473.058.945.115 1.416H72a.626.626 0 00-.63.611c0 .333.287.61.63.61h11.797c1.518 7.3 8.19 12.823 16.178 12.823 7.989 0 14.661-5.523 16.178-12.822h11.597c.343 0 .63-.278.63-.611a.626.626 0 00-.63-.61h-11.396c.057-.472.086-.944.114-1.416h22.277c.344 0 .63-.278.63-.61a.626.626 0 00-.63-.611zm-38.77 15.459c-8.418 0-15.261-6.633-15.261-14.793s6.843-14.793 15.261-14.793 15.262 6.633 15.262 14.793-6.844 14.793-15.262 14.793z"/><path d="M104.464 38.76c.72-3.24 1.268-5.582 1.268-5.582s.057-.3.461-.3v-.326h-2.853v.326s.807.11.692.681l-.778 5.173c-.72-.027-1.873-.108-2.91-.354L99.22 33.56s-.173-.653.605-.653v-.354h-3.457v.435c.23 0 .317.164.403.572l.778 4.111c-.519-.054-2.795-.49-2.795-3.321 0-3.894 4.956-4.493 6.022-4.493.893 0 6.972.055 6.972 4.847h.317c.519-1.47 1.297-3.84 1.297-3.84s-2.305-1.77-8.586-1.77c-7.866 0-9.306 4.983-9.306 6.181 0 1.198.374 4.602 6.598 5.392.086.38.173.735.23 1.089l1.585 8.331c-3.544-.109-7.001-1.524-7.722-5.8-.144-.026-.403 0-.547 0-.576 2.288-1.239 4.711-1.239 4.711s3.602 2.097 10.372 2.097c6.771 0 9.623-4.384 9.623-7.08.087-2.423-.979-4.138-5.906-5.254zm-1.556 2.423l-.749 4.955-1.21-5.227c.835.163 1.556.272 1.959.272zm-1.095 8.876l2.132-8.631s3.256.599 3.256 3.785c0 4.138-5.388 4.846-5.388 4.846zM45.875 65.986c-5.917-.497-4.25-6.044.278-6.044 4.528 0 4.916 3.753 4.916 3.753l.973-3.118s-1.473-1.546-5.834-1.546c-4.36 0-6.694 2.705-6.694 4.802 0 2.098 2.139 4.637 6.278 4.637 4.139 0 4.389 2.097 4.389 3.228 0 1.16-1.028 3.34-4.39 3.34-3.388 0-5.722-2.429-5.722-4.416-.555 1.573-1.194 3.753-1.194 3.753s2.139 1.656 6.861 1.656c4.722 0 7.139-3.063 7.139-5.547 0-2.76-1.528-4.057-7-4.498zM64.445 60.684s2.37-.272 1.316 2.504c-1.024 2.775-3.685 9.306-3.685 9.306l-3.627-10.748s-.03-1.089 1.989-1.089v-.626h-7.313v.626s1.813-.272 2.31 1.007c.498 1.252 5.646 14.367 5.646 14.367h.322l5.792-14.15s.614-1.224 1.93-1.224v-.626h-4.71v.653h.03zM85.125 60.684v-.653h-4.953v.572h.783c1.092 0 1.344 1.142.756 2.122-.588 1.007-2.967 4.952-2.967 4.952s-1.259-2.176-2.798-4.653c-1.54-2.449.252-2.258.252-2.258h.951v-.735h-7.024v.572c1.595 0 1.875.789 1.875.789l4.59 7.483v5.034c0 1.714-2.211 1.388-2.211 1.388v.734h6.8v-.707c-1.987 0-2.183-1.36-2.183-1.36v-5.66s2.155-3.402 3.386-5.525c1.232-2.122 1.987-2.095 1.987-2.095h.756zM139.153 60.603h.782c1.089 0 1.341 1.142.754 2.122a791.717 791.717 0 01-2.961 4.952s-1.257-2.176-2.793-4.653c-1.536-2.449.251-2.258.251-2.258h.95v-.735h-7.011v.572c1.592 0 1.872.789 1.872.789l4.581 7.483v5.034c0 1.714-2.207 1.388-2.207 1.388v.734h6.788v-.707c-1.984 0-2.179-1.36-2.179-1.36v-5.66s2.151-3.402 3.38-5.524c1.229-2.123 1.983-2.096 1.983-2.096h.782v-.653h-4.944v.572h-.028zM99.125 64.494h.417s.194-3.837 2.777-3.837h1.973v13.116s0 1.605-1.834 1.605v.653h5.417v-.653s-1.694.163-1.694-1.741V60.63h2.25s2.416.3 2.416 3.565h.278V60.03H99.403l-.278 4.463zM122.996 60.657h.816s1.399.027 1.399 1.225v9.877l-8.831-11.7h-4.255v.68s2.244-.218 2.244 1.85v11.456s-.029 1.333-1.37 1.333h-.874v.653h5.129v-.707h-.845s-1.311-.163-1.311-1.388v-11.51l10.287 13.605h.525V61.827s.437-1.224 1.661-1.224h.554v-.572h-5.129v.626zM97.05 74.619L91.225 60.03h-.75l-4.872 13.501s-.807 1.793-2.479 1.793v.706h4.959v-.706c-2.364 0-1.442-2.635-1.442-2.635l1.096-3.07h4.728s.49 1.331 1.009 2.527c1.47 3.558-1.615 3.178-1.615 3.178v.652h7.265v-.706c-1.787.054-2.076-.652-2.076-.652zm-9.053-5.596l1.96-5.76 2.336 5.76h-4.296zM160.496 60.713h.629v-.655h-7v.682h.714s1.486 0 1.486 1.499v5.288h-7.514v-5.533s.085-1.363 1.485-1.363h.715v-.6h-6.657v.627h.742s1.258-.163 1.258 1.472v11.666s.028 1.581-1.543 1.581h-.686v.6h6.943v-.573h-.743s-1.514 0-1.514-1.662v-5.588h7.571v5.56s.057 1.718-1.571 1.718h-.715v.6h6.972v-.628h-.772s-1.514.028-1.514-1.853V62.184s.029-1.471 1.714-1.471z"/></g></svg><svg fill="none" viewBox="0 0 200 100" id="logo_vksm" xmlns="http://www.w3.org/2000/svg"><g opacity=".8"><path fill-rule="evenodd" clip-rule="evenodd" d="M32.969 69.969h57l-28.652-39M92.184 39.831c.32 0 .89-.052.89-.617 0-.593-.551-.65-.89-.65h-.598v1.267h.598zm-.083-1.56c.287 0 .792-.048.792-.547 0-.535-.543-.548-.792-.548h-.515v1.095h.515zm-.858-1.389h.858c.356 0 1.134.04 1.134.855 0 .35-.23.543-.411.649.426.118.598.485.598.822 0 .255-.116.917-1.238.917h-.94v-3.242zm5.92 1.604c0-.806-.645-1.367-1.47-1.367-.84 0-1.48.587-1.48 1.393 0 .815.655 1.376 1.48 1.376.834 0 1.47-.591 1.47-1.402zm.343 0c0 .972-.798 1.695-1.818 1.695-1.01 0-1.817-.697-1.817-1.669 0-.971.798-1.686 1.817-1.686 1.025 0 1.818.697 1.818 1.66zm1 .044h.747c.612 0 .835-.337.835-.674 0-.347-.223-.68-.835-.68h-.746v1.354zm-.342-1.648h1.084c1.006 0 1.182.605 1.182.974 0 .48-.315.967-1.182.967h-.741v1.302h-.343v-3.242zm6.003 1.604c0-.806-.645-1.367-1.47-1.367-.839 0-1.479.587-1.479 1.393 0 .815.654 1.376 1.479 1.376.835 0 1.47-.591 1.47-1.402zm.343 0c0 .972-.798 1.695-1.818 1.695-1.011 0-1.817-.697-1.817-1.669 0-.971.798-1.686 1.817-1.686 1.024 0 1.818.697 1.818 1.66zm.658-1.603h.343v1.427h1.794v-1.428h.343v3.243h-.343v-1.521h-1.794v1.52h-.343v-3.242zm3.282 0h1.882v.293h-1.539v1.17h1.487v.294h-1.487v1.191h1.539v.294h-1.882v-3.242zm5.989 0h.409l-1.267 1.52 1.369 1.722h-.428l-1.357-1.691 1.274-1.551zm-1.77 3.242h.342v-3.242h-.342v3.242zm-1.512 0h-.426l1.367-1.722-1.265-1.52h.407l1.275 1.55-1.358 1.692zm7.079-2.414a1.363 1.363 0 00-1.168-.592c-.863 0-1.443.635-1.443 1.376 0 .797.65 1.393 1.466 1.393.416 0 .881-.19 1.159-.608h.407c-.32.564-.895.901-1.566.901-1.007 0-1.809-.697-1.809-1.686 0-.963.789-1.669 1.78-1.669.715 0 1.294.324 1.581.885h-.407zm2.98-.828h.408l-1.321 1.546 1.377 1.696h-.426l-1.359-1.66 1.321-1.583zm-1.9 3.242h.343v-3.242h-.343v3.242zm3.24-3.242v2.781l2.04-2.782h.361v3.243h-.343v-2.782l-2.039 2.782h-.362v-3.242h.343zm4.075-.79c.019.177.156.342.499.342.345 0 .484-.165.503-.341h.332c-.031.338-.31.614-.835.614-.523 0-.801-.276-.833-.614h.334zm-.529.79v2.781l2.04-2.782h.361v3.243h-.343v-2.782l-2.04 2.782h-.361v-3.242h.343zm6.3 0h.407l-1.321 1.546 1.377 1.696h-.426l-1.358-1.66 1.321-1.583zm-1.901 3.242h.343v-3.242h-.343v3.242zm5.762-1.639c0-.806-.644-1.367-1.47-1.367-.839 0-1.477.587-1.477 1.393 0 .815.652 1.376 1.477 1.376.835 0 1.47-.591 1.47-1.402zm.343 0c0 .972-.797 1.695-1.817 1.695-1.01 0-1.818-.697-1.818-1.669 0-.971.798-1.686 1.818-1.686 1.025 0 1.817.697 1.817 1.66zm.658-1.603h.528l1.263 2.76 1.259-2.76h.529v3.242h-.342v-2.878l-1.303 2.878h-.288l-1.303-2.878v2.878h-.343v-3.242zm4.72 2.948h.791c.599 0 .742-.408.742-.658 0-.248-.143-.656-.742-.656h-.791v1.314zm1.52-2.949v.294h-1.52v1.047h.787c1.053 0 1.09.79 1.09.95 0 .567-.446.952-1.09.952h-1.13v-3.242h1.863zm1.284 0v2.782l2.04-2.782h.361v3.243h-.343v-2.782l-2.039 2.782h-.362v-3.242h.343zm3.203 0h.343v1.428h1.794v-1.428h.343v3.243h-.343v-1.521h-1.794v1.52h-.343v-3.242zm5.317 1.863l-.658-1.485-.667 1.485h1.325zm-.848-1.863h.381l1.469 3.243h-.372l-.495-1.087h-1.595l-.496 1.087h-.37l1.478-3.243zm2.508.294h-.783v-.294h1.909v.294h-.783v2.949h-.343v-2.95zm-60.92 5.449c-.094-.137-.432-.593-1.168-.593-.864 0-1.442.636-1.442 1.375 0 .798.648 1.393 1.465 1.393.417 0 .88-.187 1.158-.608h.408c-.32.565-.895.902-1.566.902-1.007 0-1.81-.696-1.81-1.687 0-.963.79-1.668 1.781-1.668.714 0 1.294.325 1.58.886h-.407zm1.553-.536h-.785v-.294h1.91v.294h-.783v2.948h-.342V42.09zm1.96 1.355h.747c.612 0 .834-.339.834-.676 0-.345-.222-.68-.834-.68h-.746v1.356zm-.344-1.649h1.085c1.007 0 1.183.606 1.183.973 0 .483-.315.97-1.183.97h-.74v1.3h-.345v-3.243zm6.005 1.604c0-.806-.646-1.367-1.471-1.367-.839 0-1.479.587-1.479 1.394 0 .814.655 1.374 1.479 1.374.836 0 1.471-.59 1.471-1.401zm.343 0c0 .973-.798 1.695-1.818 1.695-1.011 0-1.817-.696-1.817-1.668 0-.973.797-1.688 1.817-1.688 1.024 0 1.818.698 1.818 1.66zm1.001-1.604v2.783l2.04-2.783h.361v3.242h-.343v-2.782l-2.039 2.782h-.363v-3.242h.344zm3.675.294h-.783v-.294h1.91v.294h-.784v2.948h-.343V42.09zm1.618-.294h1.882v.293h-1.539v1.171h1.488v.294h-1.488v1.19h1.539v.294h-1.882v-3.242zm5.461 3.242h-.376l-1.201-2.834-1.209 2.834h-.376l1.423-3.242h.324l1.415 3.242zm.843-.293h.793c.598 0 .742-.407.742-.657 0-.25-.144-.658-.742-.658h-.793v1.315zm0-2.949v1.341h.789c.696 0 1.089.373 1.089.951 0 .565-.441.95-1.089.95h-1.132v-3.242h.343zm2.461 0h.344v1.428h1.794v-1.428h.343v3.242h-.343v-1.52h-1.794v1.52h-.344" fill="#F7F7F7"/><mask id="axa" style="mask-type:alpha" maskUnits="userSpaceOnUse" x="33" y="30" width="135" height="40"><path d="M33.031 69.031h134v-39h-134v39z" fill="#fff"/></mask><g mask="url(#axa)" fill-rule="evenodd" clip-rule="evenodd" fill="#F7F7F7"><path d="M124.028 44.944h.339V41.7h-.339v3.242zm-2.22-.294h.784c.592 0 .734-.407.734-.657 0-.25-.142-.657-.734-.657h-.784v1.314zm0-2.949v1.341h.78c.688 0 1.077.374 1.077.951 0 .566-.436.95-1.077.95h-1.119v-3.242h.339zm4.2 1.587l-1.082-1.587h.398l.894 1.302.891-1.302h.398l-1.096 1.587 1.164 1.656h-.398l-.959-1.385-.962 1.385h-.398l1.15-1.656zm4.423-1.587h.523l1.247 2.76 1.247-2.76h.521v3.242h-.338v-2.877l-1.288 2.877h-.284l-1.288-2.877v2.877h-.34v-3.242zm6.34 1.863l-.651-1.485-.66 1.485h1.311zm-.84-1.863h.376l1.454 3.243h-.367l-.491-1.087h-1.576l-.491 1.087h-.367l1.462-3.243zm2.481.294h-.775V41.7h1.888v.294h-.774v2.949h-.339v-2.95zm1.6-.294h1.861v.294h-1.522v1.17h1.471v.294h-1.471v1.191h1.522v.294h-1.861V41.7zm2.91 1.65h.738c.606 0 .826-.34.826-.676 0-.346-.22-.68-.826-.68h-.738v1.355zm-.34-1.65h1.074c.994 0 1.168.606 1.168.974 0 .482-.311.969-1.168.969h-.734v1.3h-.34V41.7zm3.169 0v2.784l2.017-2.784h.357v3.242h-.34v-2.781l-2.016 2.782h-.358V41.7h.34zm5.178 1.863l-.649-1.485-.661 1.485h1.31zm-.838-1.863h.376l1.454 3.243h-.367l-.491-1.087h-1.576l-.491 1.087h-.367l1.462-3.243zm5.162 3.243h-.372l-1.187-2.834-1.196 2.834h-.371l1.407-3.243h.321l1.398 3.243zm3.602-1.639c0-.806-.636-1.367-1.452-1.367-.83 0-1.462.587-1.462 1.395 0 .813.645 1.374 1.462 1.374.825 0 1.452-.592 1.452-1.402zm.34 0c0 .973-.789 1.695-1.796 1.695-1 0-1.797-.696-1.797-1.667 0-.974.787-1.688 1.797-1.688 1.012 0 1.796.697 1.796 1.66zm1.581 1.345c.316 0 .881-.052.881-.617 0-.591-.546-.648-.881-.648h-.592v1.265h.592zm-.082-1.56c.283 0 .784-.048.784-.546 0-.535-.536-.55-.784-.55h-.51v1.096h.51zm-.849-1.389h.849c.353 0 1.123.041 1.123.855 0 .35-.23.544-.409.649.423.118.592.486.592.823 0 .255-.115.916-1.224.916h-.931V41.7zm-67.767-1.963c.316 0 .88-.053.88-.618 0-.592-.545-.649-.88-.649h-.591v1.267h.591zm-.082-1.56c.284 0 .783-.048.783-.548 0-.535-.536-.548-.783-.548h-.51v1.096h.51zm-.848-1.39h.848c.352 0 1.122.04 1.122.855 0 .35-.229.543-.407.65.42.117.591.485.591.821 0 .255-.115.917-1.224.917h-.93v-3.242zm5.854 1.605c0-.807-.639-1.367-1.454-1.367-.83 0-1.463.586-1.463 1.393 0 .814.647 1.375 1.463 1.375.825 0 1.454-.591 1.454-1.401zm.338 0c0 .971-.788 1.694-1.797 1.694-1 0-1.797-.697-1.797-1.668 0-.972.789-1.687 1.797-1.687 1.013 0 1.797.697 1.797 1.66zm.99.043h.738c.606 0 .826-.337.826-.674 0-.347-.22-.68-.826-.68h-.737v1.354zm-.339-1.647h1.073c.994 0 1.169.604 1.169.973 0 .48-.312.968-1.17.968h-.733v1.301h-.339v-3.242zm5.937 1.604c0-.807-.639-1.367-1.454-1.367-.83 0-1.463.586-1.463 1.393 0 .814.647 1.375 1.463 1.375.825 0 1.454-.591 1.454-1.401zm.339 0c0 .971-.789 1.694-1.798 1.694-1 0-1.797-.697-1.797-1.668 0-.972.789-1.687 1.797-1.687 1.013 0 1.798.697 1.798 1.66zm.651-1.604h.339v1.428h1.774v-1.428h.339v3.242h-.339v-1.52h-1.774v1.52h-.339v-3.242zm3.245 0h1.861v.293h-1.522v1.17h1.471v.294h-1.471v1.191h1.522v.294h-1.861v-3.242zm5.922 0h.404l-1.252 1.52 1.353 1.722h-.423l-1.342-1.69 1.26-1.552zm-1.751 3.242h.339v-3.242h-.339v3.242zm-1.495 0h-.421l1.352-1.721-1.251-1.521h.403l1.261 1.551-1.344 1.69zm7-2.414a1.342 1.342 0 00-1.154-.591c-.854 0-1.427.634-1.427 1.375 0 .798.642 1.393 1.449 1.393a1.37 1.37 0 001.146-.608h.403a1.739 1.739 0 01-1.549.901c-.995 0-1.788-.697-1.788-1.686 0-.963.78-1.669 1.76-1.669.706 0 1.279.324 1.563.885h-.403zm2.948-.828h.402l-1.306 1.547 1.362 1.695h-.421l-1.344-1.66 1.307-1.582zm-1.88 3.242h.339v-3.242h-.339v3.242zm3.205-3.242v2.782l2.017-2.782h.357v3.242h-.339v-2.782l-2.017 2.782h-.358v-3.242h.34zm4.029-.789c.019.176.155.341.494.341.34 0 .478-.165.496-.341h.329c-.031.338-.306.615-.825.615-.518 0-.793-.277-.824-.615h.33zm-.523.789v2.782l2.017-2.782h.357v3.242h-.339v-2.782l-2.017 2.782h-.357v-3.242h.339zm6.23 0h.402l-1.306 1.547 1.362 1.695h-.421l-1.344-1.66 1.307-1.582zm-1.88 3.242h.339v-3.242h-.339v3.242zm5.698-1.638c0-.807-.637-1.367-1.454-1.367-.83 0-1.461.586-1.461 1.393 0 .814.645 1.375 1.461 1.375.826 0 1.454-.591 1.454-1.401zm.339 0c0 .971-.789 1.694-1.797 1.694-.999 0-1.797-.697-1.797-1.668 0-.972.788-1.687 1.797-1.687 1.014 0 1.797.697 1.797 1.66zm.651-1.604h.522l1.248 2.76 1.246-2.76h.523v3.242h-.339v-2.877l-1.288 2.877h-.285l-1.288-2.877v2.877h-.339v-3.242zm4.666 2.949h.783c.592 0 .734-.409.734-.659 0-.248-.142-.656-.734-.656h-.783v1.315zm1.504-2.95v.294h-1.504v1.048h.779c1.041 0 1.078.788 1.078.95 0 .566-.441.951-1.078.951h-1.118v-3.242h1.843zm1.269 0v2.783l2.018-2.782h.357v3.242h-.339v-2.782l-2.017 2.782h-.358v-3.242h.339zm3.168 0h.339v1.429h1.774v-1.428h.339v3.242h-.339v-1.52h-1.774v1.52h-.339v-3.242zm5.258 1.863l-.651-1.485-.66 1.485h1.311zm-.839-1.862h.377l1.452 3.242h-.367l-.49-1.087h-1.577l-.491 1.087h-.366l1.462-3.242zm2.48.293h-.775v-.293h1.888v.293h-.774v2.949h-.339v-2.949zM93.92 42.531a1.338 1.338 0 00-1.154-.593c-.854 0-1.425.636-1.425 1.376 0 .797.64 1.393 1.448 1.393.413 0 .87-.188 1.146-.609h.403a1.74 1.74 0 01-1.55.902C91.794 45 91 44.304 91 43.314c0-.964.78-1.67 1.76-1.67.707 0 1.28.326 1.564.887h-.403zm1.537-.536h-.776V41.7h1.89v.294h-.775v2.949h-.34v-2.95zm1.939 1.355h.737c.606 0 .826-.338.826-.675 0-.346-.22-.68-.826-.68h-.737v1.355zm-.34-1.649h1.072c.995 0 1.17.606 1.17.974 0 .482-.312.969-1.17.969h-.732v1.3h-.34V41.7zm5.937 1.604c0-.806-.639-1.367-1.454-1.367-.83 0-1.463.587-1.463 1.395 0 .813.647 1.374 1.463 1.374.826 0 1.454-.592 1.454-1.402zm.339 0c0 .973-.789 1.695-1.797 1.695-1 0-1.797-.696-1.797-1.667 0-.974.788-1.688 1.797-1.688 1.012 0 1.797.697 1.797 1.66zm.99-1.604v2.784l2.017-2.784h.357v3.242h-.339v-2.781l-2.017 2.782h-.358V41.7h.34zm3.634.294h-.775V41.7h1.89v.294h-.776v2.949h-.339v-2.95zm1.6-.294h1.861v.294h-1.522v1.17h1.472v.294h-1.472v1.191h1.522v.294h-1.861V41.7zm5.4 3.243h-.372l-1.187-2.834-1.196 2.834h-.371l1.407-3.243h.32l1.399 3.243zm.834-.294h.784c.592 0 .734-.407.734-.657 0-.25-.142-.657-.734-.657h-.784v1.314zm0-2.949v1.341h.78c.688 0 1.076.374 1.076.951 0 .566-.435.95-1.076.95h-1.119v-3.242h.339zm2.434 0h.34v1.428h1.773v-1.428h.339v3.242h-.339v-1.519h-1.773v1.52h-.34"/><path d="M124.588 44.95h.343v-2.9h-.343v2.9zm-2.245-.263h.793c.598 0 .742-.364.742-.587 0-.223-.144-.588-.742-.588h-.793v1.175zm0-2.636v1.198h.789c.696 0 1.089.334 1.089.851 0 .505-.441.85-1.089.85H122v-2.9h.343zm4.248 1.418l-1.094-1.418h.403l.904 1.163.901-1.163h.403l-1.109 1.418 1.178 1.48h-.403l-.97-1.237-.973 1.237h-.403l1.163-1.48zm4.474-1.419h.529l1.262 2.468 1.261-2.468h.528v2.9h-.343v-2.573l-1.303 2.572h-.287l-1.303-2.572v2.572h-.344v-2.898zm6.414 1.666l-.659-1.328-.667 1.328h1.326zm-.85-1.665h.381l1.47 2.899h-.371l-.497-.972h-1.594l-.496.972h-.372l1.479-2.9zm2.51.262h-.784v-.262h1.91v.262h-.783v2.636h-.343v-2.636zm1.618-.263h1.883v.263h-1.54v1.047h1.488v.262H141.1v1.065h1.54v.263h-1.883v-2.9zm2.945 1.475h.746c.612 0 .835-.303.835-.604 0-.31-.223-.608-.835-.608h-.746v1.212zm-.345-1.474h1.087c1.005 0 1.182.541 1.182.87 0 .43-.316.866-1.182.866h-.742v1.163h-.345v-2.9zm3.206 0v2.488l2.04-2.489h.362v2.9h-.345v-2.488l-2.039 2.487h-.363v-2.898h.345zm5.238 1.665l-.657-1.328-.668 1.328h1.325zm-.848-1.665h.381l1.47 2.899h-.371l-.497-.972h-1.594l-.496.972h-.372l1.479-2.9zm5.222 2.898h-.376l-1.201-2.533-1.21 2.534h-.376l1.424-2.9h.325l1.414 2.9zm3.644-1.465c0-.72-.644-1.222-1.469-1.222-.84 0-1.479.525-1.479 1.247 0 .727.652 1.229 1.479 1.229.835 0 1.469-.529 1.469-1.254zm.343 0c0 .87-.798 1.516-1.817 1.516-1.011 0-1.817-.622-1.817-1.49 0-.871.796-1.51 1.817-1.51 1.025 0 1.817.623 1.817 1.484zm1.6 1.203c.32 0 .891-.047.891-.552 0-.528-.553-.579-.891-.579h-.599v1.131h.599zm-.084-1.395c.288 0 .794-.043.794-.488 0-.478-.542-.491-.794-.491h-.515v.98h.515zm-.858-1.241h.858c.358 0 1.137.036 1.137.763 0 .315-.233.487-.413.58.427.106.598.436.598.737 0 .228-.116.819-1.238.819h-.942v-2.9zM39.002 67.605h6.01c.093-1.454.422-2.86.846-4.263l-5.59-2.373.8-1.986 5.54 2.42c.612-1.307 1.41-2.565 2.396-3.631l-4.273-4.408 1.454-1.502 4.227 4.408a11.81 11.81 0 013.522-2.422l-2.302-5.717 1.879-.822 2.301 5.716c1.362-.436 2.724-.776 4.132-.825V46h2.066v6.2c1.41.05 2.77.389 4.132.825l2.302-5.716 1.925.822-2.302 5.718c1.315.58 2.442 1.403 3.475 2.422l4.273-4.409 1.456 1.502-4.273 4.408c.986 1.066 1.784 2.324 2.395 3.63l5.54-2.42.752 1.987-5.541 2.373c.469 1.356.705 2.809.845 4.263H83L82.993 69H39l.002-1.395zM95.337 65.663h1.869c.8 0 2.001-.031 2.969-.567 1.067-.598 1.369-1.605 1.369-2.423 0-.663-.234-1.796-1.635-2.394-.935-.41-2.036-.41-2.97-.41h-1.602v5.794zm0-8.942h1.235c.667 0 3.37-.062 3.37-2.74 0-1.919-1.569-2.644-3.337-2.644h-1.268v5.384zm1.168-8.72c1.234 0 3.636 0 5.438 1.322 1.301.945 2.07 2.581 2.07 4.345 0 2.707-1.903 3.81-2.502 4.124 1.466.22 2.334.819 2.902 1.322 1.335 1.196 1.601 2.834 1.601 3.936 0 1.227-.367 2.96-1.902 4.25-1.668 1.384-3.703 1.7-5.639 1.7H91V48h5.505zm15.348 8.878L120.027 48h5.473l-9.41 9.697L126 69h-5.74l-7.906-9.413-.501.47V69h-4.337V48h4.337"/><path d="M139.899 67.77c-1.31.663-3.046 1.23-5.405 1.23-3.831 0-6.156-1.263-7.99-2.936C123.982 63.73 123 61.11 123 58.015c0-3.819 1.638-6.565 3.504-8.238 2.195-1.988 4.912-2.777 8.024-2.777 1.538 0 3.372.253 5.371 1.294v4.797a7.163 7.163 0 00-5.274-2.368c-4.388 0-7.237 3.473-7.237 7.355 0 4.672 3.734 7.197 7.402 7.197a6.718 6.718 0 005.109-2.304v4.799zm4.421-20.677h2.947l5.928 13.763 6.189-13.763h2.948L166 68.527h-4.324l-1.964-12.973-5.993 13.257h-1.18l-5.731-13.257-2.226 12.973h-4.324"/></g></g></svg><svg fill="none" viewBox="0 0 200 100" id="logo_vkusvill" xmlns="http://www.w3.org/2000/svg"><g opacity=".8" fill="#F7F7F7"><path d="M109.513 58.564h-9.224V41.437h8.109c3.67 0 5.662 2.222 5.662 4.852 0 1.18-.613 2.386-1.551 3.298 1.384.71 2.57 2.31 2.57 3.978-.002 2.934-2.359 5-5.566 5zm-4.869-3.445h4.275c1.056 0 1.751-.759 1.751-1.69V53.4c0-.932-.695-1.69-1.751-1.69h-4.275v3.408zm0-6.855h3.186c1.141 0 1.82-.76 1.82-1.691 0-.932-.637-1.69-1.82-1.69h-3.186v3.38zM60.467 58.564L54.12 49.81l6.155-8.372h-5.13l-4.89 6.86v-6.86h-4.46v17.127h4.46v-7.028l4.91 7.028h5.3zM140.584 41.436V54.11c0 .569-.259 1.006-.807 1.006-.773 0-.807-.86-.807-1.427h-4.183c0 2.748 1.62 5.31 5.118 5.31 3.043 0 5.138-2.407 5.138-5.364v-8.342h6.03v13.271h4.458V41.436h-14.947z"/><path d="M80.511 41.437l-6.172 12.647c-1.143 2.406-3.496 4.914-7.504 4.914-3.412 0-6.62-2.014-7.19-6.45h4.325c.32 1.772 1.618 2.56 3.066 2.56 1.243 0 2.078-.716 2.308-1.126l-7.352-12.545h5.129l4.67 8.291 3.85-8.291h4.87zM37.872 58.564H26V41.436h10.757c3.67 0 5.661 2.222 5.661 4.851 0 1.18-.612 2.386-1.55 3.299 1.384.71 2.57 2.31 2.57 3.978-.001 2.935-2.358 5-5.566 5zm-7.515-3.445h6.922c1.056 0 1.75-.759 1.75-1.69V53.4c0-.932-.694-1.69-1.75-1.69h-6.922v3.408zm0-6.855h5.833c1.14 0 1.82-.76 1.82-1.691 0-.932-.637-1.69-1.82-1.69h-5.833v3.38zM93.288 52.135c-.686 1.57-2.16 2.675-4.215 2.675-2.902 0-4.648-2.203-4.648-4.805v-.008c0-2.604 1.747-4.806 4.648-4.806 2.062 0 3.54 1.113 4.223 2.692h4.797C97.196 43.96 93.81 41 89.073 41c-5.556 0-9.259 4.075-9.259 8.997v.006c0 4.922 3.703 8.997 9.259 8.997 4.729 0 8.113-2.953 9.017-6.867h-4.802v.002zM129.54 41.437l-7.441 9.899v-9.9h-4.459v17.128h4.068l7.443-9.89v9.89h4.459V41.437h-4.07zM160.571 41.436V53.02c0 1.072-.63 1.706-1.756 1.706h-1.314v3.838h2.363c3.104 0 5.166-1.9 5.166-5.388v-7.883h4.511v13.271H174V41.436h-13.429z"/></g></svg><svg fill="none" viewBox="0 0 201 101" id="logo_volkswagen" xmlns="http://www.w3.org/2000/svg"><g opacity=".8" fill-rule="evenodd" clip-rule="evenodd" fill="#fff"><path d="M100.091 17.55c-18.225.082-32.92 14.924-32.822 33.148.099 18.225 14.953 32.933 33.178 32.851 18.225-.082 32.92-14.922 32.822-33.147-.099-18.225-14.954-32.934-33.178-32.852zm.34 63.04c-16.591.075-30.113-13.314-30.203-29.905-.09-16.59 13.288-30.101 29.879-30.176 16.591-.074 30.114 13.315 30.203 29.906.09 16.591-13.288 30.101-29.879 30.176z"/><path d="M94.144 27.484a23.59 23.59 0 016.499-.936c2.255-.01 4.437.296 6.501.876l-6.42 14.124-6.58-14.064z"/><path d="M112.867 30.493a23.565 23.565 0 016.327 5.965l-10.585 24.108-4.185-9.31-7.834.035-4.083 9.347-10.83-24.034a23.47 23.47 0 016.246-5.998l8.66 19.221 7.86-.035 8.424-19.299zm-34.845 13.95a23.932 23.932 0 00-.753 6.106c.05 9.24 5.33 17.214 12.977 21.046L78.022 44.444z"/><path d="M94.383 71.682c2.047.586 4.164.878 6.289.866a22.41 22.41 0 006.272-.92l-6.353-14.133-6.208 14.187zm16.415-1.6c7.436-3.818 12.514-11.67 12.465-20.713a23.496 23.496 0 00-.786-5.919l-11.679 26.632z"/></g></svg><svg fill="none" viewBox="0 0 199 100" id="logo_vyborstroi" xmlns="http://www.w3.org/2000/svg"><path fill-rule="evenodd" clip-rule="evenodd" d="M87.451 31.517c-7.793 2.886-14.374 4.763-20.927 5.97-2.814.518-3.885.69-8.541 1.378-1.41.208-2.883.43-3.275.496-.62.102 1.212.118 14.294.126l15.005.008.05-2.092c.038-1.611.078-2.11.176-2.163.069-.039 1.046-.384 2.17-.768l2.045-.697 2.942.666c1.618.366 3.113.71 3.322.765l.38.1.025 2.094.025 2.096 22.943-.01 22.942-.011-2.183-.194c-5.376-.476-5.893-.524-9.206-.855-8.416-.84-14.446-1.695-20.31-2.88-3.462-.7-6.394-1.345-10.772-2.373l-4.224-.99c-.626-.146-2.02-.474-3.099-.728-1.078-.254-2.06-.459-2.183-.455-.122.004-.842.237-1.599.517zm-.901 3.473l-1.709.58-.023 11.82-.025 11.819 1.867.857 1.867.857 2.95-.872 2.95-.872.024-11.79.024-11.791-.308-.059a373 373 0 01-2.858-.602c-1.403-.299-2.662-.54-2.8-.535-.138.004-1.02.268-1.96.588zm3.084.85l2.326.37 1.708.27.027.828c.015.455.006.827-.021.827-.027 0-.658-.097-1.403-.217-2.487-.398-3.443-.547-3.515-.548-.039 0-.07-.385-.07-.856 0-.774.015-.852.165-.815.092.022.444.086.783.14zm1.898 3.319c.862.094 1.705.19 1.875.215l.308.044v1.628l-.64-.06c-.353-.033-1.47-.152-2.482-.265a246.87 246.87 0 00-1.874-.205c-.019 0-.034-.369-.034-.82v-.82l.64.057c.353.03 1.346.132 2.207.226zm.523 3.046l1.613.139.027.835.027.836-.501-.048a329.05 329.05 0 00-2.02-.177c-.836-.071-1.743-.151-2.017-.178l-.499-.047v-1.62l.878.06c.483.033 1.604.123 2.492.2zm27.144 1.08c-3.894.693-6.492 4.14-6.5 8.628-.009 4.201 1.813 7.504 4.886 8.86.8.354 1.605.554 2.372.59l.57.027.024-9.12.024-9.118-.356.008a8.833 8.833 0 00-1.02.126zm2.704 9.017v9.15l.546-.057c2.636-.276 4.722-1.667 6-4.001 1.403-2.562 1.685-6.196.699-9-.784-2.23-2.523-4.006-4.684-4.788-.593-.215-1.797-.454-2.285-.454h-.276v9.15zm16.899-4.41c.01 2.467.041 4.858.068 5.314l.049.829 1.006-.001c1.972-.003 3.279-.437 4.414-1.466 1.398-1.268 1.934-3.032 1.53-5.038-.184-.916-.763-2.08-1.275-2.562-1.211-1.142-2.445-1.557-4.641-1.56l-1.169-.001.018 4.485zm-85.643-4.33c-.148.025-.159.65-.159 8.736v8.71h6.644l-.024-8.718-.024-8.718-3.139-.019c-1.726-.01-3.21-.006-3.298.009zm7.64 6.7c.012 3.735.037 7.7.056 8.81l.035 2.02 1.061-.001c.6 0 1.32-.056 1.657-.127 2.134-.45 3.199-1.847 3.406-4.464.104-1.311-.317-2.504-1.171-3.323-.693-.663-1.553-1.077-2.712-1.305-.21-.041-.26-.098-.26-.295 0-.215.042-.251.355-.303.895-.149 2.045-.96 2.505-1.77.282-.493.556-1.55.556-2.14 0-.593-.198-1.356-.497-1.917-.308-.577-1.188-1.32-1.933-1.632-.586-.245-.736-.27-1.858-.306l-1.22-.04.02 6.792zm35.423-6.692c-.021.02-.039 3.95-.039 8.736v8.701h6.644V43.581l-3.283-.023c-1.805-.013-3.3-.008-3.322.012zm7.761.07l3.06 3.231c1.606 1.696 2.937 3.083 2.958 3.083.021 0 .038-1.454.038-3.231v-3.231h-3.099c-2.942 0-3.092.007-2.957.149zm29.997-.083l-3.156.022v17.428h6.644v-8.63c0-4.747.003-8.657.007-8.69.016-.133-.477-.152-3.495-.13zm-65.7 8.735v8.715h6.644v-17.43H68.28v8.715zm25.51-6.398l-.027.786-2.539.023-2.539.022v-1.618h5.132l-.027.787zm-.075 2.83c0 .573-.034.82-.118.845-.066.019-.888.076-1.827.126-.94.05-2.02.113-2.4.14l-.692.049.028-.837.027-.836 2.183-.136c1.2-.074 2.321-.141 2.49-.149l.31-.013v.81zm10.484 1.761c-.025.059-.034 2.46-.021 5.336l.025 5.229 1.186-.011c.776-.007 1.397-.06 1.796-.155 3.059-.723 4.65-3.32 3.985-6.509-.365-1.748-1.651-3.126-3.416-3.658-.996-.3-3.457-.461-3.555-.232zm-28.042 5.37v5.348l1.325-.06c.73-.032 1.551-.117 1.827-.19 1.898-.5 3.352-1.89 3.846-3.678.354-1.282.11-3.138-.563-4.287-.588-1.004-1.845-1.934-3.065-2.269-.21-.057-1.053-.128-1.875-.158l-1.495-.055v5.349zM93.81 51.57c0 .906.061.86-1.328 1.007-.496.053-1.543.172-2.326.266-.783.093-1.436.17-1.45.17-.015 0-.015-.372 0-.828l.027-.83 2.183-.267c1.2-.148 2.343-.272 2.538-.276l.356-.009v.767zm0 2.756c0 .69-.023.808-.166.845-.091.024-.977.2-1.97.392-.99.19-2.046.399-2.344.462-.298.062-.565.093-.593.068-.028-.026-.052-.401-.052-.834v-.788l.546-.1c.3-.056 1.379-.266 2.396-.468 1.018-.201 1.926-.369 2.017-.373.147-.005.166.086.166.796zm-.02 2.917l.027.772-.312.088c-.171.048-.803.202-1.403.343l-2.198.515c-.609.143-1.133.26-1.166.26-.033 0-.047-.372-.032-.826l.027-.826.284-.07c2.102-.508 4.576-1.066 4.65-1.05.053.012.108.37.123.794zm-39.608 7.745c-1.438.602-1.59 2.88-.248 3.712.37.23.484.256 1.138.256.87 0 1.279-.182 1.618-.722.265-.423.229-.534-.218-.656-.337-.093-.347-.089-.474.184-.174.373-.49.556-.957.556-.77 0-1.092-.42-1.092-1.428 0-.56.037-.72.217-.96.426-.568 1.427-.604 1.76-.066.14.225.197.25.482.21.179-.025.364-.08.413-.125.137-.122-.119-.514-.53-.81-.318-.229-.447-.264-1.044-.287-.514-.019-.775.015-1.065.136zm12.627.001c-.82.35-1.197.958-1.197 1.933 0 .757.207 1.235.705 1.627.818.643 2.342.578 3.076-.132.954-.922.661-2.867-.509-3.375-.536-.234-1.588-.26-2.075-.053zm44.18-.083c-.131.03-.309.092-.396.139-.154.083-.648.877-.648 1.042 0 .143-.387.531-.529.531-.109 0-.136-.17-.136-.85v-.85h-.949v3.996h.949v-.893c0-.491.033-.893.074-.893.219 0 .493.318.871 1.01l.423.776h1.013l-.49-.856c-.285-.496-.605-.931-.763-1.036-.261-.172-.265-.186-.107-.342.091-.089.294-.397.45-.686.253-.466.319-.527.593-.55.283-.025.309-.052.309-.32 0-.312-.102-.345-.664-.218zm2.413.034c-.383.138-.705.379-.988.737-.19.243-.237.421-.27 1.044-.049.919.112 1.367.648 1.8 1.005.814 2.809.55 3.411-.499.206-.359.242-.531.239-1.152-.004-.64-.037-.78-.267-1.13-.39-.598-.891-.846-1.77-.879-.414-.015-.833.018-1.003.079zm-56.036.275v.298h1.328v3.4h.855v-3.4h1.328v-.596h-3.511v.298zm4.176 1.7v1.999h.846l.028-.744.027-.744.865-.055c.96-.06 1.168-.13 1.45-.486.304-.381.349-.857.124-1.312-.287-.582-.518-.656-2.054-.656h-1.286v1.999zm9.206 0v1.999h.933l.886-1.297.886-1.297.026 1.297.026 1.297h.849v-3.997h-.906l-.9 1.331-.899 1.332-.026-1.332-.026-1.33h-.849v1.998zm4.27-1.704v.294l.689.025.688.025.026 1.68.025 1.679h.85v-3.401H78.625v-.596H75.02v.294zm4.271 1.705v1.998h3.417v-.591l-1.257-.023-1.258-.024-.028-.574-.028-.574h2.286v-.68h-2.277v-.935h2.467v-.596H79.29v1.999zm4.65-.442c0 1.669-.035 1.81-.474 1.86-.191.022-.243.081-.267.308l-.03.28.59-.025c.906-.04.949-.12.994-1.905l.037-1.437H86.17l.026 1.68.026 1.679h.85v-3.997H83.94v1.557zm4.177.447v2.004l1.526-.027 1.526-.027.325-.317c.285-.28.324-.373.324-.774 0-.566-.284-.988-.762-1.136-.181-.056-.724-.104-1.207-.106l-.878-.005v-1.616h-.854v2.004zm4.555-.005v1.998h.848l.027-.872.027-.871.925-.025.926-.024v1.792h.854v-3.997h-.847l-.027.787-.028.786h-1.803l-.027-.786-.028-.787h-.847v1.999zm5.1-.067c-.457 1.065-.83 1.968-.83 2.006 0 .037.2.056.444.042.44-.026.444-.029.602-.451l.157-.425.922-.025.92-.024.241.47c.239.469.244.472.661.472.231 0 .42-.035.42-.077 0-.042-.382-.931-.849-1.977l-.849-1.9-.503-.024-.504-.025-.832 1.938zm4.716-1.81c-.338.13-.61.576-.609.997 0 .414.311.814.757.974l.38.136-.274.229c-.25.21-1.148 1.375-1.148 1.49 0 .027.229.049.508.049h.509l.355-.516c.195-.283.518-.669.717-.856.303-.286.413-.336.678-.314l.317.028.027.829.027.829h.848v-3.997l-1.4.004c-.954.002-1.493.04-1.692.117zm14.765 1.873v2.002h.76v-1.536c0-.844.036-1.515.08-1.49.044.024.267.715.496 1.535l.417 1.49h.863l.411-1.488c.226-.819.449-1.51.495-1.535.049-.027.085.612.085 1.488v1.536h.759V64.91l-.681.025-.68.025-.378 1.297c-.208.713-.408 1.296-.444 1.296-.036 0-.236-.583-.443-1.296l-.378-1.297-.681-.025-.681-.025v2.002zm5.41-.081c0 1.052-.01 1.941-.024 1.976-.013.035.18.076.428.09l.45.026v-3.41h1.804v3.4h.854V64.919h-3.512v1.913zm5.004.022c-.458 1.063-.832 1.964-.83 2.002.001.037.202.056.445.042.441-.026.444-.029.601-.451l.158-.425.952-.024.952-.024.18.449.18.45.488.025.488.025-.851-1.896a447.044 447.044 0 00-.902-2.002c-.032-.066-.239-.106-.54-.106l-.488.001-.833 1.934zm4.202.063v1.998h.854v-1.786h1.899v1.786h.854v-3.997h-.847l-.028.787-.027.786h-1.803l-.027-.786-.028-.787h-.847v1.999zm4.651 0v1.998l.451-.004.45-.004.902-1.318.902-1.318.026 1.322.026 1.322h.849v-3.997h-.937l-.869 1.276c-.478.701-.908 1.275-.955 1.275-.048 0-.086-.57-.086-1.275v-1.276h-.759v1.999zm5.048-1.826a1.061 1.061 0 00-.54 1.104c.072.38.332.652.785.822l.332.124-.329.313c-.273.26-.742.857-1.063 1.354-.051.08.062.107.453.107h.521l.543-.724c.65-.866.686-.895 1.174-.953l.384-.046V68.915h.854v-3.997h-1.4c-1.237.001-1.437.021-1.714.173zm-73.084.573c.358.186.556.62.556 1.216 0 .922-.443 1.44-1.233 1.44-.798 0-1.33-.568-1.33-1.42 0-1.173.975-1.774 2.007-1.237zm46.473-.01c.393.224.587.62.588 1.202 0 .646-.167 1.037-.549 1.28-.339.217-.945.243-1.344.058-.767-.355-.905-1.904-.218-2.451.399-.319 1.051-.357 1.523-.089zm-51.102.036c.308.217.333.6.056.848-.164.147-.293.17-.83.149l-.637-.025-.029-.458c-.042-.661-.016-.69.63-.69.423 0 .621.043.81.176zm40.823.376v.51l-.736.025c-.677.023-.754.008-.972-.187-.289-.259-.296-.385-.038-.68.191-.217.233-.226.973-.202l.773.024v.51zm39.15 0v.553h-.738c-.899 0-1.161-.125-1.161-.553 0-.428.262-.552 1.161-.552h.738v.552zm-44.383.5c.138.348.25.674.25.725 0 .058-.234.093-.616.093-.34 0-.617-.017-.617-.038 0-.157.603-1.484.66-1.452.04.022.185.325.323.672zm29.89-.01c.144.385.261.73.259.764-.004.09-1.236.08-1.236-.01 0-.041.057-.204.127-.362.069-.157.201-.468.292-.69.091-.222.195-.404.23-.404.036 0 .183.315.328.701zm-38.556.79a.493.493 0 01-.015.769c-.155.126-.378.169-.996.192l-.797.03v-1.232l.812.045c.589.033.862.087.996.196z" fill="#F7F7F7" opacity=".8"/></svg><svg fill="none" viewBox="0 0 11 7" id="menu-arrow" xmlns="http://www.w3.org/2000/svg"><path d="M9.99 1L5.5 6.01.99 1.02" stroke="currentColor" stroke-width="1.5" stroke-linecap="round" stroke-linejoin="round"/></svg><svg fill="none" viewBox="0 0 192 256" id="page_404_num" xmlns="http://www.w3.org/2000/svg"><path fill="#074DF3" d="M0 64h64v64H0zM128 64h64v64h-64zM128 192h64v64h-64z"/><path fill="#5587FF" d="M0 0h64v64H0zM64 64h64v64H64zM128 0h64v64h-64zM128 128h64v64h-64z"/></svg><svg fill="none" viewBox="0 0 44 44" id="why-maps-icon-1" xmlns="http://www.w3.org/2000/svg"><rect width="44" height="44" rx="8" fill="#F3F3F3"/><path d="M25.941 25.959L30 30m-9-13a4 4 0 014 4m3 0a7 7 0 10-14 0 7 7 0 0014 0z" stroke="#074DF3" stroke-width="1.25" stroke-linecap="round"/></svg><svg fill="none" viewBox="0 0 44 44" id="why-maps-icon-2" xmlns="http://www.w3.org/2000/svg"><rect width="44" height="44" rx="8" fill="#F3F3F3"/><path d="M19.252 15.27H12m3.905 11.886H12m2.231-5.403H12m16.431 3.296l.984 2.477c.399 1.005-.799 1.895-1.698 1.262l-2.132-1.502a2.29 2.29 0 00-2.625 0l-2.132 1.502c-.9.633-2.097-.257-1.698-1.262l.984-2.477a2.121 2.121 0 00-.77-2.524l-2.337-1.645c-.874-.616-.425-1.955.656-1.955h2.552c.974 0 1.835-.611 2.128-1.51l.866-2.66c.328-1.007 1.8-1.007 2.128 0l.866 2.66c.292.899 1.154 1.51 2.128 1.51h2.551c1.08 0 1.53 1.34.656 1.955l-2.337 1.645a2.121 2.121 0 00-.77 2.524z" stroke="#074DF3" stroke-width="1.25" stroke-linecap="round"/></svg><svg fill="none" viewBox="0 0 44 44" id="why-maps-icon-3" xmlns="http://www.w3.org/2000/svg"><rect width="44" height="44" rx="8" fill="#F3F3F3"/><path d="M16.5 19.5H14a1 1 0 00-1 1v5a1 1 0 001 1h3m13.448-5.81l-2.166 5.875a1.993 1.993 0 01-2.05 1.298c-1.966-.18-5.437-.501-7.97-.768a1.973 1.973 0 01-1.762-1.97v-5.073a2 2 0 01.617-1.444l5.036-4.823c.07-.067.133-.14.198-.21a1.816 1.816 0 012.145-.38c.77.39 1.139 1.261.874 2.064l-1.276 2.674a.5.5 0 00.451.716h4.268c.52 0 1.01.233 1.331.632.32.399.433.92.304 1.41z" stroke="#074DF3" stroke-width="1.25" stroke-linecap="round"/></svg><svg fill="none" viewBox="0 0 44 44" id="why-maps-icon-4" xmlns="http://www.w3.org/2000/svg"><rect width="44" height="44" rx="8" fill="#F3F3F3"/><path d="M24.6 12h-6.2c-2.24 0-3.36 0-4.216.436a4 4 0 00-1.748 1.748C12 15.04 12 16.16 12 18.4v6.2c0 2.24 0 3.36.436 4.216a4 4 0 001.748 1.748C15.04 31 16.16 31 18.4 31h6.2c2.24 0 3.36 0 4.216-.436a4 4 0 001.748-1.748C31 27.96 31 26.84 31 24.6v-6.2c0-2.24 0-3.36-.436-4.216a4 4 0 00-1.748-1.748C27.96 12 26.84 12 24.6 12z" stroke="#074DF3" stroke-width="1.25" stroke-linecap="round"/><path d="M21.675 23.5c-2.243 0-4.172.975-5.028 2.577-.52.974.424 1.923 1.528 1.923h7c1.105 0 2.05-.949 1.528-1.923-.855-1.602-2.785-2.577-5.028-2.577zM24.176 18a2.5 2.5 0 11-5 0 2.5 2.5 0 015 0z" stroke="#074DF3" stroke-width="1.25" stroke-linecap="round"/></svg></svg>